<?xml version="1.0" encoding="UTF-8" standalone="no"?>
<!-- Created with Inkscape (http://www.inkscape.org/) -->

<svg
   xmlns:dc="http://purl.org/dc/elements/1.1/"
   xmlns:cc="http://creativecommons.org/ns#"
   xmlns:rdf="http://www.w3.org/1999/02/22-rdf-syntax-ns#"
   xmlns:svg="http://www.w3.org/2000/svg"
   xmlns="http://www.w3.org/2000/svg"
   xmlns:sodipodi="http://sodipodi.sourceforge.net/DTD/sodipodi-0.dtd"
   xmlns:inkscape="http://www.inkscape.org/namespaces/inkscape"
   width="1920"
   height="1080"
   viewBox="0 0 507.99999 285.75001"
   version="1.1"
   id="svg5805"
   inkscape:version="0.92.1 r15371"
   sodipodi:docname="001-SGDVennDiagramBlobjectssvg.svg">
  <defs
     id="defs5799">
    <inkscape:path-effect
       effect="spiro"
       id="path-effect6368"
       is_visible="true" />
    <inkscape:path-effect
       effect="spiro"
       id="path-effect6364"
       is_visible="true" />
    <inkscape:path-effect
       effect="spiro"
       id="path-effect6360"
       is_visible="true" />
    <inkscape:path-effect
       effect="spiro"
       id="path-effect6356"
       is_visible="true" />
    <inkscape:path-effect
       effect="spiro"
       id="path-effect6352"
       is_visible="true" />
    <inkscape:path-effect
       effect="spiro"
       id="path-effect6368-3"
       is_visible="true" />
    <inkscape:path-effect
       effect="spiro"
       id="path-effect6360-5"
       is_visible="true" />
  </defs>
  <sodipodi:namedview
     id="base"
     pagecolor="#ffffff"
     bordercolor="#666666"
     borderopacity="1.0"
     inkscape:pageopacity="0.0"
     inkscape:pageshadow="2"
     inkscape:zoom="0.35"
     inkscape:cx="817.80726"
     inkscape:cy="542.3321"
     inkscape:document-units="mm"
     inkscape:current-layer="layer1"
     showgrid="false"
     units="px"
     inkscape:window-width="1440"
     inkscape:window-height="858"
     inkscape:window-x="0"
     inkscape:window-y="24"
     inkscape:window-maximized="1" />
  <metadata
     id="metadata5802">
    <rdf:RDF>
      <cc:Work
         rdf:about="">
        <dc:format>image/svg+xml</dc:format>
        <dc:type
           rdf:resource="http://purl.org/dc/dcmitype/StillImage" />
        <dc:title></dc:title>
      </cc:Work>
    </rdf:RDF>
  </metadata>
  <g
     inkscape:label="Layer 1"
     inkscape:groupmode="layer"
     id="layer1"
     transform="translate(0,-11.249983)">
    <path
       style="fill:#e6e6e6;stroke:none;stroke-width:0.26458332px;stroke-linecap:butt;stroke-linejoin:miter;stroke-opacity:1"
       d="m 304.64881,49.803554 c -6.91944,5.904676 -11.79889,13.784023 -16.68847,21.454476 -4.88959,7.670453 -10.0496,15.424626 -17.32938,20.878858 -5.29564,3.967655 -11.50502,6.548493 -17.81822,8.530822 -6.3132,1.98234 -12.78928,3.40421 -19.12976,5.29748 -6.34047,1.89327 -12.60658,4.2916 -18.065,8.03215 -5.45843,3.74056 -10.09297,8.93136 -12.26678,15.18122 -1.44449,4.15303 -1.76301,8.67193 -1.07018,13.01407 0.69282,4.34215 2.38323,8.50547 4.78201,12.19059 4.79756,7.37023 12.32144,12.69699 20.49288,15.94729 16.34287,6.50062 34.57086,5.04995 52.14648,5.71709 33.78506,1.28243 66.64271,10.70732 99.7857,17.38691 18.17859,3.66368 36.8821,6.51581 55.21256,3.70909 9.16523,-1.40337 18.16215,-4.2416 26.19393,-8.87426 8.03177,-4.63266 15.07786,-11.10046 19.89114,-19.02531 8.07866,-13.30114 9.29165,-30.51049 3.2539,-44.8538 -6.03775,-14.34331 -19.1436,-25.482091 -34.24796,-29.229532 -13.27921,-3.294615 -27.20304,-1.104048 -40.87701,-0.641082 -6.83698,0.231482 -13.74184,0.01788 -20.40638,-1.525433 -6.66455,-1.543309 -13.11228,-4.481905 -18.09161,-9.172775 -5.77781,-5.443094 -9.22733,-12.834893 -12.84508,-19.900464 -3.61774,-7.065571 -7.76806,-14.244549 -14.36919,-18.653105 -5.77748,-3.858483 -13.06302,-5.208366 -19.93879,-4.212885 -6.87578,0.995482 -13.32998,4.23883 -18.61479,8.7486 z"
       id="path6366"
       inkscape:connector-curvature="0"
       inkscape:original-d="m 304.64881,49.803554 c -12.85145,1.512168 -22.6783,28.221954 -34.01785,42.333334 -11.33955,14.111372 -44.85291,24.694182 -67.27976,37.041672 -22.42686,12.34748 50.90105,31.24576 76.35119,46.86904 25.45014,15.62328 66.52408,11.59101 99.7857,17.38691 33.26164,5.79589 67.53201,-16.12725 101.29763,-24.19048 33.76559,-8.06323 -20.66245,-49.38915 -30.99406,-74.083332 -10.33161,-24.69418 -52.9164,-7.55979 -79.375,-11.33929 -26.4586,-3.7795 -18.14258,-25.70264 -27.21427,-38.553569 -9.07169,-12.850926 -25.70213,3.023545 -38.55358,4.535715 z"
       inkscape:path-effect="#path-effect6368" />
    <path
       style="fill:#e6e6e6;stroke:none;stroke-width:0.26458332px;stroke-linecap:butt;stroke-linejoin:miter;stroke-opacity:1"
       d="m 161.01786,116.32736 c -6.44011,-1.31888 -12.90116,-2.65097 -19.45871,-3.11236 -6.55756,-0.46138 -13.25766,-0.0273 -19.47412,2.11048 -6.21646,2.13776 -11.93558,6.08141 -15.47417,11.62152 -1.7693,2.77005 -2.97496,5.91172 -3.40654,9.17015 -0.43158,3.25843 -0.079,6.63085 1.11711,9.69236 1.79991,4.60682 5.40358,8.31259 9.43068,11.18399 4.0271,2.8714 8.51541,5.01551 12.85264,7.39267 4.33723,2.37717 8.60574,5.0521 11.89145,8.74894 1.64286,1.84841 3.02424,3.94419 3.94689,6.23861 0.92265,2.29442 1.37841,4.79158 1.18786,7.25721 -0.26663,3.45012 -1.80859,6.75265 -4.12184,9.32623 -2.31325,2.57358 -5.36871,4.43292 -8.65285,5.52324 -6.56829,2.18064 -13.80486,1.29981 -20.40695,-0.77627 -6.60208,-2.07608 -12.780543,-5.2908 -19.202578,-7.87055 -6.422034,-2.57975 -13.293561,-4.54738 -20.187209,-3.93479 -6.026003,0.53548 -11.828516,3.07925 -16.430552,7.00617 -4.602036,3.92692 -8.00456,9.20326 -9.865915,14.95955 -1.861354,5.75628 -2.19763,11.97444 -1.157693,17.93414 1.039937,5.95969 3.439257,11.65768 6.815762,16.6775 6.753012,10.03966 17.283472,17.18601 28.696965,21.20223 11.413493,4.01622 23.69564,5.07191 35.78667,4.61922 19.95809,-0.74723 39.51675,-5.48477 59.21155,-8.80114 19.69481,-3.31637 40.11608,-5.18906 59.47297,-0.27029 19.22012,4.88401 36.66745,16.28957 56.37303,18.51586 9.8528,1.11314 20.27259,-0.28446 28.61814,-5.63875 4.17278,-2.67714 7.75707,-6.31855 10.15659,-10.65693 2.39951,-4.33837 3.58351,-9.37883 3.12606,-14.31542 -0.37074,-4.00087 -1.80151,-7.86885 -3.9037,-11.29306 -2.1022,-3.42421 -4.86358,-6.41624 -7.9436,-8.99655 -6.16003,-5.1606 -13.50913,-8.6536 -20.71831,-12.20402 -7.20919,-3.55041 -14.47371,-7.28898 -20.30283,-12.82063 -2.91457,-2.76582 -5.44264,-5.97073 -7.21842,-9.57504 -1.77579,-3.6043 -2.78313,-7.61847 -2.65718,-11.63451 0.16301,-5.19778 2.19871,-10.18444 4.89592,-14.63063 2.69721,-4.44619 6.05653,-8.44617 9.1863,-12.59925 3.12978,-4.15308 6.07195,-8.53735 7.77141,-13.45217 1.69945,-4.91481 2.06237,-10.45531 0.069,-15.25842 -2.08025,-5.01238 -6.58536,-8.78977 -11.66345,-10.70402 -5.07809,-1.91425 -10.68186,-2.10114 -16.05343,-1.32802 -10.74312,1.54624 -20.63063,6.75219 -31.2474,9.00823 -17.45871,3.70993 -35.47392,-0.75144 -52.91667,-4.53572 -6.03706,-1.30977 -12.09095,-2.54038 -18.14285,-3.77976 z"
       id="path6358"
       inkscape:connector-curvature="0"
       inkscape:original-d="m 161.01786,116.32736 c -6.04789,-1.25965 -37.79736,19.6545 -56.69643,29.48215 -18.899077,9.82764 38.04986,22.42631 39.30952,40.82142 1.25965,18.3951 -62.995765,-4.53597 -72.571427,2.26786 -9.575662,6.80384 20.410977,68.53942 43.845237,82.39881 23.43426,13.85939 90.71455,-8.81971 118.68452,-9.07143 27.96998,-0.25172 78.11535,-4.53598 98.27382,-12.09524 20.15845,-7.55926 -54.42832,-47.87725 -62.74404,-66.52381 -8.31576,-18.64656 14.61534,-37.29391 21.9226,-55.94047 7.30727,-18.64656 -39.30926,-2.01614 -58.96428,-3.02381 -19.65503,-1.00767 -35.27752,-3.02407 -52.91667,-4.53572 -17.63915,-1.51163 -12.09497,-2.5201 -18.14285,-3.77976 z"
       sodipodi:nodetypes="csssssscsscc"
       inkscape:path-effect="#path-effect6360" />
    <path
       style="fill:#666666;stroke:none;stroke-width:0.26458332px;stroke-linecap:butt;stroke-linejoin:miter;stroke-opacity:1"
       d="m 269.52278,115.21994 c -2.03968,-0.0206 -4.0871,0.13486 -6.10143,0.42478 -10.74312,1.54625 -20.63042,6.7522 -31.24719,9.00824 -8.87351,1.8856 -17.89099,1.65804 -26.90379,0.48369 -0.71933,1.29419 -1.33366,2.64614 -1.82263,4.05195 -1.44449,4.15303 -1.76304,8.67153 -1.07021,13.01367 0.69282,4.34215 2.38335,8.50587 4.78213,12.19099 4.79756,7.37023 12.32137,12.69704 20.49281,15.94735 13.56014,5.39374 28.41615,5.31651 43.12243,5.51387 0.86079,-2.39259 2.01861,-4.69545 3.33675,-6.86831 2.69721,-4.44619 6.05675,-8.44616 9.18652,-12.59923 3.12978,-4.15308 6.07164,-8.53709 7.7711,-13.4519 1.69946,-4.91481 2.06262,-10.45538 0.0692,-15.2585 -2.08025,-5.01238 -6.58528,-8.79 -11.66337,-10.70425 -3.17381,-1.19641 -6.5529,-1.7181 -9.95237,-1.75235 z"
       id="path6358-1"
       inkscape:connector-curvature="0" />
    <text
       xml:space="preserve"
       style="font-style:normal;font-variant:normal;font-weight:normal;font-stretch:normal;font-size:19.75555611px;line-height:1.25;font-family:Underdog;-inkscape-font-specification:'Underdog, Normal';font-variant-ligatures:normal;font-variant-caps:normal;font-variant-numeric:normal;font-feature-settings:normal;text-align:start;letter-spacing:0px;word-spacing:0px;writing-mode:lr-tb;text-anchor:start;fill:#000000;fill-opacity:1;stroke:none;stroke-width:0.26458332"
       x="123.22023"
       y="235.01189"
       id="text6398"><tspan
         sodipodi:role="line"
         id="tspan6396"
         x="123.22023"
         y="235.01189"
         style="font-style:normal;font-variant:normal;font-weight:normal;font-stretch:normal;font-size:19.75555611px;font-family:Underdog;-inkscape-font-specification:'Underdog, Normal';font-variant-ligatures:normal;font-variant-caps:normal;font-variant-numeric:normal;font-feature-settings:normal;text-align:start;writing-mode:lr-tb;text-anchor:start;stroke-width:0.26458332">Graphic Design</tspan></text>
    <text
       xml:space="preserve"
       style="font-style:normal;font-variant:normal;font-weight:normal;font-stretch:expanded;font-size:16.93333244px;line-height:1.25;font-family:'Black Han Sans';-inkscape-font-specification:'Black Han Sans, Expanded';font-variant-ligatures:normal;font-variant-caps:normal;font-variant-numeric:normal;font-feature-settings:normal;text-align:start;letter-spacing:0px;word-spacing:0px;writing-mode:lr-tb;text-anchor:start;fill:#000000;fill-opacity:1;stroke:none;stroke-width:0.26458332"
       x="314.47617"
       y="148.07736"
       id="text6402"><tspan
         sodipodi:role="line"
         id="tspan6400"
         x="314.47617"
         y="148.07736"
         style="font-style:normal;font-variant:normal;font-weight:normal;font-stretch:expanded;font-size:16.93333244px;font-family:'Black Han Sans';-inkscape-font-specification:'Black Han Sans, Expanded';font-variant-ligatures:normal;font-variant-caps:normal;font-variant-numeric:normal;font-feature-settings:normal;text-align:start;writing-mode:lr-tb;text-anchor:start;stroke-width:0.26458332">Sustainability</tspan></text>
  </g>
</svg>
