<?xml version="1.0"?>
<svg xmlns="http://www.w3.org/2000/svg" width="1920" height="1080" viewBox="-960 -540 1920 1080">
    <path d="M241.07,-232.00L-434.40,-102.40" fill="#8cb6ca"/>
    <path d="M61.58,433.75L-155.67,94.93" fill="#8cb6ca"/>
    <path d="M-399.73,-434.26L123.07,292.27" fill="#8cb6ca"/>
    <path d="M454.73,75.02L401.80,489.60" fill="#8cb6ca"/>
    <path d="M163.84,-301.42L140.83,-301.42C130.30,-301.42 121.68,-292.80 121.68,-282.27C121.68,-277.21 123.57,-272.56 126.74,-269.28C124.36,-265.90 122.88,-261.95 122.88,-257.58L122.88,-232.69C122.88,-232.39 123.07,-232.00 123.57,-232.00L135.85,-232.00C136.15,-232.00 136.55,-232.21 136.55,-232.69L136.55,-257.58C136.55,-260.65 138.93,-263.03 142.12,-263.03L159.56,-263.03C159.86,-263.03 160.16,-263.43 160.16,-263.73L160.16,-276.12C160.16,-276.52 159.86,-276.82 159.56,-276.82L140.83,-276.82C137.75,-276.82 135.16,-279.29 135.16,-282.27C135.16,-285.35 137.75,-287.82 140.83,-287.82L163.84,-287.82C164.32,-287.82 164.62,-288.12 164.62,-288.52L164.62,-300.61C164.62,-301.12 164.32,-301.42 163.84,-301.42ZM135.16,-233.18L124.06,-233.18L124.06,-257.58C124.06,-261.65 125.36,-265.32 127.74,-268.40C128.22,-267.89 128.62,-267.50 129.12,-267.20C127.23,-264.51 126.05,-261.16 126.05,-257.58L126.05,-235.68C126.05,-235.28 126.26,-235.08 126.65,-235.08L132.80,-235.08C133.29,-235.08 133.50,-235.28 133.50,-235.68L133.50,-257.58C133.50,-260.07 134.47,-262.25 135.97,-263.82C136.85,-263.54 137.66,-263.43 138.44,-263.33C136.55,-262.16 135.16,-260.07 135.16,-257.58L135.16,-233.18ZM155.90,-272.47L155.90,-267.40L140.83,-267.40C139.35,-267.40 138.05,-267.50 136.55,-268.01C137.96,-268.79 139.53,-269.39 141.22,-269.39L153.61,-269.39C154.01,-269.39 154.31,-269.67 154.31,-269.97C154.31,-270.36 153.91,-270.57 153.61,-270.57L140.83,-270.57C139.35,-270.57 137.96,-270.87 136.46,-271.36C137.96,-271.96 139.53,-272.47 141.22,-272.47L155.90,-272.47ZM132.20,-268.79C132.69,-268.49 133.50,-268.01 134.07,-267.80C133.59,-267.40 132.99,-266.90 132.59,-266.41C132.11,-266.62 131.30,-267.10 130.91,-267.40C131.21,-267.89 131.69,-268.49 132.20,-268.79ZM132.20,-272.65C132.59,-272.17 133.29,-271.66 133.77,-271.36C133.19,-270.97 132.69,-270.67 132.20,-270.27C131.60,-270.67 131.00,-271.06 130.51,-271.57C131.00,-271.96 131.60,-272.26 132.20,-272.65ZM134.98,-270.78C135.76,-270.36 136.76,-269.97 137.66,-269.79C136.76,-269.49 135.76,-268.98 135.07,-268.58C134.58,-268.79 133.68,-269.19 133.19,-269.58C133.68,-269.88 134.37,-270.48 134.98,-270.78ZM131.69,-265.42C130.12,-263.33 129.12,-260.56 129.12,-257.58L129.12,-238.54C129.12,-238.24 129.31,-237.94 129.73,-237.94C130.12,-237.94 130.30,-238.24 130.30,-238.54L130.30,-257.58C130.30,-260.26 131.21,-262.85 132.80,-264.93C133.38,-264.51 133.98,-264.33 134.67,-264.12C133.29,-262.34 132.29,-260.07 132.29,-257.58L132.29,-236.26L127.23,-236.26L127.23,-257.58C127.23,-260.95 128.34,-263.94 130.12,-266.41C130.60,-266.02 131.21,-265.72 131.69,-265.42ZM133.68,-265.90C134.07,-266.32 134.77,-266.90 135.37,-267.31C136.06,-267.01 137.06,-266.62 137.96,-266.41C137.06,-266.20 136.27,-265.51 135.76,-265.12C134.98,-265.32 134.37,-265.51 133.68,-265.90ZM135.07,-272.05C134.47,-272.26 133.59,-272.75 133.19,-273.26C133.68,-273.65 134.58,-274.04 135.16,-274.25C135.97,-273.74 136.76,-273.26 137.54,-272.95C136.76,-272.86 135.85,-272.47 135.07,-272.05ZM132.39,-274.13C130.30,-276.22 129.03,-279.11 129.03,-282.27C129.03,-288.82 134.37,-293.98 140.83,-293.98L157.98,-293.98C158.29,-293.98 158.56,-294.18 158.56,-294.58C158.56,-294.88 158.38,-295.15 157.98,-295.15L140.83,-295.15C133.68,-295.15 127.83,-289.42 127.83,-282.27C127.83,-279.01 129.22,-275.82 131.41,-273.56C130.81,-273.16 130.21,-272.75 129.82,-272.35C127.34,-275.04 126.05,-278.41 126.05,-282.27C126.05,-290.51 132.59,-297.14 140.83,-297.14L160.16,-297.14L160.16,-292.19L140.83,-292.19C135.37,-292.19 131.00,-287.82 131.00,-282.27C131.00,-279.41 132.29,-276.91 134.07,-275.04C133.59,-274.83 132.89,-274.43 132.39,-274.13ZM129.73,-270.67C130.00,-270.27 130.70,-269.79 131.21,-269.49C130.60,-268.98 130.30,-268.58 129.91,-268.19C129.43,-268.49 129.03,-268.79 128.43,-269.39C128.73,-269.79 129.12,-270.27 129.73,-270.67ZM159.07,-275.52L159.07,-264.24L140.83,-264.24C139.53,-264.24 137.96,-264.42 137.06,-264.72C137.96,-265.62 139.92,-266.20 141.31,-266.20L156.60,-266.20C156.78,-266.20 157.08,-266.41 157.08,-266.71L157.08,-273.05C157.08,-273.35 156.78,-273.65 156.48,-273.65L140.83,-273.65C139.35,-273.65 137.96,-273.95 136.55,-274.74C137.96,-275.13 138.93,-275.52 142.12,-275.52L159.07,-275.52ZM163.33,-289.12L140.83,-289.12C137.06,-289.12 133.98,-285.95 133.98,-282.27C133.98,-279.59 135.67,-277.33 137.75,-276.22C137.06,-276.03 136.15,-275.82 135.37,-275.52C133.50,-277.12 132.20,-279.59 132.20,-282.27C132.20,-287.04 136.06,-290.99 140.83,-290.99L160.94,-290.99C161.15,-290.99 161.45,-291.20 161.45,-291.50L161.45,-297.74C161.45,-298.14 161.15,-298.35 160.94,-298.35L140.83,-298.35C132.11,-298.35 124.85,-291.20 124.85,-282.27C124.85,-278.20 126.26,-274.34 128.92,-271.47C128.34,-271.06 128.04,-270.67 127.53,-270.09C124.75,-273.35 122.88,-277.51 122.88,-282.27C122.88,-292.29 131.00,-300.22 140.83,-300.22L163.33,-300.22L163.33,-289.12ZM173.54,-232.00L201.71,-232.00L174.45,-274.94L200.02,-274.94L200.02,-301.42L173.54,-301.42L173.54,-232.00ZM209.65,-266.71C209.65,-260.86 213.21,-256.30 218.46,-254.80C213.21,-253.32 209.65,-248.65 209.65,-242.80C209.65,-235.98 214.81,-230.52 221.63,-230.52C227.29,-230.52 231.85,-234.29 233.33,-239.54C234.62,-234.29 239.09,-230.52 244.94,-230.52C250.60,-230.52 255.16,-234.29 256.64,-239.54C257.93,-234.29 262.40,-230.52 268.25,-230.52C274.98,-230.52 280.34,-235.98 280.34,-242.80C280.34,-249.55 274.98,-255.19 268.25,-255.19C262.40,-255.19 257.93,-251.43 256.64,-245.99C255.55,-250.34 252.27,-253.62 248.01,-254.80C253.26,-256.30 257.03,-260.86 257.03,-266.71C257.03,-272.56 253.26,-277.21 248.01,-278.71C252.27,-279.80 255.55,-283.06 256.64,-287.34C257.93,-282.07 262.40,-278.30 268.25,-278.30C274.98,-278.30 280.34,-283.75 280.34,-290.60C280.34,-297.35 274.98,-302.99 268.25,-302.99C262.40,-302.99 257.93,-299.22 256.64,-293.77C255.16,-299.22 250.79,-302.99 244.94,-302.99C239.09,-302.99 234.62,-299.22 233.33,-293.77C231.85,-299.22 227.48,-302.99 221.63,-302.99C214.81,-302.99 209.65,-297.35 209.65,-290.60C209.65,-284.75 213.21,-280.19 218.46,-278.71C213.21,-277.21 209.65,-272.56 209.65,-266.71ZM235.02,-266.71C235.02,-272.35 239.30,-276.91 244.94,-276.91C250.60,-276.91 254.86,-272.35 254.86,-266.71C254.86,-261.16 250.60,-256.58 244.94,-256.58C239.30,-256.58 235.02,-261.16 235.02,-266.71ZM211.73,-266.71C211.73,-272.35 215.99,-276.91 221.63,-276.91C227.29,-276.91 231.55,-272.35 231.55,-266.71C231.55,-261.16 227.29,-256.58 221.63,-256.58C215.99,-256.58 211.73,-261.16 211.73,-266.71ZM211.73,-242.80C211.73,-248.47 215.99,-253.02 221.63,-253.02C227.29,-253.02 231.55,-248.47 231.55,-242.80C231.55,-237.25 227.29,-232.69 221.63,-232.69C215.99,-232.69 211.73,-237.25 211.73,-242.80ZM235.02,-242.80C235.02,-248.47 239.30,-253.02 244.94,-253.02C250.60,-253.02 254.86,-248.47 254.86,-242.80C254.86,-237.25 250.60,-232.69 244.94,-232.69C239.30,-232.69 235.02,-237.25 235.02,-242.80ZM258.33,-242.80C258.33,-248.47 262.58,-253.02 268.25,-253.02C273.89,-253.02 278.17,-248.47 278.17,-242.80C278.17,-237.25 273.89,-232.69 268.25,-232.69C262.58,-232.69 258.33,-237.25 258.33,-242.80ZM258.33,-290.60C258.33,-296.26 262.58,-300.82 268.25,-300.82C273.89,-300.82 278.17,-296.26 278.17,-290.60C278.17,-285.05 273.89,-280.49 268.25,-280.49C262.58,-280.49 258.33,-285.05 258.33,-290.60ZM211.73,-290.60C211.73,-296.26 215.99,-300.82 221.63,-300.82C227.29,-300.82 231.55,-296.26 231.55,-290.60C231.55,-285.05 227.29,-280.49 221.63,-280.49C215.99,-280.49 211.73,-285.05 211.73,-290.60ZM235.02,-290.60C235.02,-296.26 239.30,-300.82 244.94,-300.82C250.60,-300.82 254.86,-296.26 254.86,-290.60C254.86,-285.05 250.60,-280.49 244.94,-280.49C239.30,-280.49 235.02,-285.05 235.02,-290.60ZM233.33,-263.43C234.44,-259.17 237.51,-255.89 241.77,-254.80C237.51,-253.62 234.44,-250.34 233.33,-245.99C232.24,-250.34 228.98,-253.62 224.70,-254.80C228.98,-255.89 232.24,-259.17 233.33,-263.43ZM233.33,-287.34C234.44,-283.06 237.51,-279.80 241.77,-278.71C237.51,-277.51 234.44,-274.25 233.33,-269.88C232.24,-274.25 228.98,-277.51 224.70,-278.71C228.98,-279.80 232.24,-283.06 233.33,-287.34ZM291.75,-266.71C291.75,-260.86 295.31,-256.30 300.56,-254.80C295.31,-253.32 291.75,-248.65 291.75,-242.80C291.75,-235.98 296.91,-230.52 303.73,-230.52C309.40,-230.52 313.95,-234.29 315.43,-239.54C316.73,-234.29 321.19,-230.52 327.04,-230.52C332.71,-230.52 337.26,-234.29 338.74,-239.54C340.04,-234.29 344.50,-230.52 350.35,-230.52C357.08,-230.52 362.45,-235.98 362.45,-242.80C362.45,-249.55 357.08,-255.19 350.35,-255.19C344.50,-255.19 340.04,-251.43 338.74,-245.99C337.66,-250.34 334.37,-253.62 330.12,-254.80C335.37,-256.30 339.14,-260.86 339.14,-266.71C339.14,-272.56 335.37,-277.21 330.12,-278.71C334.37,-279.80 337.66,-283.06 338.74,-287.34C340.04,-282.07 344.50,-278.30 350.35,-278.30C357.08,-278.30 362.45,-283.75 362.45,-290.60C362.45,-297.35 357.08,-302.99 350.35,-302.99C344.50,-302.99 340.04,-299.22 338.74,-293.77C337.26,-299.22 332.89,-302.99 327.04,-302.99C321.19,-302.99 316.73,-299.22 315.43,-293.77C313.95,-299.22 309.58,-302.99 303.73,-302.99C296.91,-302.99 291.75,-297.35 291.75,-290.60C291.75,-284.75 295.31,-280.19 300.56,-278.71C295.31,-277.21 291.75,-272.56 291.75,-266.71ZM317.12,-266.71C317.12,-272.35 321.40,-276.91 327.04,-276.91C332.71,-276.91 336.96,-272.35 336.96,-266.71C336.96,-261.16 332.71,-256.58 327.04,-256.58C321.40,-256.58 317.12,-261.16 317.12,-266.71ZM293.83,-266.71C293.83,-272.35 298.09,-276.91 303.73,-276.91C309.40,-276.91 313.65,-272.35 313.65,-266.71C313.65,-261.16 309.40,-256.58 303.73,-256.58C298.09,-256.58 293.83,-261.16 293.83,-266.71ZM293.83,-242.80C293.83,-248.47 298.09,-253.02 303.73,-253.02C309.40,-253.02 313.65,-248.47 313.65,-242.80C313.65,-237.25 309.40,-232.69 303.73,-232.69C298.09,-232.69 293.83,-237.25 293.83,-242.80ZM317.12,-242.80C317.12,-248.47 321.40,-253.02 327.04,-253.02C332.71,-253.02 336.96,-248.47 336.96,-242.80C336.96,-237.25 332.71,-232.69 327.04,-232.69C321.40,-232.69 317.12,-237.25 317.12,-242.80ZM340.43,-242.80C340.43,-248.47 344.69,-253.02 350.35,-253.02C355.99,-253.02 360.27,-248.47 360.27,-242.80C360.27,-237.25 355.99,-232.69 350.35,-232.69C344.69,-232.69 340.43,-237.25 340.43,-242.80ZM340.43,-290.60C340.43,-296.26 344.69,-300.82 350.35,-300.82C355.99,-300.82 360.27,-296.26 360.27,-290.60C360.27,-285.05 355.99,-280.49 350.35,-280.49C344.69,-280.49 340.43,-285.05 340.43,-290.60ZM293.83,-290.60C293.83,-296.26 298.09,-300.82 303.73,-300.82C309.40,-300.82 313.65,-296.26 313.65,-290.60C313.65,-285.05 309.40,-280.49 303.73,-280.49C298.09,-280.49 293.83,-285.05 293.83,-290.60ZM317.12,-290.60C317.12,-296.26 321.40,-300.82 327.04,-300.82C332.71,-300.82 336.96,-296.26 336.96,-290.60C336.96,-285.05 332.71,-280.49 327.04,-280.49C321.40,-280.49 317.12,-285.05 317.12,-290.60ZM315.43,-263.43C316.54,-259.17 319.62,-255.89 323.87,-254.80C319.62,-253.62 316.54,-250.34 315.43,-245.99C314.35,-250.34 311.09,-253.62 306.81,-254.80C311.09,-255.89 314.35,-259.17 315.43,-263.43ZM315.43,-287.34C316.54,-283.06 319.62,-279.80 323.87,-278.71C319.62,-277.51 316.54,-274.25 315.43,-269.88C314.35,-274.25 311.09,-277.51 306.81,-278.71C311.09,-279.80 314.35,-283.06 315.43,-287.34Z" fill="#8cb6ca"/>
    <path d="M-76.20,433.75L-12.45,433.75L-12.45,406.67L-48.82,406.67L-48.82,364.23L-76.20,364.23L-76.20,433.75ZM-66.28,373.65L-58.74,373.65L-58.74,416.10L-22.37,416.10L-22.37,424.34L-66.28,424.34L-66.28,373.65ZM28.60,430.88L9.96,430.88L9.96,366.92L28.60,366.92L28.60,364.33L-11.45,364.33L-11.45,366.92L7.19,366.92L7.19,430.88L-11.45,430.88L-11.45,433.75L28.60,433.75L28.60,430.88ZM36.54,433.75L77.71,433.75C78.98,432.45 80.06,430.88 81.17,429.08C82.86,426.02 84.64,421.35 84.64,415.80C84.64,404.70 77.98,398.94 77.71,398.64C77.98,397.95 83.44,392.49 83.44,381.69C83.44,376.84 81.87,372.37 80.18,369.30C79.09,367.52 77.98,365.83 76.71,364.33L36.54,364.33L36.54,433.75ZM63.92,414.81C63.92,421.84 59.34,429.19 57.26,432.15L57.26,399.64C59.34,401.72 63.92,407.27 63.92,414.81ZM62.72,381.69C62.72,388.54 59.16,394.18 57.26,396.96L57.26,367.70C59.74,370.78 62.72,375.75 62.72,381.69ZM96.53,433.75L124.70,433.75L97.44,390.80L123.01,390.80L123.01,364.33L96.53,364.33L96.53,433.75ZM132.64,399.04C132.64,404.89 136.20,409.44 141.45,410.95C136.20,412.43 132.64,417.10 132.64,422.95C132.64,429.77 137.80,435.23 144.62,435.23C150.28,435.23 154.84,431.46 156.32,426.21C157.61,431.46 162.08,435.23 167.93,435.23C173.59,435.23 178.15,431.46 179.63,426.21C180.92,431.46 185.39,435.23 191.24,435.23C197.97,435.23 203.33,429.77 203.33,422.95C203.33,416.20 197.97,410.55 191.24,410.55C185.39,410.55 180.92,414.32 179.63,419.76C178.54,415.41 175.26,412.13 171.00,410.95C176.25,409.44 180.02,404.89 180.02,399.04C180.02,393.19 176.25,388.54 171.00,387.04C175.26,385.95 178.54,382.69 179.63,378.41C180.92,383.68 185.39,387.45 191.24,387.45C197.97,387.45 203.33,381.99 203.33,375.15C203.33,368.40 197.97,362.75 191.24,362.75C185.39,362.75 180.92,366.52 179.63,371.98C178.15,366.52 173.78,362.75 167.93,362.75C162.08,362.75 157.61,366.52 156.32,371.98C154.84,366.52 150.47,362.75 144.62,362.75C137.80,362.75 132.64,368.40 132.64,375.15C132.64,381.00 136.20,385.56 141.45,387.04C136.20,388.54 132.64,393.19 132.64,399.04ZM158.01,399.04C158.01,393.39 162.28,388.84 167.93,388.84C173.59,388.84 177.85,393.39 177.85,399.04C177.85,404.59 173.59,409.17 167.93,409.17C162.28,409.17 158.01,404.59 158.01,399.04ZM134.72,399.04C134.72,393.39 138.97,388.84 144.62,388.84C150.28,388.84 154.54,393.39 154.54,399.04C154.54,404.59 150.28,409.17 144.62,409.17C138.97,409.17 134.72,404.59 134.72,399.04ZM134.72,422.95C134.72,417.28 138.97,412.73 144.62,412.73C150.28,412.73 154.54,417.28 154.54,422.95C154.54,428.50 150.28,433.05 144.62,433.05C138.97,433.05 134.72,428.50 134.72,422.95ZM158.01,422.95C158.01,417.28 162.28,412.73 167.93,412.73C173.59,412.73 177.85,417.28 177.85,422.95C177.85,428.50 173.59,433.05 167.93,433.05C162.28,433.05 158.01,428.50 158.01,422.95ZM181.32,422.95C181.32,417.28 185.57,412.73 191.24,412.73C196.88,412.73 201.16,417.28 201.16,422.95C201.16,428.50 196.88,433.05 191.24,433.05C185.57,433.05 181.32,428.50 181.32,422.95ZM181.32,375.15C181.32,369.48 185.57,364.93 191.24,364.93C196.88,364.93 201.16,369.48 201.16,375.15C201.16,380.70 196.88,385.25 191.24,385.25C185.57,385.25 181.32,380.70 181.32,375.15ZM134.72,375.15C134.72,369.48 138.97,364.93 144.62,364.93C150.28,364.93 154.54,369.48 154.54,375.15C154.54,380.70 150.28,385.25 144.62,385.25C138.97,385.25 134.72,380.70 134.72,375.15ZM158.01,375.15C158.01,369.48 162.28,364.93 167.93,364.93C173.59,364.93 177.85,369.48 177.85,375.15C177.85,380.70 173.59,385.25 167.93,385.25C162.28,385.25 158.01,380.70 158.01,375.15ZM156.32,402.32C157.43,406.58 160.50,409.86 164.76,410.95C160.50,412.13 157.43,415.41 156.32,419.76C155.23,415.41 151.97,412.13 147.69,410.95C151.97,409.86 155.23,406.58 156.32,402.32ZM156.32,378.41C157.43,382.69 160.50,385.95 164.76,387.04C160.50,388.24 157.43,391.50 156.32,395.87C155.23,391.50 151.97,388.24 147.69,387.04C151.97,385.95 155.23,382.69 156.32,378.41Z" fill="#8cb6ca"/>
    <path d="M-493.13,-429.31L-457.15,-468.16L-493.04,-507.15L-529.04,-468.16L-493.13,-429.31ZM-493.04,-505.07C-486.49,-497.92 -482.42,-480.37 -482.42,-468.27C-482.42,-455.58 -486.49,-439.11 -493.04,-432.08C-499.67,-439.21 -503.74,-455.67 -503.74,-468.27C-503.74,-480.67 -499.67,-497.92 -493.04,-505.07ZM-440.87,-497.23C-440.87,-497.23 -436.23,-497.23 -432.64,-497.23C-421.54,-497.23 -414.40,-490.98 -414.40,-482.45C-414.40,-472.34 -421.63,-465.11 -430.26,-465.11C-435.02,-465.11 -437.61,-466.49 -437.61,-466.49L-438.10,-466.08C-438.10,-466.08 -434.63,-463.42 -429.08,-463.42C-420.64,-463.42 -409.36,-470.06 -409.36,-483.84C-409.36,-494.15 -417.38,-503.68 -433.64,-503.68L-448.71,-503.68L-448.71,-434.26L-440.87,-434.26L-440.87,-497.23ZM-401.21,-468.97C-401.21,-463.12 -397.65,-458.56 -392.40,-457.06C-397.65,-455.58 -401.21,-450.91 -401.21,-445.06C-401.21,-438.24 -396.05,-432.78 -389.23,-432.78C-383.56,-432.78 -379.01,-436.55 -377.53,-441.80C-376.23,-436.55 -371.77,-432.78 -365.92,-432.78C-360.25,-432.78 -355.70,-436.55 -354.22,-441.80C-352.92,-436.55 -348.46,-432.78 -342.61,-432.78C-335.88,-432.78 -330.51,-438.24 -330.51,-445.06C-330.51,-451.81 -335.88,-457.45 -342.61,-457.45C-348.46,-457.45 -352.92,-453.68 -354.22,-448.25C-355.30,-452.60 -358.59,-455.88 -362.84,-457.06C-357.59,-458.56 -353.82,-463.12 -353.82,-468.97C-353.82,-474.82 -357.59,-479.47 -362.84,-480.97C-358.59,-482.06 -355.30,-485.32 -354.22,-489.60C-352.92,-484.32 -348.46,-480.55 -342.61,-480.55C-335.88,-480.55 -330.51,-486.01 -330.51,-492.86C-330.51,-499.61 -335.88,-505.25 -342.61,-505.25C-348.46,-505.25 -352.92,-501.48 -354.22,-496.02C-355.70,-501.48 -360.07,-505.25 -365.92,-505.25C-371.77,-505.25 -376.23,-501.48 -377.53,-496.02C-379.01,-501.48 -383.38,-505.25 -389.23,-505.25C-396.05,-505.25 -401.21,-499.61 -401.21,-492.86C-401.21,-487.01 -397.65,-482.45 -392.40,-480.97C-397.65,-479.47 -401.21,-474.82 -401.21,-468.97ZM-375.84,-468.97C-375.84,-474.61 -371.56,-479.17 -365.92,-479.17C-360.25,-479.17 -356.00,-474.61 -356.00,-468.97C-356.00,-463.42 -360.25,-458.84 -365.92,-458.84C-371.56,-458.84 -375.84,-463.42 -375.84,-468.97ZM-399.13,-468.97C-399.13,-474.61 -394.87,-479.17 -389.23,-479.17C-383.56,-479.17 -379.31,-474.61 -379.31,-468.97C-379.31,-463.42 -383.56,-458.84 -389.23,-458.84C-394.87,-458.84 -399.13,-463.42 -399.13,-468.97ZM-399.13,-445.06C-399.13,-450.72 -394.87,-455.28 -389.23,-455.28C-383.56,-455.28 -379.31,-450.72 -379.31,-445.06C-379.31,-439.51 -383.56,-434.95 -389.23,-434.95C-394.87,-434.95 -399.13,-439.51 -399.13,-445.06ZM-375.84,-445.06C-375.84,-450.72 -371.56,-455.28 -365.92,-455.28C-360.25,-455.28 -356.00,-450.72 -356.00,-445.06C-356.00,-439.51 -360.25,-434.95 -365.92,-434.95C-371.56,-434.95 -375.84,-439.51 -375.84,-445.06ZM-352.53,-445.06C-352.53,-450.72 -348.27,-455.28 -342.61,-455.28C-336.97,-455.28 -332.69,-450.72 -332.69,-445.06C-332.69,-439.51 -336.97,-434.95 -342.61,-434.95C-348.27,-434.95 -352.53,-439.51 -352.53,-445.06ZM-352.53,-492.86C-352.53,-498.52 -348.27,-503.08 -342.61,-503.08C-336.97,-503.08 -332.69,-498.52 -332.69,-492.86C-332.69,-487.31 -336.97,-482.75 -342.61,-482.75C-348.27,-482.75 -352.53,-487.31 -352.53,-492.86ZM-399.13,-492.86C-399.13,-498.52 -394.87,-503.08 -389.23,-503.08C-383.56,-503.08 -379.31,-498.52 -379.31,-492.86C-379.31,-487.31 -383.56,-482.75 -389.23,-482.75C-394.87,-482.75 -399.13,-487.31 -399.13,-492.86ZM-375.84,-492.86C-375.84,-498.52 -371.56,-503.08 -365.92,-503.08C-360.25,-503.08 -356.00,-498.52 -356.00,-492.86C-356.00,-487.31 -360.25,-482.75 -365.92,-482.75C-371.56,-482.75 -375.84,-487.31 -375.84,-492.86ZM-377.53,-465.68C-376.42,-461.43 -373.34,-458.15 -369.09,-457.06C-373.34,-455.88 -376.42,-452.60 -377.53,-448.25C-378.61,-452.60 -381.87,-455.88 -386.15,-457.06C-381.87,-458.15 -378.61,-461.43 -377.53,-465.68ZM-377.53,-489.60C-376.42,-485.32 -373.34,-482.06 -369.09,-480.97C-373.34,-479.77 -376.42,-476.51 -377.53,-472.14C-378.61,-476.51 -381.87,-479.77 -386.15,-480.97C-381.87,-482.06 -378.61,-485.32 -377.53,-489.60ZM-280.53,-434.26L-277.36,-434.26L-277.36,-482.15C-277.36,-495.54 -286.68,-504.95 -298.20,-504.95C-309.60,-504.95 -319.10,-495.54 -319.10,-482.15L-319.10,-434.26L-315.93,-434.26L-315.93,-482.15C-315.93,-494.15 -307.31,-501.99 -298.20,-501.99C-288.97,-501.99 -280.53,-494.15 -280.53,-482.06L-280.53,-434.26ZM-286.50,-434.26L-283.30,-434.26L-283.30,-482.15C-283.30,-492.46 -289.76,-499.01 -298.20,-499.01C-306.52,-499.01 -313.16,-492.46 -313.16,-482.15L-313.16,-434.26L-309.99,-434.26L-309.99,-482.15C-309.99,-491.56 -304.44,-496.02 -298.20,-496.02C-291.84,-496.02 -286.50,-491.38 -286.50,-482.06L-286.50,-434.26ZM-292.53,-434.26L-289.46,-434.26L-289.46,-482.15C-289.46,-488.79 -292.92,-493.06 -298.20,-493.06C-303.24,-493.06 -307.01,-488.90 -307.01,-482.15L-307.01,-434.26L-303.93,-434.26L-303.93,-482.15C-303.93,-487.51 -301.46,-490.08 -298.20,-490.08C-295.01,-490.08 -292.53,-487.61 -292.53,-482.06L-292.53,-434.26Z" fill="#8cb6ca"/>
    <path d="M257.00,43.99L281.70,47.66L259.98,57.68L259.98,77.10L307.57,51.32L307.57,34.37L284.86,31.59L304.61,22.37L304.61,2.94L257.00,26.74L257.00,43.99ZM349.92,79.97L385.91,41.12L350.02,2.13L314.01,41.12L349.92,79.97ZM350.02,4.21C356.56,11.36 360.63,28.91 360.63,41.00C360.63,53.70 356.56,70.16 350.02,77.19C343.38,70.07 339.31,53.61 339.31,41.00C339.31,28.61 343.38,11.36 350.02,4.21ZM452.75,40.52C452.75,57.08 442.14,67.39 427.45,67.39C412.89,67.39 402.09,57.08 402.09,40.52L402.09,5.60L392.35,5.60L392.35,40.70C392.35,62.53 407.52,76.62 427.45,76.62C447.39,76.62 462.56,62.33 462.56,40.52L462.56,5.60L452.75,5.60L452.75,40.52ZM476.44,75.02L504.61,75.02L477.35,32.08L502.92,32.08L502.92,5.60L476.44,5.60L476.44,75.02ZM552.21,71.85C535.14,71.85 523.65,58.46 523.65,40.13C523.65,21.97 534.36,8.37 552.21,8.37C560.53,8.37 566.08,11.45 569.94,14.53C572.14,16.33 573.92,18.41 575.31,20.68C574.01,17.60 572.03,14.73 569.46,12.26C565.00,7.98 557.97,3.73 546.45,3.73C526.33,3.73 510.05,19.98 510.05,40.13C510.05,60.24 526.33,76.50 546.45,76.50C556.86,76.50 563.91,72.15 568.67,67.69C571.24,65.19 573.41,62.23 575.22,59.06C573.71,61.45 571.93,63.62 569.85,65.40C565.99,68.68 560.44,71.85 552.21,71.85ZM583.75,40.31C583.75,46.16 587.31,50.72 592.56,52.22C587.31,53.70 583.75,58.37 583.75,64.22C583.75,71.04 588.90,76.50 595.72,76.50C601.39,76.50 605.95,72.73 607.43,67.48C608.72,72.73 613.18,76.50 619.03,76.50C624.70,76.50 629.26,72.73 630.74,67.48C632.03,72.73 636.49,76.50 642.34,76.50C649.07,76.50 654.44,71.04 654.44,64.22C654.44,57.47 649.07,51.83 642.34,51.83C636.49,51.83 632.03,55.60 630.74,61.03C629.65,56.68 626.36,53.40 622.11,52.22C627.36,50.72 631.13,46.16 631.13,40.31C631.13,34.46 627.36,29.81 622.11,28.31C626.36,27.22 629.65,23.96 630.74,19.68C632.03,24.96 636.49,28.72 642.34,28.72C649.07,28.72 654.44,23.27 654.44,16.42C654.44,9.67 649.07,4.03 642.34,4.03C636.49,4.03 632.03,7.80 630.74,13.25C629.26,7.80 624.88,4.03 619.03,4.03C613.18,4.03 608.72,7.80 607.43,13.25C605.95,7.80 601.57,4.03 595.72,4.03C588.90,4.03 583.75,9.67 583.75,16.42C583.75,22.27 587.31,26.83 592.56,28.31C587.31,29.81 583.75,34.46 583.75,40.31ZM609.11,40.31C609.11,34.67 613.39,30.11 619.03,30.11C624.70,30.11 628.95,34.67 628.95,40.31C628.95,45.86 624.70,50.44 619.03,50.44C613.39,50.44 609.11,45.86 609.11,40.31ZM585.83,40.31C585.83,34.67 590.08,30.11 595.72,30.11C601.39,30.11 605.64,34.67 605.64,40.31C605.64,45.86 601.39,50.44 595.72,50.44C590.08,50.44 585.83,45.86 585.83,40.31ZM585.83,64.22C585.83,58.56 590.08,54.00 595.72,54.00C601.39,54.00 605.64,58.56 605.64,64.22C605.64,69.77 601.39,74.33 595.72,74.33C590.08,74.33 585.83,69.77 585.83,64.22ZM609.11,64.22C609.11,58.56 613.39,54.00 619.03,54.00C624.70,54.00 628.95,58.56 628.95,64.22C628.95,69.77 624.70,74.33 619.03,74.33C613.39,74.33 609.11,69.77 609.11,64.22ZM632.42,64.22C632.42,58.56 636.68,54.00 642.34,54.00C647.99,54.00 652.26,58.56 652.26,64.22C652.26,69.77 647.99,74.33 642.34,74.33C636.68,74.33 632.42,69.77 632.42,64.22ZM632.42,16.42C632.42,10.76 636.68,6.20 642.34,6.20C647.99,6.20 652.26,10.76 652.26,16.42C652.26,21.97 647.99,26.53 642.34,26.53C636.68,26.53 632.42,21.97 632.42,16.42ZM585.83,16.42C585.83,10.76 590.08,6.20 595.72,6.20C601.39,6.20 605.64,10.76 605.64,16.42C605.64,21.97 601.39,26.53 595.72,26.53C590.08,26.53 585.83,21.97 585.83,16.42ZM609.11,16.42C609.11,10.76 613.39,6.20 619.03,6.20C624.70,6.20 628.95,10.76 628.95,16.42C628.95,21.97 624.70,26.53 619.03,26.53C613.39,26.53 609.11,21.97 609.11,16.42ZM607.43,43.59C608.54,47.85 611.61,51.13 615.87,52.22C611.61,53.40 608.54,56.68 607.43,61.03C606.34,56.68 603.08,53.40 598.80,52.22C603.08,51.13 606.34,47.85 607.43,43.59ZM607.43,19.68C608.54,23.96 611.61,27.22 615.87,28.31C611.61,29.51 608.54,32.77 607.43,37.14C606.34,32.77 603.08,29.51 598.80,28.31C603.08,27.22 606.34,23.96 607.43,19.68Z" fill="#8cb6ca"/>
    <path d="M-322.93,-312.40L-358.98,-269.46L-446.42,-269.46L-446.42,-229.49L-386.62,-229.49L-386.62,-189.84L-446.42,-189.84L-446.42,-145.37L-426.88,-145.37L-390.83,-102.40L-545.86,-102.40L-510.11,-145.37L-490.89,-145.37L-490.89,-269.46L-510.11,-269.46L-545.86,-312.40L-322.93,-312.40Z" fill="#8cb6ca"/>
    <path d="M-164.53,-72.12L-164.53,51.97L-47.66,51.97L-83.11,94.33L-263.67,94.33L-228.52,51.97L-209.60,51.97L-209.60,-72.12L-228.52,-72.12L-263.67,-115.06L-109.54,-115.06L-145.89,-72.12L-164.53,-72.12Z" fill="#8cb6ca"/>
    <path d="M10.55,186.82C10.55,126.41 61.34,77.76 123.22,77.76C185.40,77.76 235.58,126.41 235.58,186.82C235.58,247.20 185.40,296.48 123.22,296.48C61.34,296.48 10.55,247.20 10.55,186.82ZM61.34,186.82C61.34,224.07 88.97,253.81 123.22,253.81C157.77,253.81 185.40,224.07 185.40,186.82C185.40,150.46 157.77,120.42 123.22,120.42C88.97,120.42 61.34,150.46 61.34,186.82Z" fill="#8cb6ca"/>
    <path d="M351.32,325.55C348.62,336.67 357.03,346.29 426.43,363.41C526.49,386.55 508.76,447.54 508.76,447.54C508.76,447.54 501.84,493.81 423.43,493.81C380.46,493.81 351.32,477.88 332.41,459.26C330.90,460.46 330.90,463.47 329.40,464.67L292.14,485.09C292.14,485.09 303.55,443.33 292.14,412.99L329.40,395.27C355.53,456.25 443.57,462.57 451.08,434.61C452.26,427.42 445.97,420.50 437.25,415.99C418.31,407.28 403.61,405.47 361.54,391.06C317.98,377.84 302.34,353.21 302.34,353.21C290.64,336.07 293.35,320.46 293.35,320.46C293.35,320.46 297.86,275.39 380.46,275.39C419.22,275.39 442.36,289.80 456.77,302.73C458.27,298.52 459.78,294.01 461.28,289.80L497.63,269.68C497.63,269.68 485.93,302.73 497.63,334.57L461.28,351.71C461.28,351.71 461.28,349 459.78,346.29C436.95,301.22 355.83,306.33 351.32,325.55Z" fill="#8cb6ca"/>
    <path d="M-293.28,-214.86L-268.35,-214.86L-344.64,32.03L-369.57,32.03L-293.28,-214.86Z" fill="#8cb6ca"/>
</svg>