<?xml version="1.0" encoding="UTF-8" standalone="no"?>
<svg
   xmlns:dc="http://purl.org/dc/elements/1.1/"
   xmlns:cc="http://creativecommons.org/ns#"
   xmlns:rdf="http://www.w3.org/1999/02/22-rdf-syntax-ns#"
   xmlns:svg="http://www.w3.org/2000/svg"
   xmlns="http://www.w3.org/2000/svg"
   xmlns:sodipodi="http://sodipodi.sourceforge.net/DTD/sodipodi-0.dtd"
   xmlns:inkscape="http://www.inkscape.org/namespaces/inkscape"
   version="1.1"
   x="0px"
   y="0px"
   viewBox="0 0 100 100"
   enable-background="new 0 0 100 100"
   xml:space="preserve"
   id="svg4"
   sodipodi:docname="noun_terminal_53120_000000.svg"
   inkscape:version="0.92.1 r15371"><metadata
     id="metadata10"><rdf:RDF><cc:Work
         rdf:about=""><dc:format>image/svg+xml</dc:format><dc:type
           rdf:resource="http://purl.org/dc/dcmitype/StillImage" /></cc:Work></rdf:RDF></metadata><defs
     id="defs8" /><sodipodi:namedview
     pagecolor="#ffffff"
     bordercolor="#666666"
     borderopacity="1"
     objecttolerance="10"
     gridtolerance="10"
     guidetolerance="10"
     inkscape:pageopacity="0"
     inkscape:pageshadow="2"
     inkscape:window-width="1440"
     inkscape:window-height="858"
     id="namedview6"
     showgrid="false"
     inkscape:zoom="2.36"
     inkscape:cx="-33.050847"
     inkscape:cy="50"
     inkscape:window-x="0"
     inkscape:window-y="24"
     inkscape:window-maximized="1"
     inkscape:current-layer="svg4" /><path
     d="m 43.451763,42.451724 h -4.435652 c -0.517366,0 -3.17267,-0.318281 -3.17267,0.261219 v 5.37528 1.875451 c 0,0.215569 -0.784926,0.09637 -0.959917,0.09637 h -5.687221 c -0.106516,0 -0.961184,-0.05453 -0.961184,0.04438 v 1.92871 5.375279 c 0,0.578233 -2.655305,0.259951 -3.172671,0.259951 h -2.897502 c -0.219374,0 -1.375839,-0.162311 -1.538149,0 -0.140754,0.140754 0,1.145053 0,1.333993 v 3.101659 c 0,0.517366 0.318281,3.17267 -0.26122,3.17267 h -5.375279 -1.875451 c -0.21557,0 -0.09637,-0.783657 -0.09637,-0.959916 v -5.688489 c 0,-0.105249 -0.05453,-0.959917 0.04438,-0.959917 h 1.92871 5.37528 c 0.578232,0 0.259951,-2.655304 0.259951,-3.17267 v -2.897503 c 0,-0.219373 -0.162311,-1.375838 0,-1.538149 0.140753,-0.140754 1.145052,0 1.333992,0 h 3.101659 c 0.517366,0 3.172671,0.318282 3.172671,-0.261219 v -5.375279 -1.875452 c 0,-0.215569 0.784925,-0.09637 0.959916,-0.09637 h 5.687221 c 0.106516,0 0.961185,0.05453 0.961185,-0.04438 v -1.928709 -5.37528 c 0,-0.578232 -2.655305,-0.259951 -3.172671,-0.259951 h -2.897502 c -0.219374,0 -1.375839,0.162311 -1.538149,0 -0.140754,-0.140754 0,-1.145052 0,-1.333992 v -3.10166 c 0,-0.517366 0.318281,-3.17267 -0.26122,-3.17267 h -5.37528 -1.875451 c -0.21557,0 -0.09637,-0.784925 -0.09637,-0.959917 v -5.68722 c 0,-0.106517 0.05453,-0.961185 -0.04438,-0.961185 h -1.92871 -5.37528 c -0.578232,0 -0.259951,-2.655304 -0.259951,-3.17267 v -2.897503 c 0,-0.219373 -0.16231,-1.375838 0,-1.538149 0.140754,-0.140754 1.145053,0 1.333993,0 h 3.101659 c 0.517366,0 3.172671,-0.318282 3.172671,0.261219 v 5.37528 1.875451 c 0,0.215569 0.784925,0.09637 0.959916,0.09637 h 5.687221 c 0.106516,0 0.961185,-0.05453 0.961185,0.04438 v 1.92871 5.375279 c 0,0.578233 2.655304,0.259951 3.17267,0.259951 h 2.897502 c 0.219374,0 1.375839,-0.162311 1.53815,0 0.140754,0.140754 0,1.145053 0,1.333993 v 3.101659 c 0,0.517366 -0.318282,3.17267 0.261219,3.17267 h 5.375279 c 0.284044,0 1.765131,-0.207961 1.973092,0 0.207961,0.207961 0,1.689048 0,1.973092 -0.0013,1.877987 -0.0013,3.757243 -0.0013,5.63523 z M 89.101695,65.27669 H 52.364912 c -0.185136,0 -1.162805,0.138218 -1.304827,0 -0.139486,-0.135681 0,-1.147588 0,-1.33526 v -3.100391 c 0,-0.258683 -0.06594,-3.172671 0.05579,-3.172671 h 1.793028 21.574665 13.313296 c 1.180558,0 1.304827,-0.281508 1.304827,0.959917 z"
     id="path2"
     inkscape:connector-curvature="0"
     sodipodi:nodetypes="csscsssscssssssscsssscssssssscsssscssssssscsssscssssssscsssscssssssssscccscsssccssc"
     style="stroke-width:1.26805365" /></svg>