<svg xmlns="http://www.w3.org/2000/svg" xmlns:xlink="http://www.w3.org/1999/xlink" version="1.1" x="0px" y="0px" viewBox="0 0 64 64" style="enable-background:new 0 0 64 64;" xml:space="preserve"><g><circle style="" cx="32" cy="32" r="21.379" fill="none" stroke="#000000" stroke-width="2" stroke-miterlimit="10"></circle><path style="" d="M1,1   l15.883,15.883c3.869-3.869,9.214-6.262,15.117-6.262c11.807,0,21.379,9.572,21.379,21.379c0,5.904-2.393,11.248-6.262,15.117   L63,63V1H1z" fill="none" stroke="#000000" stroke-width="2" stroke-linecap="round" stroke-linejoin="round" stroke-miterlimit="10"></path><path style="" d="M16.883,16.883l30.235,30.235l0,0   c3.869-3.869,6.262-9.214,6.262-15.117c0-11.807-9.572-21.379-21.379-21.379C26.096,10.621,20.751,13.014,16.883,16.883   L16.883,16.883z" fill="none" stroke="#000000" stroke-width="2" stroke-miterlimit="10"></path><line style="" x1="53.33" y1="33.462" x2="43.396" y2="43.396" fill="none" stroke="#000000" stroke-width="2" stroke-miterlimit="10"></line><line style="" x1="52.336" y1="25.385" x2="38.86" y2="38.861" fill="none" stroke="#000000" stroke-width="2" stroke-miterlimit="10"></line><line style="" x1="49.263" y1="19.387" x2="34.325" y2="34.325" fill="none" stroke="#000000" stroke-width="2" stroke-miterlimit="10"></line><line style="" x1="44.746" y1="14.834" x2="29.79" y2="29.79" fill="none" stroke="#000000" stroke-width="2" stroke-miterlimit="10"></line><line style="" x1="38.788" y1="11.721" x2="25.255" y2="25.255" fill="none" stroke="#000000" stroke-width="2" stroke-miterlimit="10"></line><line style="" x1="30.784" y1="10.655" x2="20.719" y2="20.72" fill="none" stroke="#000000" stroke-width="2" stroke-miterlimit="10"></line></g></svg>