<svg xmlns="http://www.w3.org/2000/svg" xmlns:xlink="http://www.w3.org/1999/xlink" version="1.1" x="0px" y="0px" viewBox="0 0 100 100" enable-background="new 0 0 100 100" xml:space="preserve"><g><circle cx="508.5" cy="-226" r="12"></circle><rect x="494" y="-215" fill="#000000" width="29" height="36"></rect><circle cx="568.5" cy="-226" r="12"></circle><rect x="554" y="-215" fill="#000000" width="29" height="36"></rect><circle cx="620.9" cy="-226" r="12"></circle><polygon fill="#000000" points="636,-179 606,-179 606,-213 606.4,-215 636,-215  "></polygon><circle cx="680.9" cy="-226" r="12"></circle><polygon fill="#000000" points="696,-179 666,-179 666,-213 666.4,-215 696,-215  "></polygon></g><g><circle fill="#000000" cx="360" cy="-210" r="10"></circle><circle fill="#000000" cx="373" cy="-227" r="10"></circle><rect x="350" y="-210" fill="#000000" width="20" height="29"></rect><rect x="383.7" y="-217.9" transform="matrix(-0.7071 0.7071 -0.7071 -0.7071 515.2437 -646.4209)" fill="#000000" width="15.6" height="2.8"></rect><path fill="#000000" d="M512-203h-7c-0.6,0-1-0.4-1-1v-15c0-0.6,0.4-1,1-1h7c0.6,0,1,0.4,1,1v15C513-203.4,512.6-203,512-203z"></path><polyline fill="none" stroke="#000000" stroke-width="10" stroke-linecap="square" stroke-linejoin="round" stroke-miterlimit="10" points="   488,-220 494,-188 508,-204  "></polyline><polyline fill="none" stroke="#000000" stroke-width="10" stroke-linecap="square" stroke-linejoin="round" stroke-miterlimit="10" points="   527,-210 527,-184 509,-184  "></polyline><path fill="#000000" d="M572-203h-7c-0.6,0-1-0.4-1-1v-15c0-0.6,0.4-1,1-1h7c0.6,0,1,0.4,1,1v15C573-203.4,572.6-203,572-203z"></path><g><path d="M587-179h-23v0c0-5.5,4.5-10,10-10h8v-26l0,0c5.5,0,10,4.5,10,10v21C592-181.2,589.8-179,587-179z"></path></g><rect x="360.7" y="-206.8" transform="matrix(0.7071 0.7071 -0.7071 0.7071 -36.3187 -323.8545)" fill="#000000" width="24" height="2.1"></rect><rect x="361.2" y="-194.5" transform="matrix(0.7071 0.7071 -0.7071 0.7071 -29.0487 -316.866)" fill="#000000" width="13.5" height="2.1"></rect><g><path fill="#000000" d="M377-188c-1.3,0-2.6-0.5-3.5-1.5l-17-17c-2-2-2-5.1,0-7.1c2-2,5.1-2,7.1,0l17,17c2,2,2,5.1,0,7.1    C379.6-188.5,378.3-188,377-188z"></path></g><g><path fill="#000000" d="M377-188c-1.3,0-2.6-0.5-3.5-1.5l-17-17c-2-2-2-5.1,0-7.1c2-2,5.1-2,7.1,0l17,17c2,2,2,5.1,0,7.1    C379.6-188.5,378.3-188,377-188z"></path></g><g><path fill="#000000" d="M380.5-189.5l-6-6L391-212l0,0c3.3,3.3,3.3,8.7,0,12L380.5-189.5z"></path></g><circle fill="#000000" cx="230" cy="-210" r="10"></circle><circle fill="#000000" cx="243" cy="-227" r="10"></circle><rect x="220" y="-210" fill="#000000" width="20" height="29"></rect><rect x="253.7" y="-217.9" transform="matrix(-0.7071 0.7071 -0.7071 -0.7071 293.3198 -554.4971)" fill="#000000" width="15.6" height="2.8"></rect><line fill="#000000" stroke="#FFFFFF" stroke-width="10" stroke-linecap="round" stroke-linejoin="round" stroke-miterlimit="10" x1="230" y1="-210" x2="247" y2="-193"></line><g><path fill="#000000" d="M250.5-189.5l-6-6L261-212l0,0c3.3,3.3,3.3,8.7,0,12L250.5-189.5z"></path></g><line fill="#000000" stroke="#FF0000" stroke-width="2" stroke-miterlimit="10" x1="344" y1="-179" x2="397.5" y2="-232.5"></line><path d="M564.2-207.3l-7.1,8.1c0,0.1-0.1,0-0.2,0l-2.9-15.7c0,0,0-0.1-0.1-0.1l0,0c-5.2,0-9.2,4.8-8.2,9.9l3.3,17.8   c0.3,1.7,1.4,3.2,3,3.9c0.7,0.3,1.3,0.4,2,0.4c1.4,0,2.8-0.6,3.8-1.7l14-16c1.8-2.1,1.6-5.2-0.5-7.1v0   C569.2-209.6,566.1-209.4,564.2-207.3z"></path><path fill="#000000" d="M625-203h-7c-0.6,0-1-0.4-1-1v-15c0-0.6,0.4-1,1-1h7c0.6,0,1,0.4,1,1v15C626-203.4,625.6-203,625-203z"></path><g><path d="M641-179h-24v0c0-5.5,4.5-10,10-10h9v-26l0,0c5.5,0,10,4.5,10,10v21C646-181.2,643.8-179,641-179z"></path></g><path d="M616.7-207.3l-7.1,8.1c0,0.1-0.1,0-0.2,0l-2.9-15.7c0,0,0-0.1-0.1-0.1l0,0c-5.2,0-9.2,4.8-8.2,9.9l3.3,17.8   c0.3,1.7,1.4,3.2,3,3.9c0.7,0.3,1.3,0.4,2,0.4c1.4,0,2.8-0.6,3.8-1.7l14-16c1.8-2.1,1.6-5.2-0.5-7.1v0   C621.6-209.6,618.5-209.4,616.7-207.3z"></path><path d="M676.7-207.3l-7.1,8.1c0,0.1-0.1,0-0.2,0l-2.9-15.7c0,0,0-0.1-0.1-0.1l0,0c-5.2,0-9.2,4.8-8.2,9.9l3.3,17.8   c0.3,1.7,1.4,3.2,3,3.9c0.7,0.3,1.3,0.4,2,0.4c1.4,0,2.8-0.6,3.8-1.7l14-16c1.8-2.1,1.6-5.2-0.5-7.1v0   C681.6-209.6,678.5-209.4,676.7-207.3z"></path><path fill="#000000" d="M685-203h-7c-0.6,0-1-0.4-1-1v-15c0-0.6,0.4-1,1-1h7c0.6,0,1,0.4,1,1v15C686-203.4,685.6-203,685-203z"></path><path d="M685.8-207.3l7.1,8.1c0,0.1,0.1,0,0.2,0l2.9-15.7c0,0,0-0.1,0.1-0.1l0,0c5.2,0,9.2,4.8,8.2,9.9l-3.3,17.8   c-0.3,1.7-1.4,3.2-3,3.9c-0.7,0.3-1.3,0.4-2,0.4c-1.4,0-2.8-0.6-3.8-1.7l-14-16c-1.8-2.1-1.6-5.2,0.5-7.1v0   C680.8-209.6,683.9-209.4,685.8-207.3z"></path></g><g display="none"><g display="inline"><polygon points="52,11 52,23 42,17   "></polygon></g><g display="inline"><g><polygon points="58,48 30,48 30,44 60,44    "></polygon></g></g><g display="inline"><g><polygon points="54,56 30,56 30,52 56,52    "></polygon></g></g><g display="inline"><path d="M56,72c-12.1,0-22-9.9-22-22s9.9-22,22-22c4.7,0,9.2,1.5,13,4.3l-2.4,3.2C63.5,33.2,59.8,32,56,32c-9.9,0-18,8.1-18,18    c0,9.9,8.1,18,18,18c3.8,0,7.5-1.2,10.6-3.5l2.4,3.2C65.2,70.5,60.7,72,56,72z"></path></g><g display="inline"><rect x="22" y="44" width="11" height="4"></rect></g><g display="inline"><rect x="14" y="44" width="4" height="4"></rect></g><g display="inline"><rect x="22" y="52" width="4" height="4"></rect></g><g display="inline"><path d="M56,85H10v-4h46c17.1,0,31-13.9,31-31c0-17.1-13.9-31-31-31h-6v-4h6c19.3,0,35,15.7,35,35S75.3,85,56,85z"></path></g></g><g><g><rect x="172" y="-68" width="28" height="4"></rect></g><g><rect x="172" y="-24" width="28" height="4"></rect></g><rect x="200" y="-68" width="4" height="48"></rect><g><path d="M162-36h-4c-2.6,0-4.8,1.7-5.6,4c0.8,2.3,3,4,5.6,4h2c3.1,0,14.7,0,22,0c3.5,0,6,0,6,0c0-4.4,3.6-8,8-8v-16    c-4.4,0-8-3.6-8-8c0,0-2.5,0-6,0c-2.9,0-6.5,0-10,0v14C172-40.5,167.5-36,162-36z"></path><path d="M162-52c3.3,0,6,2.7,6,6s-2.7,6-6,6h-4c-2.3,0-4.3,0.8-6,2.1v3.9c0,0.7,0.1,1.4,0.4,2c0.8-2.3,3-4,5.6-4h4    c5.5,0,10-4.5,10-10v-14c-1.4,0-2.7,0-4,0v6c-1.7-1.3-3.8-2-6-2h-10v4H162z"></path></g><g><rect x="116" y="-100" width="16" height="4"></rect></g><g><rect x="116" y="-56" width="8" height="4"></rect></g><g><rect x="116" y="-100" width="4" height="48"></rect></g><path d="M160-92c-4.6,0-28,0-28,0c0,4.4-3.6,8-8,8v16c4.4,0,8,3.6,8,8c0,0,24,0,28,0V-92z"></path><path d="M168-54c0-3.3-2.7-6-6-6h-24v-32h24c3.3,0,6,2.7,6,6V-54z"></path><path d="M158-24c-3.3,0-6-2.7-6-6s2.7-6,6-6h4c5.5,0,10-4.5,10-10v-44c0-5.5-4.5-10-10-10h-32.1v4H162c3.3,0,6,2.7,6,6v36   c-1.7-1.3-3.8-2-6-2h-42v4h28v22c0,5.5,4.5,10,10,10h36.4v-4H158z M152-52h10c3.3,0,6,2.7,6,6s-2.7,6-6,6h-4c-2.3,0-4.3,0.8-6,2.1   V-52z"></path><path d="M66.6,46c-1.6-2.2-2.9-4.5-4-7c-0.7-1.5-1.5-2.9-2.4-4.1c-1.7-2.4-2.4-5.4-1.5-8.2c0-0.1,0-0.2,0.1-0.2   c0.1-0.3,0.1-0.5,0.2-0.8c0-0.1,0.1-0.3,0.1-0.4c0-0.3,0.1-0.6,0.1-0.9c0-0.1,0-0.1,0-0.2c0,0,0,0,0-0.1c0-0.1,0-0.2,0-0.3   c0-0.2,0-0.4,0-0.6c0-0.2,0-0.4-0.1-0.6c0-0.1,0-0.2,0-0.3c-0.4-2.1-1.5-4.1-3.4-5.6c-0.5-0.4-1.1-0.7-1.7-1c0,0-0.1,0-0.1,0   c-0.3-0.1-0.6-0.3-1-0.4c-0.3-0.1-0.6-0.2-0.9-0.2c-0.1,0-0.2,0-0.3,0c-0.4-0.1-0.8-0.1-1.3-0.1c-0.4,0-0.9,0-1.3,0.1c0,0,0,0,0,0   c-0.9,0.1-1.8,0.3-2.6,0.7c0,0-0.1,0-0.1,0.1c-0.7,0.3-1.4,0.8-2,1.3c-0.1,0.1-0.2,0.1-0.2,0.2c-0.2,0.2-0.4,0.4-0.6,0.6   c0,0-0.1,0.1-0.1,0.1c-1.1,1.2-2.6,1.9-4.2,1.9c-3.2,0-6.4,1.1-9,3h4.2c3.1,0,5.9,1.7,7.4,4.3c0.6,2.7,0,5.5-1.7,7.8   c-0.8,1.1-1.5,2.3-2.2,3.6c-1.2,2.5-2.5,4.9-4.2,7.1c-2.6,3.4-4.1,7.6-4.1,12.1c0,3.2,0.8,6.3,2.1,9c0.7,1.4,2.6,1.3,3.2-0.1   l0.4-0.9c1.7,7.2,5.2,12.9,9.6,15.5c-0.5,0.3-1.1,0.5-1.7,0.5h-5c-1.7,0-3,1.3-3,3h11h3v-2.1c0.3,0,0.7,0.1,1,0.1   c0.3,0,0.7,0,1-0.1V85h3h11c0-1.7-1.3-3-3-3h-5c-0.6,0-1.2-0.2-1.7-0.5c4.2-2.5,7.6-7.8,9.4-14.7l0.2,0.5c0.6,1.4,2.5,1.4,3.2,0.1   c1.5-2.8,2.4-6,2.4-9.4C70.5,53.5,69,49.3,66.6,46z M48.1,20c1.1,0,2,0.9,2,2c0,1.1-0.9,2-2,2s-2-0.9-2-2C46.1,20.9,47,20,48.1,20z    M50.2,80c-7.4,0-13.3-10.1-13.3-22.5c0-6.2,1.5-11.7,3.8-15.8c1.4-2.3,4.1-3.6,6.7-3c0.9,0.2,1.8,0.3,2.7,0.3   c0.9,0,1.9-0.1,2.8-0.3c2.8-0.6,5.6,0.8,7,3.3c2.3,4,3.7,9.5,3.7,15.5C63.5,69.9,57.5,80,50.2,80z"></path></g></svg>