<?xml version="1.0" encoding="UTF-8" standalone="no"?>
<svg
   xmlns:dc="http://purl.org/dc/elements/1.1/"
   xmlns:cc="http://creativecommons.org/ns#"
   xmlns:rdf="http://www.w3.org/1999/02/22-rdf-syntax-ns#"
   xmlns:svg="http://www.w3.org/2000/svg"
   xmlns="http://www.w3.org/2000/svg"
   xmlns:sodipodi="http://sodipodi.sourceforge.net/DTD/sodipodi-0.dtd"
   xmlns:inkscape="http://www.inkscape.org/namespaces/inkscape"
   version="1.1"
   x="0px"
   y="0px"
   viewBox="0 0 100 100"
   style="enable-background:new 0 0 100 100;"
   xml:space="preserve"
   id="svg4503"
   sodipodi:docname="GNU-head.svg"
   inkscape:version="0.92.1 r15371"><metadata
     id="metadata4509"><rdf:RDF><cc:Work
         rdf:about=""><dc:format>image/svg+xml</dc:format><dc:type
           rdf:resource="http://purl.org/dc/dcmitype/StillImage" /><dc:title></dc:title></cc:Work></rdf:RDF></metadata><defs
     id="defs4507" /><sodipodi:namedview
     pagecolor="#ffffff"
     bordercolor="#666666"
     borderopacity="1"
     objecttolerance="10"
     gridtolerance="10"
     guidetolerance="10"
     inkscape:pageopacity="0"
     inkscape:pageshadow="2"
     inkscape:window-width="1440"
     inkscape:window-height="858"
     id="namedview4505"
     showgrid="false"
     inkscape:zoom="6.675088"
     inkscape:cx="22.300653"
     inkscape:cy="53.647289"
     inkscape:window-x="0"
     inkscape:window-y="24"
     inkscape:window-maximized="1"
     inkscape:current-layer="g4501" /><g
     id="g4501"><path
       d="M14.3,26.3c-0.8,0-1.5,0.7-1.5,1.5c0,0.8,0.7,1.5,1.5,1.5c0.8,0,1.5-0.7,1.5-1.5C15.8,27,15.2,26.3,14.3,26.3z M14.3,28.2   c-0.2,0-0.3-0.2-0.3-0.3c0-0.2,0.2-0.3,0.3-0.3c0.2,0,0.3,0.2,0.3,0.3C14.7,28,14.5,28.2,14.3,28.2z"
       id="path4495" /><path
       d="M 11.5,10 C 11.3,10 7.5992187,10.999609 6.6992188,15.099609 6.2182706,18.208192 8.152931,20.273668 10.599609,21.5 c -0.1,0.1 -0.198828,0.300391 -0.298828,0.400391 -0.2,0.4 -0.4015622,0.799609 -0.6015622,1.099609 0,0 -1.765705,2.487739 -2,5.400391 -0.3000001,2.9 -0.6992188,10.7 -0.6992188,11 V 39.5 c 0,0 0.099219,0.699609 0.1992188,1.599609 -0.2000001,0.4 -0.4988282,1.500782 0.2011718,2.800782 0.6,1.1 2.6003904,2.499218 2.9003904,2.699218 l 0.09961,0.09961 H 10.5 c 0.3,0 1.413885,1.810856 4.111992,-1.273758 -0.0711,2.218535 0.59666,4.768613 1.688789,6.37532 C 16.600781,51.900781 16.9,51.8 17,51.5 c 0.2,-0.5 0.4,-1.099219 0.5,-1.699219 0.3,1.5 0.500781,3.298828 0.300781,4.798828 0,0.2 0.09883,0.49961 0.298828,0.59961 0.2,0.1 0.501172,7.81e-4 0.701172,-0.199219 0.1,-0.1 0.498438,-1.099219 0.898438,-2.199219 0.2,1.2 0.40039,2.698438 0.40039,3.898438 0,0.3 0.2,0.501562 0.5,0.601562 0.3,0 0.49961,-0.10039 0.59961,-0.40039 0,-0.1 0.301562,-1.200391 0.601562,-2.400391 0.4,1.6 0.699219,3.499219 0.699219,4.699219 0,0.3 0.2,0.501562 0.5,0.601562 0.3,0 0.499609,-0.10039 0.599609,-0.40039 C 24.307079,49.912245 24.7544,55.533785 24.5,52 c -0.2,-0.1 -0.399609,-0.1 -0.599609,0 -0.2,0.1 -0.300782,0.3 -0.300782,0.5 0,0.6 -0.299218,2.199219 -0.699218,3.699219 -0.4,-2.3 -1.09961,-4.499219 -1.09961,-4.699219 -0.1,-0.3 -0.301562,-0.400391 -0.601562,-0.400391 -0.3,0 -0.5,0.29961 -0.5,0.59961 0,0.5 0.165612,2.431647 0.06561,3.031647 -0.3,-1.8 -0.86444,-4.730475 -0.86444,-4.830475 -0.1,-0.3 -0.29961,-0.500391 -0.59961,-0.400391 -0.3,0 -0.52357,0.300536 -0.5,0.599609 0.09636,1.222734 0.07972,3.14306 -0.300781,2.489341 0.229661,-3.447457 -1,-5.588559 -1,-5.688559 C 17.4,46.600391 17.100781,46.5 16.800781,46.5 c -0.3,0.1 -0.50039,0.299609 -0.40039,0.599609 0,0.2 0.501123,1.905957 0.03896,3.19322 -0.636921,-0.900771 -1.065185,-5.579335 -1.065185,-5.579335 0.8,-0.8 2.32662,-2.213885 3.92662,-1.113885 2.091417,1.697382 3.081548,0.12298 0.59961,-1 -2.8,-1.8 -6.39961,2.100391 -6.59961,2.400391 l -0.101562,0.09961 c -0.2,0.3 -0.699219,0.49961 -1.199219,0.59961 0.7,-0.8 1.300391,-1.8 1.400391,-2 0.2,-0.3 0.09883,-0.598828 -0.201172,-0.798828 -0.3,-0.2 -0.598828,-0.100782 -0.798828,0.199218 -0.4,0.7 -1.39961,2.1 -2.09961,2.5 L 9.0996094,44.69922 c 0.6,0 1.1003906,-0.19961 1.4003906,-0.59961 0.899829,-1.451081 1.329906,-2.701008 -0.09961,-3.099609 -0.1,0 -0.7996097,-7.81e-4 -2.0996098,-0.300781 -0.1,-0.6 -0.1011718,-1.098828 -0.2011718,-1.298828 0,-0.8 0.6011719,-10.501172 0.7011718,-11.701172 C 9.2004027,25.912713 9.6745269,24.689937 10.5,23.800781 10.7,23.400781 10.899219,23 11.199219,22.5 12.099219,20.9 13.2,20.099219 14,19.699219 c 0.531647,-0.180035 0.419053,0.706162 0.5,1.101562 0.6,1.3 2.300781,1.798828 3.800781,1.798828 1.1,0 1.898828,-0.30039 2.298828,-0.90039 0.4,-0.6 1.201172,-0.699219 1.701172,-0.699219 0.814288,0.07571 1.661536,0.178078 2.398438,0.19922 1.5,0 3.20039,-0.499219 3.90039,-1.699219 3.413083,-0.0062 6.968805,0.276964 10,0.599609 3.281479,2.084078 6.115436,4.545905 7.201172,7.400391 0.5,1.6 1.1,3.300781 2,4.300781 1.216284,0.815597 3.338485,4.747382 4.298829,2.898437 -1.389877,-2.914761 -3.292425,-5.739456 -3.699219,-8.798828 2.637439,2.026731 3.695432,4.976443 5.798828,7.298828 1.121205,1.211176 1.61923,2.658685 2.701172,1.90039 0,-0.1 -0.101172,-0.20039 -0.201172,-0.40039 -0.9,-2.1 -2.19961,-5.1 -2.59961,-6.5 C 50.075787,20.496051 43.390734,18.917135 29,18.5 c -0.139803,-2.810116 -1.758313,-5.433095 -3.400391,-7.599609 -1.023814,-0.475114 -1.265904,-0.114436 -1.5,0.699218 0.9,4.3 0.600391,5.700782 0.400391,5.800782 -2.326308,-0.934451 -4.966421,-2.461689 -7,-1.201172 C 15.936808,15.024341 14.302185,14.761239 13,14.800781 11.2,14.900781 10.499609,15.6 10.099609,16 9.7996094,15.6 9.5003906,14.300781 10.400391,12.800781 L 12,10.900391 C 12.292049,10.168942 12.02089,10.277181 11.5,10 Z m -2.1992188,2.5 c -0.8,1.8 -0.4501892,4.223178 0.1498108,5.023178 0.995418,0.398582 1.212925,-1.038882 3.649017,-1.722397 1.197528,-0.14285 2.211806,0.217342 3.201172,0.798828 -0.681976,0.34065 -1.113924,0.995103 -1.5,1.5 C 13.364435,18.608375 11.983554,19.538556 11.199219,20.5 8.4373275,19.485068 7.3462515,17.17698 7.6992188,15.400391 7.9992187,14.100391 8.6007813,13.2 9.3007812,12.5 Z m 16.3984378,0.199219 c 1,1.5 2.300781,3.701172 2.300781,5.201172 0,2 -2.199219,2.199218 -3.199219,2.199218 -0.811007,-0.05385 -1.681002,-0.21823 -2.40039,-0.298829 -1.2,0 -2.201172,0.399219 -2.701172,1.199219 -0.1,0.1 -0.498828,0.400391 -1.298828,0.400391 -1.1,0 -2.400782,-0.401172 -2.800782,-1.201172 0.263969,-5.032713 4.876982,-3.618348 8.5,-1.798828 0.6,0.2 1.1,0.09922 1.5,-0.300782 0.6,-0.7 0.59961,-2.50039 0.09961,-5.400389 z m 16.101562,8 c 1.2,0.2 2.198438,0.500781 2.898438,0.800781 2.874832,2.73466 3.230206,7.139006 4.800782,10.300781 -1.417956,-1.218475 -2.095906,-3.0992 -2.59961,-4.601562 -0.747211,-2.98442 -2.709323,-4.955707 -5.09961,-6.5 z M 47.099609,22.5 c 2.731624,0.940969 5.274035,3.729221 6,5.300781 C 53.825574,29.372341 53.700391,30 54.400391,31.5 52.46125,28.855098 51.070274,26.114253 48.099609,24.300781 c -0.350191,-0.584457 -0.67473,-1.248448 -1,-1.800781 z M 8.1992188,41.900391 c 1.1999999,0.2 1.2719012,0.245862 1.5719012,0.245862 0,0.3 -0.100781,0.701562 -0.300781,1.101562 -0.2,0.1 -0.3699484,0.151406 -1.0699484,-0.0486 -0.3,-0.5 -0.3011718,-0.998828 -0.2011718,-1.298828 z"
       id="path4497"
       inkscape:connector-curvature="0"
       sodipodi:nodetypes="ccccccscccccscccccsscscccscccssccsscccsccccccccccccsccccccccccccsscccccccccccccccccccccccccccccccscccscccccccccczccccccccc" /><path
       d="M21.6,24.9C21.6,24.9,21.5,24.9,21.6,24.9c-0.1,0-0.1,0-0.2,0c0,0-0.1,0-0.1,0.1c0,0-0.1,0.1-0.1,0.1c0,0-0.1,0.1-0.1,0.1   c0,0,0,0,0,0.1c0,0,0,0.1,0,0.1c0,0,0,0,0,0c0,0,0,0,0,0l-0.1,3.7c0,0.3,0.2,0.6,0.5,0.6c0,0,0,0,0,0c0.3,0,0.6-0.2,0.6-0.5   l0.1-2.8c0.2,0.1,0.4,0.2,0.5,0.3c0.4,0.4,1.4,1.8,1.3,2.8c-0.1,0.7-1.4,1.4-1.9,1.5c-0.3,0.1-0.4,0.4-0.4,0.7   c0.1,0.3,0.3,0.4,0.5,0.4c0,0,0.1,0,0.1,0c0.4-0.1,3.9-0.7,4.7-2.5c0.2-0.4,0.4-1.1-0.1-2C25.4,24.6,21.8,24.9,21.6,24.9z M26,29.1   c-0.2,0.4-0.6,0.7-1.1,1c0-0.1,0.1-0.3,0.1-0.4c0.1-1.2-0.7-2.6-1.2-3.3c0.8,0.3,1.6,0.8,2.1,1.8C26.2,28.6,26.1,28.9,26,29.1z"
       id="path4499" /></g></svg>