<?xml version="1.0" encoding="UTF-8" standalone="no"?>
<!-- Generator: Adobe Illustrator 10.0, SVG Export Plug-In . SVG Version: 3.0.0 Build 77)  -->

<svg
   xmlns:ns0="http://ns.adobe.com/SaveForWeb/1.0/"
   xmlns:ns="http://ns.adobe.com/Variables/1.0/"
   xmlns:i="http://ns.adobe.com/AdobeIllustrator/10.0/"
   xmlns:dc="http://purl.org/dc/elements/1.1/"
   xmlns:cc="http://creativecommons.org/ns#"
   xmlns:rdf="http://www.w3.org/1999/02/22-rdf-syntax-ns#"
   xmlns:svg="http://www.w3.org/2000/svg"
   xmlns="http://www.w3.org/2000/svg"
   xmlns:sodipodi="http://sodipodi.sourceforge.net/DTD/sodipodi-0.dtd"
   xmlns:inkscape="http://www.inkscape.org/namespaces/inkscape"
   i:viewOrigin="262 450"
   i:rulerOrigin="0 0"
   i:pageBounds="0 792 612 0"
   width="2.5in"
   height="3in"
   viewBox="0 0 240.00001 287.99999"
   overflow="visible"
   enable-background="new 0 0 87.041 108.445"
   xml:space="preserve"
   version="1.1"
   id="svg31"
   sodipodi:docname="openlogo-nd-simplifiedForVinyl.svg"
   style="overflow:visible"
   inkscape:version="0.92.1 r15371"><defs
     id="defs35"><inkscape:path-effect
       effect="spiro"
       id="path-effect7462"
       is_visible="true" /></defs><sodipodi:namedview
     pagecolor="#ffffff"
     bordercolor="#666666"
     borderopacity="1"
     objecttolerance="10"
     gridtolerance="10"
     guidetolerance="10"
     inkscape:pageopacity="0"
     inkscape:pageshadow="2"
     inkscape:window-width="776"
     inkscape:window-height="460"
     id="namedview33"
     showgrid="false"
     units="in"
     fit-margin-top="0"
     fit-margin-left="0"
     fit-margin-right="0"
     fit-margin-bottom="0"
     inkscape:zoom="2.0349889"
     inkscape:cx="126.49412"
     inkscape:cy="156.26153"
     inkscape:window-x="403"
     inkscape:window-y="153"
     inkscape:window-maximized="1"
     inkscape:current-layer="g28" /><metadata
     id="metadata2"><ns:variableSets><ns:variableSet
         varSetName="binding1"
         locked="none"><ns:variables /><ns:sampleDataSets /></ns:variableSet></ns:variableSets><ns0:sfw><ns0:slices /><ns0:sliceSourceBounds
         y="341.555"
         x="262"
         width="87.041"
         height="108.445"
         bottomLeftOrigin="true" /></ns0:sfw><rdf:RDF><cc:Work
         rdf:about=""><dc:format>image/svg+xml</dc:format><dc:type
           rdf:resource="http://purl.org/dc/dcmitype/StillImage" /><dc:title></dc:title></cc:Work></rdf:RDF></metadata><g
     id="Layer_1"
     i:layer="yes"
     i:dimmedPercent="50"
     i:rgbTrio="#4F008000FFFF"
     transform="matrix(2.6556261,0,0,2.6556261,4.5380509,5.0811e-6)"><g
       id="g28"><path
         i:knockout="Off"
         d="m 51.986,57.297 c -1.797,0.025 0.34,0.926 2.686,1.287 0.648,-0.506 1.236,-1.018 1.76,-1.516 -1.461,0.358 -2.948,0.366 -4.446,0.229"
         id="path4"
         inkscape:connector-curvature="0"
         style="fill:#a80030" /><path
         i:knockout="Off"
         d="m 65.191,45.629 c 0.217,-3.236 -0.637,-2.213 -0.924,-0.978 0.335,0.174 0.6,2.281 0.924,0.978"
         id="path8"
         inkscape:connector-curvature="0"
         style="fill:#a80030" /><path
         i:knockout="Off"
         d="M 47.088,1.932 46.41,2.072 47.041,2.016 47.088,1.932"
         id="path12"
         inkscape:connector-curvature="0"
         style="fill:#a80030" /><path
         i:knockout="Off"
         d="m 76.992,46.856 c 0.107,2.906 -0.85,4.316 -1.713,6.812 -2.921008,1.159773 -1.906085,3.330868 -2.34,4.306 -4.670674,3.761354 -7.694031,6.496659 -12.66,8.168 L 60.16,65.878 C 52.120431,71.434135 34.503015,60.575393 35.883,49.441 35.366,42.884 38.911,36.298 44.89,33.609 c 5.848,-2.895 12.704,-1.707 16.893,2.197 -2.301,-3.014 -6.881,-6.209 -12.309,-5.91 -5.317,0.084 -10.291,3.463 -11.951,7.131 -2.724,1.715 -3.04,6.611 -4.227,7.507 -1.597,11.737 1.292359,16.206613 9.075359,22.171613 0.990964,0.968337 2.142808,1.748061 2.368641,1.465387 9.182,3.43 18.667,2.598 26.612,-3.771 4.897936,-2.794075 5.620568,-5.024675 7.467,-6.423 C 80.778649,47.319234 83.169559,49.980632 84.806,41.13 80.568855,35.378638 86.038435,32.792727 82.173757,27.052752 84.47179,23.707051 83.733758,29.638964 84.84,28.749 83.206426,15.159869 74.142967,6.3620517 62.651,6.08 61.887597,-2.5625203 43.570927,3.5325638 37.832646,0.34835432 32.321963,3.1954723 22.675985,10.339702 20.162,9.078 16.864894,10.830537 12.731575,19.073756 10.199,19.665 9.14,21.458 8.455,23.49 7.615,25.335 6.23,27.695 5.585,26.243 5.782,26.613 3.058,32.136 1.705,36.777 0.536,40.583 1.369,41.828 -1.210403,49.321024 -0.89540303,54.323024 -2.263403,79.027024 18.209,101.77 38.656,107.308 c 2.997,1.072 7.454,1.031 11.245,1.141 -8.386795,-1.45723 -9.689912,-2.18658 -15.466,-7.299 C 30.114401,99.944423 21.574631,94.581424 21.453,89.626 13.442204,85.416689 6.1342734,73.08936 11.02866,73.507573 9.1328854,67.519628 7.1281132,66.080898 7.516,61.415 3.0829319,51.963213 8.0352874,40.111946 11.1,32.614 l -0.97,-0.167 c 1.854,-3.234 10.586,-12.988 14.63,-12.486 5.432322,-9.7657 27.159421,-9.802402 35.752,-6.701 7.359,3.439 15.627,13.605 15.953,23.17 l 0.371,0.1"
         id="path14"
         inkscape:connector-curvature="0"
         style="fill:#a80030"
         sodipodi:nodetypes="cccccccccccccccccccccccccccccccccccccc" /></g></g><path
     style="fill:#a80030;stroke:none;stroke-width:1px;stroke-linecap:butt;stroke-linejoin:miter;stroke-opacity:1;opacity:1;fill-opacity:1"
     d="m 138.29486,79.341552 c 0,0 25.88685,0.521212 36.65856,21.717158 10.77171,21.19595 0.57976,38.52814 -6.74648,44.71658 -7.32624,6.18844 -18.4805,9.80191 -18.4805,9.80191 l -3.78714,-2.57105 c 0,0 6.0808,0.34747 10.07676,-2.25858 3.99596,-2.60606 19.79234,-13.43739 19.19111,-32.1712 -0.60122,-18.733821 -17.10626,-33.848963 -37.08605,-33.675225 -19.97978,0.173737 0.17374,-5.559593 0.17374,-5.559593 z"
     id="path7464"
     inkscape:connector-curvature="0" /></svg>