<?xml version="1.0"?>
<svg xmlns="http://www.w3.org/2000/svg" width="1920" height="1080" viewBox="-960 -540 1920 1080">
    <g>
        <path d="M403.63,3.31L403.63,229.22L563.42,229.22L563.42,19.29L547.44,3.31Z" stroke-width="2.50" fill="#ffffff" stroke="#d43c19"/>
        <path d="M547.44,3.31L547.44,19.29L563.42,19.29Z" stroke-width="2.50" fill="#ffffff" stroke="#d43c19"/>
    </g>
    <g>
        <path d="M-710.32,257.46L-710.32,483.37L-550.53,483.37L-550.53,273.44L-566.51,257.46Z" stroke-width="2.50" fill="#ffffff" stroke="#d43c19"/>
        <path d="M-566.51,257.46L-566.51,273.44L-550.53,273.44Z" stroke-width="2.50" fill="#ffffff" stroke="#d43c19"/>
    </g>
    <g>
        <path d="M44.49,146.74L44.49,372.65L204.28,372.65L204.28,162.71L188.30,146.74Z" stroke-width="2.50" fill="#ffffff" stroke="#d43c19"/>
        <path d="M188.30,146.74L188.30,162.71L204.28,162.71Z" stroke-width="2.50" fill="#ffffff" stroke="#d43c19"/>
    </g>
    <g>
        <path d="M-1101.94,37.08L-1101.94,262.99L-942.15,262.99L-942.15,53.06L-958.12,37.08Z" stroke-width="2.50" fill="#ffffff" stroke="#d43c19"/>
        <path d="M-958.12,37.08L-958.12,53.06L-942.15,53.06Z" stroke-width="2.50" fill="#ffffff" stroke="#d43c19"/>
    </g>
    <g>
        <path d="M-241.00,376.54L-241.00,602.45L-81.21,602.45L-81.21,392.52L-97.19,376.54Z" stroke-width="2.50" fill="#ffffff" stroke="#d43c19"/>
        <path d="M-97.19,376.54L-97.19,392.52L-81.21,392.52Z" stroke-width="2.50" fill="#ffffff" stroke="#d43c19"/>
    </g>
    <g>
        <path d="M-599.19,340.48L-599.19,566.39L-439.40,566.39L-439.40,356.46L-455.38,340.48Z" stroke-width="2.50" fill="#ffffff" stroke="#d43c19"/>
        <path d="M-455.38,340.48L-455.38,356.46L-439.40,356.46Z" stroke-width="2.50" fill="#ffffff" stroke="#d43c19"/>
    </g>
    <g>
        <path d="M-444.78,354.09L-444.78,580.00L-284.99,580.00L-284.99,370.07L-300.97,354.09Z" stroke-width="2.50" fill="#ffffff" stroke="#d43c19"/>
        <path d="M-300.97,354.09L-300.97,370.07L-284.99,370.07Z" stroke-width="2.50" fill="#ffffff" stroke="#d43c19"/>
    </g>
    <g>
        <path d="M-918.72,-217.50L-918.72,8.41L-758.93,8.41L-758.93,-201.52L-774.91,-217.50Z" stroke-width="2.50" fill="#ffffff" stroke="#d43c19"/>
        <path d="M-774.91,-217.50L-774.91,-201.52L-758.93,-201.52Z" stroke-width="2.50" fill="#ffffff" stroke="#d43c19"/>
    </g>
    <g>
        <path d="M20.29,340.59L20.29,566.50L180.08,566.50L180.08,356.56L164.10,340.59Z" stroke-width="2.50" fill="#ffffff" stroke="#d43c19"/>
        <path d="M164.10,340.59L164.10,356.56L180.08,356.56Z" stroke-width="2.50" fill="#ffffff" stroke="#d43c19"/>
    </g>
    <g>
        <path d="M-814.80,107.74L-814.80,333.65L-655.01,333.65L-655.01,123.72L-670.99,107.74Z" stroke-width="2.50" fill="#ffffff" stroke="#d43c19"/>
        <path d="M-670.99,107.74L-670.99,123.72L-655.01,123.72Z" stroke-width="2.50" fill="#ffffff" stroke="#d43c19"/>
    </g>
    <g>
        <path d="M181.61,-675.52L181.61,-449.61L341.40,-449.61L341.40,-659.55L325.42,-675.52Z" stroke-width="2.50" fill="#ffffff" stroke="#d43c19"/>
        <path d="M325.42,-675.52L325.42,-659.55L341.40,-659.55Z" stroke-width="2.50" fill="#ffffff" stroke="#d43c19"/>
    </g>
    <g>
        <path d="M584.78,-649.33L584.78,-423.42L744.57,-423.42L744.57,-633.36L728.59,-649.33Z" stroke-width="2.50" fill="#ffffff" stroke="#d43c19"/>
        <path d="M728.59,-649.33L728.59,-633.36L744.57,-633.36Z" stroke-width="2.50" fill="#ffffff" stroke="#d43c19"/>
    </g>
    <g>
        <path d="M-645.22,-396.22L-645.22,-170.31L-485.43,-170.31L-485.43,-380.24L-501.41,-396.22Z" stroke-width="2.50" fill="#ffffff" stroke="#d43c19"/>
        <path d="M-501.41,-396.22L-501.41,-380.24L-485.43,-380.24Z" stroke-width="2.50" fill="#ffffff" stroke="#d43c19"/>
    </g>
    <g>
        <path d="M-779.34,-639.64L-779.34,-413.73L-619.55,-413.73L-619.55,-623.66L-635.53,-639.64Z" stroke-width="2.50" fill="#ffffff" stroke="#d43c19"/>
        <path d="M-635.53,-639.64L-635.53,-623.66L-619.55,-623.66Z" stroke-width="2.50" fill="#ffffff" stroke="#d43c19"/>
    </g>
    <g>
        <path d="M296.47,-643.51L296.47,-417.60L456.26,-417.60L456.26,-627.53L440.28,-643.51Z" stroke-width="2.50" fill="#ffffff" stroke="#d43c19"/>
        <path d="M440.28,-643.51L440.28,-627.53L456.26,-627.53Z" stroke-width="2.50" fill="#ffffff" stroke="#d43c19"/>
    </g>
    <g>
        <path d="M-842.43,-207.57L-842.43,18.34L-682.64,18.34L-682.64,-191.59L-698.61,-207.57Z" stroke-width="2.50" fill="#ffffff" stroke="#d43c19"/>
        <path d="M-698.61,-207.57L-698.61,-191.59L-682.64,-191.59Z" stroke-width="2.50" fill="#ffffff" stroke="#d43c19"/>
    </g>
    <g>
        <path d="M-961.35,-369.99L-961.35,-144.08L-801.56,-144.08L-801.56,-354.01L-817.54,-369.99Z" stroke-width="2.50" fill="#ffffff" stroke="#d43c19"/>
        <path d="M-817.54,-369.99L-817.54,-354.01L-801.56,-354.01Z" stroke-width="2.50" fill="#ffffff" stroke="#d43c19"/>
    </g>
    <g>
        <path d="M-744.05,-362.82L-744.05,-136.91L-584.26,-136.91L-584.26,-346.84L-600.24,-362.82Z" stroke-width="2.50" fill="#ffffff" stroke="#d43c19"/>
        <path d="M-600.24,-362.82L-600.24,-346.84L-584.26,-346.84Z" stroke-width="2.50" fill="#ffffff" stroke="#d43c19"/>
    </g>
    <g>
        <path d="M-520.51,-83.59L-520.51,142.32L-360.72,142.32L-360.72,-67.61L-376.70,-83.59Z" stroke-width="2.50" fill="#ffffff" stroke="#d43c19"/>
        <path d="M-376.70,-83.59L-376.70,-67.61L-360.72,-67.61Z" stroke-width="2.50" fill="#ffffff" stroke="#d43c19"/>
    </g>
    <g>
        <path d="M518.14,157.43L518.14,383.34L677.93,383.34L677.93,173.41L661.95,157.43Z" stroke-width="2.50" fill="#ffffff" stroke="#d43c19"/>
        <path d="M661.95,157.43L661.95,173.41L677.93,173.41Z" stroke-width="2.50" fill="#ffffff" stroke="#d43c19"/>
    </g>
    <g>
        <path d="M246.08,253.08L246.08,478.99L405.87,478.99L405.87,269.05L389.89,253.08Z" stroke-width="2.50" fill="#ffffff" stroke="#d43c19"/>
        <path d="M389.89,253.08L389.89,269.05L405.87,269.05Z" stroke-width="2.50" fill="#ffffff" stroke="#d43c19"/>
    </g>
    <g>
        <path d="M615.63,-648.52L615.63,-422.61L775.42,-422.61L775.42,-632.54L759.44,-648.52Z" stroke-width="2.50" fill="#ffffff" stroke="#d43c19"/>
        <path d="M759.44,-648.52L759.44,-632.54L775.42,-632.54Z" stroke-width="2.50" fill="#ffffff" stroke="#d43c19"/>
    </g>
    <g>
        <path d="M-676.21,-400.98L-676.21,-175.07L-516.42,-175.07L-516.42,-385.00L-532.40,-400.98Z" stroke-width="2.50" fill="#ffffff" stroke="#d43c19"/>
        <path d="M-532.40,-400.98L-532.40,-385.00L-516.42,-385.00Z" stroke-width="2.50" fill="#ffffff" stroke="#d43c19"/>
    </g>
    <g>
        <path d="M741.20,-264.44L741.20,-38.53L900.99,-38.53L900.99,-248.46L885.01,-264.44Z" stroke-width="2.50" fill="#ffffff" stroke="#d43c19"/>
        <path d="M885.01,-264.44L885.01,-248.46L900.99,-248.46Z" stroke-width="2.50" fill="#ffffff" stroke="#d43c19"/>
    </g>
    <g>
        <path d="M-131.57,85.15L-131.57,311.06L28.22,311.06L28.22,101.13L12.24,85.15Z" stroke-width="2.50" fill="#ffffff" stroke="#d43c19"/>
        <path d="M12.24,85.15L12.24,101.13L28.22,101.13Z" stroke-width="2.50" fill="#ffffff" stroke="#d43c19"/>
    </g>
    <g>
        <path d="M-40.94,-442.77L-40.94,-216.86L118.85,-216.86L118.85,-426.79L102.87,-442.77Z" stroke-width="2.50" fill="#ffffff" stroke="#d43c19"/>
        <path d="M102.87,-442.77L102.87,-426.79L118.85,-426.79Z" stroke-width="2.50" fill="#ffffff" stroke="#d43c19"/>
    </g>
    <g>
        <path d="M-1021.64,-177.70L-1021.64,48.21L-861.85,48.21L-861.85,-161.72L-877.83,-177.70Z" stroke-width="2.50" fill="#ffffff" stroke="#d43c19"/>
        <path d="M-877.83,-177.70L-877.83,-161.72L-861.85,-161.72Z" stroke-width="2.50" fill="#ffffff" stroke="#d43c19"/>
    </g>
    <g>
        <path d="M-555.21,-694.58L-555.21,-468.67L-395.42,-468.67L-395.42,-678.60L-411.40,-694.58Z" stroke-width="2.50" fill="#ffffff" stroke="#d43c19"/>
        <path d="M-411.40,-694.58L-411.40,-678.60L-395.42,-678.60Z" stroke-width="2.50" fill="#ffffff" stroke="#d43c19"/>
    </g>
    <g>
        <path d="M6.08,-326.11L6.08,-100.20L165.87,-100.20L165.87,-310.13L149.89,-326.11Z" stroke-width="2.50" fill="#ffffff" stroke="#d43c19"/>
        <path d="M149.89,-326.11L149.89,-310.13L165.87,-310.13Z" stroke-width="2.50" fill="#ffffff" stroke="#d43c19"/>
    </g>
    <g>
        <path d="M717.16,174.53L717.16,400.44L876.95,400.44L876.95,190.51L860.97,174.53Z" stroke-width="2.50" fill="#ffffff" stroke="#d43c19"/>
        <path d="M860.97,174.53L860.97,190.51L876.95,190.51Z" stroke-width="2.50" fill="#ffffff" stroke="#d43c19"/>
    </g>
    <g>
        <path d="M331.27,-239.34L331.27,-13.43L491.06,-13.43L491.06,-223.36L475.08,-239.34Z" stroke-width="2.50" fill="#ffffff" stroke="#d43c19"/>
        <path d="M475.08,-239.34L475.08,-223.36L491.06,-223.36Z" stroke-width="2.50" fill="#ffffff" stroke="#d43c19"/>
    </g>
    <g>
        <path d="M964.02,-630.70L964.02,-404.79L1123.81,-404.79L1123.81,-614.72L1107.83,-630.70Z" stroke-width="2.50" fill="#ffffff" stroke="#d43c19"/>
        <path d="M1107.83,-630.70L1107.83,-614.72L1123.81,-614.72Z" stroke-width="2.50" fill="#ffffff" stroke="#d43c19"/>
    </g>
    <g>
        <path d="M100.61,-537.07L100.61,-311.16L260.40,-311.16L260.40,-521.09L244.42,-537.07Z" stroke-width="2.50" fill="#ffffff" stroke="#d43c19"/>
        <path d="M244.42,-537.07L244.42,-521.09L260.40,-521.09Z" stroke-width="2.50" fill="#ffffff" stroke="#d43c19"/>
    </g>
    <g>
        <path d="M-244.06,404.13L-244.06,630.04L-84.27,630.04L-84.27,420.11L-100.25,404.13Z" stroke-width="2.50" fill="#ffffff" stroke="#d43c19"/>
        <path d="M-100.25,404.13L-100.25,420.11L-84.27,420.11Z" stroke-width="2.50" fill="#ffffff" stroke="#d43c19"/>
    </g>
    <g>
        <path d="M463.85,-78.59L463.85,147.32L623.64,147.32L623.64,-62.61L607.66,-78.59Z" stroke-width="2.50" fill="#ffffff" stroke="#d43c19"/>
        <path d="M607.66,-78.59L607.66,-62.61L623.64,-62.61Z" stroke-width="2.50" fill="#ffffff" stroke="#d43c19"/>
    </g>
    <g>
        <path d="M-877.24,-345.49L-877.24,-119.58L-717.45,-119.58L-717.45,-329.51L-733.43,-345.49Z" stroke-width="2.50" fill="#ffffff" stroke="#d43c19"/>
        <path d="M-733.43,-345.49L-733.43,-329.51L-717.45,-329.51Z" stroke-width="2.50" fill="#ffffff" stroke="#d43c19"/>
    </g>
    <g>
        <path d="M-0.28,-689.46L-0.28,-463.55L159.51,-463.55L159.51,-673.48L143.53,-689.46Z" stroke-width="2.50" fill="#ffffff" stroke="#d43c19"/>
        <path d="M143.53,-689.46L143.53,-673.48L159.51,-673.48Z" stroke-width="2.50" fill="#ffffff" stroke="#d43c19"/>
    </g>
    <g>
        <path d="M-259.47,-639.55L-259.47,-413.64L-99.68,-413.64L-99.68,-623.57L-115.66,-639.55Z" stroke-width="2.50" fill="#ffffff" stroke="#d43c19"/>
        <path d="M-115.66,-639.55L-115.66,-623.57L-99.68,-623.57Z" stroke-width="2.50" fill="#ffffff" stroke="#d43c19"/>
    </g>
    <g>
        <path d="M-69.12,-330.85L-69.12,-104.94L90.67,-104.94L90.67,-314.87L74.69,-330.85Z" stroke-width="2.50" fill="#ffffff" stroke="#d43c19"/>
        <path d="M74.69,-330.85L74.69,-314.87L90.67,-314.87Z" stroke-width="2.50" fill="#ffffff" stroke="#d43c19"/>
    </g>
    <g>
        <path d="M539.70,-339.39L539.70,-113.48L699.49,-113.48L699.49,-323.41L683.51,-339.39Z" stroke-width="2.50" fill="#ffffff" stroke="#d43c19"/>
        <path d="M683.51,-339.39L683.51,-323.41L699.49,-323.41Z" stroke-width="2.50" fill="#ffffff" stroke="#d43c19"/>
    </g>
    <g>
        <path d="M772.65,-579.09L772.65,-353.18L932.44,-353.18L932.44,-563.11L916.47,-579.09Z" stroke-width="2.50" fill="#ffffff" stroke="#d43c19"/>
        <path d="M916.47,-579.09L916.47,-563.11L932.44,-563.11Z" stroke-width="2.50" fill="#ffffff" stroke="#d43c19"/>
    </g>
    <g>
        <path d="M-501.51,453.00L-501.51,678.91L-341.72,678.91L-341.72,468.98L-357.70,453.00Z" stroke-width="2.50" fill="#ffffff" stroke="#d43c19"/>
        <path d="M-357.70,453.00L-357.70,468.98L-341.72,468.98Z" stroke-width="2.50" fill="#ffffff" stroke="#d43c19"/>
    </g>
    <g>
        <path d="M-753.19,-497.19L-753.19,-271.28L-593.40,-271.28L-593.40,-481.21L-609.38,-497.19Z" stroke-width="2.50" fill="#ffffff" stroke="#d43c19"/>
        <path d="M-609.38,-497.19L-609.38,-481.21L-593.40,-481.21Z" stroke-width="2.50" fill="#ffffff" stroke="#d43c19"/>
    </g>
    <g>
        <path d="M-869.99,332.34L-869.99,558.25L-710.20,558.25L-710.20,348.32L-726.18,332.34Z" stroke-width="2.50" fill="#ffffff" stroke="#d43c19"/>
        <path d="M-726.18,332.34L-726.18,348.32L-710.20,348.32Z" stroke-width="2.50" fill="#ffffff" stroke="#d43c19"/>
    </g>
    <g>
        <path d="M-981.39,443.05L-981.39,668.96L-821.60,668.96L-821.60,459.03L-837.58,443.05Z" stroke-width="2.50" fill="#ffffff" stroke="#d43c19"/>
        <path d="M-837.58,443.05L-837.58,459.03L-821.60,459.03Z" stroke-width="2.50" fill="#ffffff" stroke="#d43c19"/>
    </g>
    <g>
        <path d="M-793.59,-654.28L-793.59,-428.37L-633.80,-428.37L-633.80,-638.30L-649.77,-654.28Z" stroke-width="2.50" fill="#ffffff" stroke="#d43c19"/>
        <path d="M-649.77,-654.28L-649.77,-638.30L-633.80,-638.30Z" stroke-width="2.50" fill="#ffffff" stroke="#d43c19"/>
    </g>
    <g>
        <path d="M583.23,-10.08L583.23,215.83L743.02,215.83L743.02,5.90L727.04,-10.08Z" stroke-width="2.50" fill="#ffffff" stroke="#d43c19"/>
        <path d="M727.04,-10.08L727.04,5.90L743.02,5.90Z" stroke-width="2.50" fill="#ffffff" stroke="#d43c19"/>
    </g>
    <g>
        <path d="M-211.09,37.92L-211.09,263.83L-51.30,263.83L-51.30,53.90L-67.28,37.92Z" stroke-width="2.50" fill="#ffffff" stroke="#d43c19"/>
        <path d="M-67.28,37.92L-67.28,53.90L-51.30,53.90Z" stroke-width="2.50" fill="#ffffff" stroke="#d43c19"/>
    </g>
    <g>
        <path d="M335.69,-408.29L335.69,-182.38L495.48,-182.38L495.48,-392.31L479.50,-408.29Z" stroke-width="2.50" fill="#ffffff" stroke="#d43c19"/>
        <path d="M479.50,-408.29L479.50,-392.31L495.48,-392.31Z" stroke-width="2.50" fill="#ffffff" stroke="#d43c19"/>
    </g>
    <g>
        <path d="M-1051.57,424.12L-1051.57,650.03L-891.78,650.03L-891.78,440.10L-907.76,424.12Z" stroke-width="2.50" fill="#ffffff" stroke="#d43c19"/>
        <path d="M-907.76,424.12L-907.76,440.10L-891.78,440.10Z" stroke-width="2.50" fill="#ffffff" stroke="#d43c19"/>
    </g>
    <g>
        <path d="M707.52,362.91L707.52,588.82L867.31,588.82L867.31,378.89L851.33,362.91Z" stroke-width="2.50" fill="#ffffff" stroke="#d43c19"/>
        <path d="M851.33,362.91L851.33,378.89L867.31,378.89Z" stroke-width="2.50" fill="#ffffff" stroke="#d43c19"/>
    </g>
    <g>
        <path d="M768.68,-67.65L768.68,158.26L928.47,158.26L928.47,-51.67L912.49,-67.65Z" stroke-width="2.50" fill="#ffffff" stroke="#d43c19"/>
        <path d="M912.49,-67.65L912.49,-51.67L928.47,-51.67Z" stroke-width="2.50" fill="#ffffff" stroke="#d43c19"/>
    </g>
    <g>
        <path d="M443.01,345.19L443.01,571.10L602.80,571.10L602.80,361.17L586.82,345.19Z" stroke-width="2.50" fill="#ffffff" stroke="#d43c19"/>
        <path d="M586.82,345.19L586.82,361.17L602.80,361.17Z" stroke-width="2.50" fill="#ffffff" stroke="#d43c19"/>
    </g>
    <g>
        <path d="M-879.41,199.67L-879.41,425.58L-719.62,425.58L-719.62,215.65L-735.60,199.67Z" stroke-width="2.50" fill="#ffffff" stroke="#d43c19"/>
        <path d="M-735.60,199.67L-735.60,215.65L-719.62,215.65Z" stroke-width="2.50" fill="#ffffff" stroke="#d43c19"/>
    </g>
    <g>
        <path d="M-482.20,82.12L-482.20,308.03L-322.41,308.03L-322.41,98.10L-338.39,82.12Z" stroke-width="2.50" fill="#ffffff" stroke="#d43c19"/>
        <path d="M-338.39,82.12L-338.39,98.10L-322.41,98.10Z" stroke-width="2.50" fill="#ffffff" stroke="#d43c19"/>
    </g>
    <g>
        <path d="M185.10,485.39L185.10,711.30L344.89,711.30L344.89,501.37L328.91,485.39Z" stroke-width="2.50" fill="#ffffff" stroke="#d43c19"/>
        <path d="M328.91,485.39L328.91,501.37L344.89,501.37Z" stroke-width="2.50" fill="#ffffff" stroke="#d43c19"/>
    </g>
    <g>
        <path d="M573.62,-425.33L573.62,-199.42L733.41,-199.42L733.41,-409.35L717.43,-425.33Z" stroke-width="2.50" fill="#ffffff" stroke="#d43c19"/>
        <path d="M717.43,-425.33L717.43,-409.35L733.41,-409.35Z" stroke-width="2.50" fill="#ffffff" stroke="#d43c19"/>
    </g>
    <g>
        <path d="M-920.10,-18.61L-920.10,207.30L-760.31,207.30L-760.31,-2.63L-776.29,-18.61Z" stroke-width="2.50" fill="#ffffff" stroke="#d43c19"/>
        <path d="M-776.29,-18.61L-776.29,-2.63L-760.31,-2.63Z" stroke-width="2.50" fill="#ffffff" stroke="#d43c19"/>
    </g>
    <g>
        <path d="M754.37,-229.92L754.37,-4.01L914.16,-4.01L914.16,-213.94L898.18,-229.92Z" stroke-width="2.50" fill="#ffffff" stroke="#d43c19"/>
        <path d="M898.18,-229.92L898.18,-213.94L914.16,-213.94Z" stroke-width="2.50" fill="#ffffff" stroke="#d43c19"/>
    </g>
    <g>
        <path d="M215.01,54.08L215.01,279.99L374.80,279.99L374.80,70.06L358.82,54.08Z" stroke-width="2.50" fill="#ffffff" stroke="#d43c19"/>
        <path d="M358.82,54.08L358.82,70.06L374.80,70.06Z" stroke-width="2.50" fill="#ffffff" stroke="#d43c19"/>
    </g>
    <g>
        <path d="M380.62,259.70L380.62,485.61L540.41,485.61L540.41,275.68L524.43,259.70Z" stroke-width="2.50" fill="#ffffff" stroke="#d43c19"/>
        <path d="M524.43,259.70L524.43,275.68L540.41,275.68Z" stroke-width="2.50" fill="#ffffff" stroke="#d43c19"/>
    </g>
    <g>
        <path d="M-638.14,44.08L-638.14,269.99L-478.35,269.99L-478.35,60.06L-494.33,44.08Z" stroke-width="2.50" fill="#ffffff" stroke="#d43c19"/>
        <path d="M-494.33,44.08L-494.33,60.06L-478.35,60.06Z" stroke-width="2.50" fill="#ffffff" stroke="#d43c19"/>
    </g>
    <g>
        <path d="M892.52,-578.05L892.52,-352.14L1052.31,-352.14L1052.31,-562.07L1036.33,-578.05Z" stroke-width="2.50" fill="#ffffff" stroke="#d43c19"/>
        <path d="M1036.33,-578.05L1036.33,-562.07L1052.31,-562.07Z" stroke-width="2.50" fill="#ffffff" stroke="#d43c19"/>
    </g>
    <g>
        <path d="M-128.94,-520.80L-128.94,-294.89L30.85,-294.89L30.85,-504.82L14.87,-520.80Z" stroke-width="2.50" fill="#ffffff" stroke="#d43c19"/>
        <path d="M14.87,-520.80L14.87,-504.82L30.85,-504.82Z" stroke-width="2.50" fill="#ffffff" stroke="#d43c19"/>
    </g>
    <g>
        <path d="M324.24,-155.34L324.24,70.57L484.03,70.57L484.03,-139.36L468.05,-155.34Z" stroke-width="2.50" fill="#ffffff" stroke="#d43c19"/>
        <path d="M468.05,-155.34L468.05,-139.36L484.03,-139.36Z" stroke-width="2.50" fill="#ffffff" stroke="#d43c19"/>
    </g>
    <g>
        <path d="M715.26,-176.97L715.26,48.94L875.05,48.94L875.05,-160.99L859.07,-176.97Z" stroke-width="2.50" fill="#ffffff" stroke="#d43c19"/>
        <path d="M859.07,-176.97L859.07,-160.99L875.05,-160.99Z" stroke-width="2.50" fill="#ffffff" stroke="#d43c19"/>
    </g>
    <g>
        <path d="M547.00,-703.42L547.00,-477.51L706.79,-477.51L706.79,-687.44L690.81,-703.42Z" stroke-width="2.50" fill="#ffffff" stroke="#d43c19"/>
        <path d="M690.81,-703.42L690.81,-687.44L706.79,-687.44Z" stroke-width="2.50" fill="#ffffff" stroke="#d43c19"/>
    </g>
    <g>
        <path d="M-734.97,185.64L-734.97,411.55L-575.18,411.55L-575.18,201.62L-591.16,185.64Z" stroke-width="2.50" fill="#ffffff" stroke="#d43c19"/>
        <path d="M-591.16,185.64L-591.16,201.62L-575.18,201.62Z" stroke-width="2.50" fill="#ffffff" stroke="#d43c19"/>
    </g>
    <g>
        <path d="M-167.59,-609.27L-167.59,-383.36L-7.80,-383.36L-7.80,-593.29L-23.78,-609.27Z" stroke-width="2.50" fill="#ffffff" stroke="#d43c19"/>
        <path d="M-23.78,-609.27L-23.78,-593.29L-7.80,-593.29Z" stroke-width="2.50" fill="#ffffff" stroke="#d43c19"/>
    </g>
    <g>
        <path d="M28.20,164.91L28.20,390.82L187.99,390.82L187.99,180.89L172.02,164.91Z" stroke-width="2.50" fill="#ffffff" stroke="#d43c19"/>
        <path d="M172.02,164.91L172.02,180.89L187.99,180.89Z" stroke-width="2.50" fill="#ffffff" stroke="#d43c19"/>
    </g>
    <g>
        <path d="M-257.02,-406.88L-257.02,-180.97L-97.23,-180.97L-97.23,-390.90L-113.21,-406.88Z" stroke-width="2.50" fill="#ffffff" stroke="#d43c19"/>
        <path d="M-113.21,-406.88L-113.21,-390.90L-97.23,-390.90Z" stroke-width="2.50" fill="#ffffff" stroke="#d43c19"/>
    </g>
    <g>
        <path d="M-1103.82,366.15L-1103.82,592.06L-944.03,592.06L-944.03,382.13L-960.00,366.15Z" stroke-width="2.50" fill="#ffffff" stroke="#d43c19"/>
        <path d="M-960.00,366.15L-960.00,382.13L-944.03,382.13Z" stroke-width="2.50" fill="#ffffff" stroke="#d43c19"/>
    </g>
    <g>
        <path d="M-947.73,-221.86L-947.73,4.05L-787.94,4.05L-787.94,-205.88L-803.92,-221.86Z" stroke-width="2.50" fill="#ffffff" stroke="#d43c19"/>
        <path d="M-803.92,-221.86L-803.92,-205.88L-787.94,-205.88Z" stroke-width="2.50" fill="#ffffff" stroke="#d43c19"/>
    </g>
    <g>
        <path d="M544.04,364.39L544.04,590.30L703.83,590.30L703.83,380.37L687.85,364.39Z" stroke-width="2.50" fill="#ffffff" stroke="#d43c19"/>
        <path d="M687.85,364.39L687.85,380.37L703.83,380.37Z" stroke-width="2.50" fill="#ffffff" stroke="#d43c19"/>
    </g>
    <g>
        <path d="M-166.11,117.60L-166.11,343.51L-6.32,343.51L-6.32,133.58L-22.30,117.60Z" stroke-width="2.50" fill="#ffffff" stroke="#d43c19"/>
        <path d="M-22.30,117.60L-22.30,133.58L-6.32,133.58Z" stroke-width="2.50" fill="#ffffff" stroke="#d43c19"/>
    </g>
    <g>
        <path d="M-974.17,128.32L-974.17,354.23L-814.38,354.23L-814.38,144.30L-830.36,128.32Z" stroke-width="2.50" fill="#ffffff" stroke="#d43c19"/>
        <path d="M-830.36,128.32L-830.36,144.30L-814.38,144.30Z" stroke-width="2.50" fill="#ffffff" stroke="#d43c19"/>
    </g>
    <g>
        <path d="M-64.58,-486.58L-64.58,-260.67L95.21,-260.67L95.21,-470.60L79.23,-486.58Z" stroke-width="2.50" fill="#ffffff" stroke="#d43c19"/>
        <path d="M79.23,-486.58L79.23,-470.60L95.21,-470.60Z" stroke-width="2.50" fill="#ffffff" stroke="#d43c19"/>
    </g>
    <g>
        <path d="M-308.89,-183.70L-308.89,42.21L-149.10,42.21L-149.10,-167.73L-165.07,-183.70Z" stroke-width="2.50" fill="#ffffff" stroke="#d43c19"/>
        <path d="M-165.07,-183.70L-165.07,-167.73L-149.10,-167.73Z" stroke-width="2.50" fill="#ffffff" stroke="#d43c19"/>
    </g>
    <g>
        <path d="M-329.08,244.48L-329.08,470.39L-169.29,470.39L-169.29,260.45L-185.27,244.48Z" stroke-width="2.50" fill="#ffffff" stroke="#d43c19"/>
        <path d="M-185.27,244.48L-185.27,260.45L-169.29,260.45Z" stroke-width="2.50" fill="#ffffff" stroke="#d43c19"/>
    </g>
    <g>
        <path d="M524.42,384.37L524.42,610.28L684.21,610.28L684.21,400.35L668.23,384.37Z" stroke-width="2.50" fill="#ffffff" stroke="#d43c19"/>
        <path d="M668.23,384.37L668.23,400.35L684.21,400.35Z" stroke-width="2.50" fill="#ffffff" stroke="#d43c19"/>
    </g>
    <g>
        <path d="M824.31,-603.73L824.31,-377.82L984.10,-377.82L984.10,-587.75L968.12,-603.73Z" stroke-width="2.50" fill="#ffffff" stroke="#d43c19"/>
        <path d="M968.12,-603.73L968.12,-587.75L984.10,-587.75Z" stroke-width="2.50" fill="#ffffff" stroke="#d43c19"/>
    </g>
    <g>
        <path d="M275.16,13.00L275.16,238.91L434.95,238.91L434.95,28.98L418.97,13.00Z" stroke-width="2.50" fill="#ffffff" stroke="#d43c19"/>
        <path d="M418.97,13.00L418.97,28.98L434.95,28.98Z" stroke-width="2.50" fill="#ffffff" stroke="#d43c19"/>
    </g>
    <g>
        <path d="M-645.58,-222.50L-645.58,3.41L-485.79,3.41L-485.79,-206.52L-501.77,-222.50Z" stroke-width="2.50" fill="#ffffff" stroke="#d43c19"/>
        <path d="M-501.77,-222.50L-501.77,-206.52L-485.79,-206.52Z" stroke-width="2.50" fill="#ffffff" stroke="#d43c19"/>
    </g>
    <g>
        <path d="M702.68,-236.54L702.68,-10.63L862.47,-10.63L862.47,-220.57L846.49,-236.54Z" stroke-width="2.50" fill="#ffffff" stroke="#d43c19"/>
        <path d="M846.49,-236.54L846.49,-220.57L862.47,-220.57Z" stroke-width="2.50" fill="#ffffff" stroke="#d43c19"/>
    </g>
    <g>
        <path d="M232.42,400.72L232.42,626.63L392.21,626.63L392.21,416.70L376.23,400.72Z" stroke-width="2.50" fill="#ffffff" stroke="#d43c19"/>
        <path d="M376.23,400.72L376.23,416.70L392.21,416.70Z" stroke-width="2.50" fill="#ffffff" stroke="#d43c19"/>
    </g>
    <g>
        <path d="M-1091.88,-683.39L-1091.88,-457.48L-932.09,-457.48L-932.09,-667.41L-948.07,-683.39Z" stroke-width="2.50" fill="#ffffff" stroke="#d43c19"/>
        <path d="M-948.07,-683.39L-948.07,-667.41L-932.09,-667.41Z" stroke-width="2.50" fill="#ffffff" stroke="#d43c19"/>
    </g>
    <g>
        <path d="M222.28,414.88L222.28,640.79L382.07,640.79L382.07,430.86L366.09,414.88Z" stroke-width="2.50" fill="#ffffff" stroke="#d43c19"/>
        <path d="M366.09,414.88L366.09,430.86L382.07,430.86Z" stroke-width="2.50" fill="#ffffff" stroke="#d43c19"/>
    </g>
    <g>
        <path d="M-837.11,126.26L-837.11,352.17L-677.32,352.17L-677.32,142.24L-693.29,126.26Z" stroke-width="2.50" fill="#ffffff" stroke="#d43c19"/>
        <path d="M-693.29,126.26L-693.29,142.24L-677.32,142.24Z" stroke-width="2.50" fill="#ffffff" stroke="#d43c19"/>
    </g>
    <g>
        <path d="M835.82,-574.61L835.82,-348.70L995.61,-348.70L995.61,-558.63L979.63,-574.61Z" stroke-width="2.50" fill="#ffffff" stroke="#d43c19"/>
        <path d="M979.63,-574.61L979.63,-558.63L995.61,-558.63Z" stroke-width="2.50" fill="#ffffff" stroke="#d43c19"/>
    </g>
    <g>
        <path d="M572.29,-364.20L572.29,-138.29L732.08,-138.29L732.08,-348.22L716.10,-364.20Z" stroke-width="2.50" fill="#ffffff" stroke="#d43c19"/>
        <path d="M716.10,-364.20L716.10,-348.22L732.08,-348.22Z" stroke-width="2.50" fill="#ffffff" stroke="#d43c19"/>
    </g>
    <g>
        <path d="M755.30,-576.75L755.30,-350.84L915.09,-350.84L915.09,-560.77L899.12,-576.75Z" stroke-width="2.50" fill="#ffffff" stroke="#d43c19"/>
        <path d="M899.12,-576.75L899.12,-560.77L915.09,-560.77Z" stroke-width="2.50" fill="#ffffff" stroke="#d43c19"/>
    </g>
    <g>
        <path d="M-168.22,361.43L-168.22,587.34L-8.43,587.34L-8.43,377.41L-24.41,361.43Z" stroke-width="2.50" fill="#ffffff" stroke="#d43c19"/>
        <path d="M-24.41,361.43L-24.41,377.41L-8.43,377.41Z" stroke-width="2.50" fill="#ffffff" stroke="#d43c19"/>
    </g>
    <g>
        <path d="M-1081.38,-132.63L-1081.38,93.28L-921.59,93.28L-921.59,-116.65L-937.57,-132.63Z" stroke-width="2.50" fill="#ffffff" stroke="#d43c19"/>
        <path d="M-937.57,-132.63L-937.57,-116.65L-921.59,-116.65Z" stroke-width="2.50" fill="#ffffff" stroke="#d43c19"/>
    </g>
    <g>
        <path d="M-456.46,36.84L-456.46,262.75L-296.67,262.75L-296.67,52.82L-312.65,36.84Z" stroke-width="2.50" fill="#ffffff" stroke="#d43c19"/>
        <path d="M-312.65,36.84L-312.65,52.82L-296.67,52.82Z" stroke-width="2.50" fill="#ffffff" stroke="#d43c19"/>
    </g>
    <g>
        <path d="M-895.32,-174.80L-895.32,51.11L-735.53,51.11L-735.53,-158.82L-751.51,-174.80Z" stroke-width="2.50" fill="#ffffff" stroke="#d43c19"/>
        <path d="M-751.51,-174.80L-751.51,-158.82L-735.53,-158.82Z" stroke-width="2.50" fill="#ffffff" stroke="#d43c19"/>
    </g>
    <g>
        <path d="M61.30,443.63L61.30,669.54L221.09,669.54L221.09,459.61L205.11,443.63Z" stroke-width="2.50" fill="#ffffff" stroke="#d43c19"/>
        <path d="M205.11,443.63L205.11,459.61L221.09,459.61Z" stroke-width="2.50" fill="#ffffff" stroke="#d43c19"/>
    </g>
    <g>
        <path d="M-359.99,274.55L-359.99,500.46L-200.20,500.46L-200.20,290.53L-216.18,274.55Z" stroke-width="2.50" fill="#ffffff" stroke="#d43c19"/>
        <path d="M-216.18,274.55L-216.18,290.53L-200.20,290.53Z" stroke-width="2.50" fill="#ffffff" stroke="#d43c19"/>
    </g>
    <g>
        <path d="M-277.51,-581.43L-277.51,-355.52L-117.72,-355.52L-117.72,-565.45L-133.70,-581.43Z" stroke-width="2.50" fill="#ffffff" stroke="#d43c19"/>
        <path d="M-133.70,-581.43L-133.70,-565.45L-117.72,-565.45Z" stroke-width="2.50" fill="#ffffff" stroke="#d43c19"/>
    </g>
    <g>
        <path d="M871.62,-694.94L871.62,-469.03L1031.41,-469.03L1031.41,-678.96L1015.43,-694.94Z" stroke-width="2.50" fill="#ffffff" stroke="#d43c19"/>
        <path d="M1015.43,-694.94L1015.43,-678.96L1031.41,-678.96Z" stroke-width="2.50" fill="#ffffff" stroke="#d43c19"/>
    </g>
    <g>
        <path d="M208.67,-367.10L208.67,-141.19L368.46,-141.19L368.46,-351.12L352.48,-367.10Z" stroke-width="2.50" fill="#ffffff" stroke="#d43c19"/>
        <path d="M352.48,-367.10L352.48,-351.12L368.46,-351.12Z" stroke-width="2.50" fill="#ffffff" stroke="#d43c19"/>
    </g>
    <g>
        <path d="M315.30,231.03L315.30,456.94L475.09,456.94L475.09,247.01L459.11,231.03Z" stroke-width="2.50" fill="#ffffff" stroke="#d43c19"/>
        <path d="M459.11,231.03L459.11,247.01L475.09,247.01Z" stroke-width="2.50" fill="#ffffff" stroke="#d43c19"/>
    </g>
    <g>
        <path d="M947.44,-518.95L947.44,-293.04L1107.23,-293.04L1107.23,-502.97L1091.25,-518.95Z" stroke-width="2.50" fill="#ffffff" stroke="#d43c19"/>
        <path d="M1091.25,-518.95L1091.25,-502.97L1107.23,-502.97Z" stroke-width="2.50" fill="#ffffff" stroke="#d43c19"/>
    </g>
    <g>
        <path d="M-205.69,-462.44L-205.69,-236.53L-45.90,-236.53L-45.90,-446.46L-61.88,-462.44Z" stroke-width="2.50" fill="#ffffff" stroke="#d43c19"/>
        <path d="M-61.88,-462.44L-61.88,-446.46L-45.90,-446.46Z" stroke-width="2.50" fill="#ffffff" stroke="#d43c19"/>
    </g>
    <g>
        <path d="M431.94,-605.04L431.94,-379.13L591.73,-379.13L591.73,-589.07L575.75,-605.04Z" stroke-width="2.50" fill="#ffffff" stroke="#d43c19"/>
        <path d="M575.75,-605.04L575.75,-589.07L591.73,-589.07Z" stroke-width="2.50" fill="#ffffff" stroke="#d43c19"/>
    </g>
    <g>
        <path d="M-71.31,-669.73L-71.31,-443.82L88.48,-443.82L88.48,-653.75L72.50,-669.73Z" stroke-width="2.50" fill="#ffffff" stroke="#d43c19"/>
        <path d="M72.50,-669.73L72.50,-653.75L88.48,-653.75Z" stroke-width="2.50" fill="#ffffff" stroke="#d43c19"/>
    </g>
    <g>
        <path d="M187.94,-482.53L187.94,-256.62L347.73,-256.62L347.73,-466.55L331.75,-482.53Z" stroke-width="2.50" fill="#ffffff" stroke="#d43c19"/>
        <path d="M331.75,-482.53L331.75,-466.55L347.73,-466.55Z" stroke-width="2.50" fill="#ffffff" stroke="#d43c19"/>
    </g>
    <g>
        <path d="M322.14,-55.82L322.14,170.09L481.93,170.09L481.93,-39.84L465.95,-55.82Z" stroke-width="2.50" fill="#ffffff" stroke="#d43c19"/>
        <path d="M465.95,-55.82L465.95,-39.84L481.93,-39.84Z" stroke-width="2.50" fill="#ffffff" stroke="#d43c19"/>
    </g>
    <g>
        <path d="M262.44,322.17L262.44,548.08L422.23,548.08L422.23,338.15L406.25,322.17Z" stroke-width="2.50" fill="#ffffff" stroke="#d43c19"/>
        <path d="M406.25,322.17L406.25,338.15L422.23,338.15Z" stroke-width="2.50" fill="#ffffff" stroke="#d43c19"/>
    </g>
    <g>
        <path d="M-879.67,190.70L-879.67,416.61L-719.88,416.61L-719.88,206.68L-735.86,190.70Z" stroke-width="2.50" fill="#ffffff" stroke="#d43c19"/>
        <path d="M-735.86,190.70L-735.86,206.68L-719.88,206.68Z" stroke-width="2.50" fill="#ffffff" stroke="#d43c19"/>
    </g>
    <g>
        <path d="M342.74,59.09L342.74,285.00L502.53,285.00L502.53,75.07L486.55,59.09Z" stroke-width="2.50" fill="#ffffff" stroke="#d43c19"/>
        <path d="M486.55,59.09L486.55,75.07L502.53,75.07Z" stroke-width="2.50" fill="#ffffff" stroke="#d43c19"/>
    </g>
    <g>
        <path d="M382.35,181.72L382.35,407.63L542.14,407.63L542.14,197.70L526.16,181.72Z" stroke-width="2.50" fill="#ffffff" stroke="#d43c19"/>
        <path d="M526.16,181.72L526.16,197.70L542.14,197.70Z" stroke-width="2.50" fill="#ffffff" stroke="#d43c19"/>
    </g>
    <g>
        <path d="M240.48,-565.11L240.48,-339.20L400.27,-339.20L400.27,-549.13L384.29,-565.11Z" stroke-width="2.50" fill="#ffffff" stroke="#d43c19"/>
        <path d="M384.29,-565.11L384.29,-549.13L400.27,-549.13Z" stroke-width="2.50" fill="#ffffff" stroke="#d43c19"/>
    </g>
    <g>
        <path d="M-484.93,368.50L-484.93,594.41L-325.14,594.41L-325.14,384.48L-341.12,368.50Z" stroke-width="2.50" fill="#ffffff" stroke="#d43c19"/>
        <path d="M-341.12,368.50L-341.12,384.48L-325.14,384.48Z" stroke-width="2.50" fill="#ffffff" stroke="#d43c19"/>
    </g>
    <g>
        <path d="M-1108.99,302.88L-1108.99,528.79L-949.20,528.79L-949.20,318.86L-965.18,302.88Z" stroke-width="2.50" fill="#ffffff" stroke="#d43c19"/>
        <path d="M-965.18,302.88L-965.18,318.86L-949.20,318.86Z" stroke-width="2.50" fill="#ffffff" stroke="#d43c19"/>
    </g>
    <g>
        <path d="M169.23,-32.09L169.23,193.82L329.02,193.82L329.02,-16.11L313.04,-32.09Z" stroke-width="2.50" fill="#ffffff" stroke="#d43c19"/>
        <path d="M313.04,-32.09L313.04,-16.11L329.02,-16.11Z" stroke-width="2.50" fill="#ffffff" stroke="#d43c19"/>
    </g>
    <g>
        <path d="M-874.44,-657.22L-874.44,-431.31L-714.65,-431.31L-714.65,-641.24L-730.63,-657.22Z" stroke-width="2.50" fill="#ffffff" stroke="#d43c19"/>
        <path d="M-730.63,-657.22L-730.63,-641.24L-714.65,-641.24Z" stroke-width="2.50" fill="#ffffff" stroke="#d43c19"/>
    </g>
    <g>
        <path d="M-814.23,322.21L-814.23,548.12L-654.44,548.12L-654.44,338.19L-670.42,322.21Z" stroke-width="2.50" fill="#ffffff" stroke="#d43c19"/>
        <path d="M-670.42,322.21L-670.42,338.19L-654.44,338.19Z" stroke-width="2.50" fill="#ffffff" stroke="#d43c19"/>
    </g>
    <g>
        <path d="M570.64,-248.50L570.64,-22.59L730.43,-22.59L730.43,-232.52L714.45,-248.50Z" stroke-width="2.50" fill="#ffffff" stroke="#d43c19"/>
        <path d="M714.45,-248.50L714.45,-232.52L730.43,-232.52Z" stroke-width="2.50" fill="#ffffff" stroke="#d43c19"/>
    </g>
    <g>
        <path d="M410.78,-451.32L410.78,-225.41L570.57,-225.41L570.57,-435.34L554.59,-451.32Z" stroke-width="2.50" fill="#ffffff" stroke="#d43c19"/>
        <path d="M554.59,-451.32L554.59,-435.34L570.57,-435.34Z" stroke-width="2.50" fill="#ffffff" stroke="#d43c19"/>
    </g>
    <g>
        <path d="M-382.56,245.94L-382.56,471.85L-222.77,471.85L-222.77,261.92L-238.74,245.94Z" stroke-width="2.50" fill="#ffffff" stroke="#d43c19"/>
        <path d="M-238.74,245.94L-238.74,261.92L-222.77,261.92Z" stroke-width="2.50" fill="#ffffff" stroke="#d43c19"/>
    </g>
    <g>
        <path d="M468.50,-316.21L468.50,-90.30L628.29,-90.30L628.29,-300.24L612.31,-316.21Z" stroke-width="2.50" fill="#ffffff" stroke="#d43c19"/>
        <path d="M612.31,-316.21L612.31,-300.24L628.29,-300.24Z" stroke-width="2.50" fill="#ffffff" stroke="#d43c19"/>
    </g>
    <g>
        <path d="M82.43,395.38L82.43,621.29L242.22,621.29L242.22,411.36L226.24,395.38Z" stroke-width="2.50" fill="#ffffff" stroke="#d43c19"/>
        <path d="M226.24,395.38L226.24,411.36L242.22,411.36Z" stroke-width="2.50" fill="#ffffff" stroke="#d43c19"/>
    </g>
    <g>
        <path d="M293.14,-388.23L293.14,-162.32L452.93,-162.32L452.93,-372.25L436.95,-388.23Z" stroke-width="2.50" fill="#ffffff" stroke="#d43c19"/>
        <path d="M436.95,-388.23L436.95,-372.25L452.93,-372.25Z" stroke-width="2.50" fill="#ffffff" stroke="#d43c19"/>
    </g>
    <g>
        <path d="M349.47,55.31L349.47,281.22L509.26,281.22L509.26,71.29L493.28,55.31Z" stroke-width="2.50" fill="#ffffff" stroke="#d43c19"/>
        <path d="M493.28,55.31L493.28,71.29L509.26,71.29Z" stroke-width="2.50" fill="#ffffff" stroke="#d43c19"/>
    </g>
    <g>
        <path d="M672.32,-9.02L672.32,216.89L832.11,216.89L832.11,6.96L816.13,-9.02Z" stroke-width="2.50" fill="#ffffff" stroke="#d43c19"/>
        <path d="M816.13,-9.02L816.13,6.96L832.11,6.96Z" stroke-width="2.50" fill="#ffffff" stroke="#d43c19"/>
    </g>
    <g>
        <path d="M-1055.92,66.53L-1055.92,292.44L-896.13,292.44L-896.13,82.51L-912.11,66.53Z" stroke-width="2.50" fill="#ffffff" stroke="#d43c19"/>
        <path d="M-912.11,66.53L-912.11,82.51L-896.13,82.51Z" stroke-width="2.50" fill="#ffffff" stroke="#d43c19"/>
    </g>
    <g>
        <path d="M-552.35,-248.55L-552.35,-22.64L-392.56,-22.64L-392.56,-232.57L-408.54,-248.55Z" stroke-width="2.50" fill="#ffffff" stroke="#d43c19"/>
        <path d="M-408.54,-248.55L-408.54,-232.57L-392.56,-232.57Z" stroke-width="2.50" fill="#ffffff" stroke="#d43c19"/>
    </g>
    <g>
        <path d="M740.35,-587.66L740.35,-361.75L900.14,-361.75L900.14,-571.68L884.16,-587.66Z" stroke-width="2.50" fill="#ffffff" stroke="#d43c19"/>
        <path d="M884.16,-587.66L884.16,-571.68L900.14,-571.68Z" stroke-width="2.50" fill="#ffffff" stroke="#d43c19"/>
    </g>
    <g>
        <path d="M-248.79,-64.46L-248.79,161.45L-89.00,161.45L-89.00,-48.48L-104.98,-64.46Z" stroke-width="2.50" fill="#ffffff" stroke="#d43c19"/>
        <path d="M-104.98,-64.46L-104.98,-48.48L-89.00,-48.48Z" stroke-width="2.50" fill="#ffffff" stroke="#d43c19"/>
    </g>
    <g>
        <path d="M-657.32,293.85L-657.32,519.76L-497.53,519.76L-497.53,309.83L-513.51,293.85Z" stroke-width="2.50" fill="#ffffff" stroke="#d43c19"/>
        <path d="M-513.51,293.85L-513.51,309.83L-497.53,309.83Z" stroke-width="2.50" fill="#ffffff" stroke="#d43c19"/>
    </g>
    <g>
        <path d="M530.76,-311.11L530.76,-85.20L690.55,-85.20L690.55,-295.14L674.57,-311.11Z" stroke-width="2.50" fill="#ffffff" stroke="#d43c19"/>
        <path d="M674.57,-311.11L674.57,-295.14L690.55,-295.14Z" stroke-width="2.50" fill="#ffffff" stroke="#d43c19"/>
    </g>
    <g>
        <path d="M-384.15,287.29L-384.15,513.20L-224.36,513.20L-224.36,303.27L-240.34,287.29Z" stroke-width="2.50" fill="#ffffff" stroke="#d43c19"/>
        <path d="M-240.34,287.29L-240.34,303.27L-224.36,303.27Z" stroke-width="2.50" fill="#ffffff" stroke="#d43c19"/>
    </g>
    <g>
        <path d="M730.74,-518.05L730.74,-292.14L890.53,-292.14L890.53,-502.07L874.55,-518.05Z" stroke-width="2.50" fill="#ffffff" stroke="#d43c19"/>
        <path d="M874.55,-518.05L874.55,-502.07L890.53,-502.07Z" stroke-width="2.50" fill="#ffffff" stroke="#d43c19"/>
    </g>
    <g>
        <path d="M259.59,-510.56L259.59,-284.65L419.38,-284.65L419.38,-494.58L403.41,-510.56Z" stroke-width="2.50" fill="#ffffff" stroke="#d43c19"/>
        <path d="M403.41,-510.56L403.41,-494.58L419.38,-494.58Z" stroke-width="2.50" fill="#ffffff" stroke="#d43c19"/>
    </g>
    <g>
        <path d="M-1048.17,-646.98L-1048.17,-421.07L-888.38,-421.07L-888.38,-631.00L-904.36,-646.98Z" stroke-width="2.50" fill="#ffffff" stroke="#d43c19"/>
        <path d="M-904.36,-646.98L-904.36,-631.00L-888.38,-631.00Z" stroke-width="2.50" fill="#ffffff" stroke="#d43c19"/>
    </g>
    <g>
        <path d="M536.61,336.10L536.61,562.01L696.40,562.01L696.40,352.08L680.42,336.10Z" stroke-width="2.50" fill="#ffffff" stroke="#d43c19"/>
        <path d="M680.42,336.10L680.42,352.08L696.40,352.08Z" stroke-width="2.50" fill="#ffffff" stroke="#d43c19"/>
    </g>
    <g>
        <path d="M206.97,-488.41L206.97,-262.50L366.76,-262.50L366.76,-472.43L350.78,-488.41Z" stroke-width="2.50" fill="#ffffff" stroke="#d43c19"/>
        <path d="M350.78,-488.41L350.78,-472.43L366.76,-472.43Z" stroke-width="2.50" fill="#ffffff" stroke="#d43c19"/>
    </g>
    <g>
        <path d="M666.64,195.88L666.64,421.79L826.43,421.79L826.43,211.86L810.45,195.88Z" stroke-width="2.50" fill="#ffffff" stroke="#d43c19"/>
        <path d="M810.45,195.88L810.45,211.86L826.43,211.86Z" stroke-width="2.50" fill="#ffffff" stroke="#d43c19"/>
    </g>
    <g>
        <path d="M-671.16,226.53L-671.16,452.44L-511.37,452.44L-511.37,242.51L-527.35,226.53Z" stroke-width="2.50" fill="#ffffff" stroke="#d43c19"/>
        <path d="M-527.35,226.53L-527.35,242.51L-511.37,242.51Z" stroke-width="2.50" fill="#ffffff" stroke="#d43c19"/>
    </g>
    <g>
        <path d="M-506.44,-104.63L-506.44,121.28L-346.65,121.28L-346.65,-88.65L-362.63,-104.63Z" stroke-width="2.50" fill="#ffffff" stroke="#d43c19"/>
        <path d="M-362.63,-104.63L-362.63,-88.65L-346.65,-88.65Z" stroke-width="2.50" fill="#ffffff" stroke="#d43c19"/>
    </g>
    <g>
        <path d="M360.28,-453.35L360.28,-227.44L520.07,-227.44L520.07,-437.37L504.10,-453.35Z" stroke-width="2.50" fill="#ffffff" stroke="#d43c19"/>
        <path d="M504.10,-453.35L504.10,-437.37L520.07,-437.37Z" stroke-width="2.50" fill="#ffffff" stroke="#d43c19"/>
    </g>
    <g>
        <path d="M417.21,-576.10L417.21,-350.19L577.00,-350.19L577.00,-560.12L561.02,-576.10Z" stroke-width="2.50" fill="#ffffff" stroke="#d43c19"/>
        <path d="M561.02,-576.10L561.02,-560.12L577.00,-560.12Z" stroke-width="2.50" fill="#ffffff" stroke="#d43c19"/>
    </g>
    <g>
        <path d="M77.21,-138.47L77.21,87.44L237.00,87.44L237.00,-122.49L221.02,-138.47Z" stroke-width="2.50" fill="#ffffff" stroke="#d43c19"/>
        <path d="M221.02,-138.47L221.02,-122.49L237.00,-122.49Z" stroke-width="2.50" fill="#ffffff" stroke="#d43c19"/>
    </g>
    <g>
        <path d="M457.07,395.23L457.07,621.14L616.86,621.14L616.86,411.20L600.89,395.23Z" stroke-width="2.50" fill="#ffffff" stroke="#d43c19"/>
        <path d="M600.89,395.23L600.89,411.20L616.86,411.20Z" stroke-width="2.50" fill="#ffffff" stroke="#d43c19"/>
    </g>
    <g>
        <path d="M951.67,8.88L951.67,234.79L1111.46,234.79L1111.46,24.85L1095.48,8.88Z" stroke-width="2.50" fill="#ffffff" stroke="#d43c19"/>
        <path d="M1095.48,8.88L1095.48,24.85L1111.46,24.85Z" stroke-width="2.50" fill="#ffffff" stroke="#d43c19"/>
    </g>
    <g>
        <path d="M481.37,-189.70L481.37,36.21L641.16,36.21L641.16,-173.72L625.18,-189.70Z" stroke-width="2.50" fill="#ffffff" stroke="#d43c19"/>
        <path d="M625.18,-189.70L625.18,-173.72L641.16,-173.72Z" stroke-width="2.50" fill="#ffffff" stroke="#d43c19"/>
    </g>
    <g>
        <path d="M-638.33,-630.11L-638.33,-404.20L-478.54,-404.20L-478.54,-614.13L-494.52,-630.11Z" stroke-width="2.50" fill="#ffffff" stroke="#d43c19"/>
        <path d="M-494.52,-630.11L-494.52,-614.13L-478.54,-614.13Z" stroke-width="2.50" fill="#ffffff" stroke="#d43c19"/>
    </g>
    <g>
        <path d="M-208.63,-330.34L-208.63,-104.43L-48.84,-104.43L-48.84,-314.36L-64.82,-330.34Z" stroke-width="2.50" fill="#ffffff" stroke="#d43c19"/>
        <path d="M-64.82,-330.34L-64.82,-314.36L-48.84,-314.36Z" stroke-width="2.50" fill="#ffffff" stroke="#d43c19"/>
    </g>
    <g>
        <path d="M-406.01,167.51L-406.01,393.42L-246.22,393.42L-246.22,183.49L-262.20,167.51Z" stroke-width="2.50" fill="#ffffff" stroke="#d43c19"/>
        <path d="M-262.20,167.51L-262.20,183.49L-246.22,183.49Z" stroke-width="2.50" fill="#ffffff" stroke="#d43c19"/>
    </g>
    <g>
        <path d="M498.61,425.68L498.61,651.59L658.40,651.59L658.40,441.66L642.43,425.68Z" stroke-width="2.50" fill="#ffffff" stroke="#d43c19"/>
        <path d="M642.43,425.68L642.43,441.66L658.40,441.66Z" stroke-width="2.50" fill="#ffffff" stroke="#d43c19"/>
    </g>
    <g>
        <path d="M566.34,-407.42L566.34,-181.51L726.13,-181.51L726.13,-391.44L710.15,-407.42Z" stroke-width="2.50" fill="#ffffff" stroke="#d43c19"/>
        <path d="M710.15,-407.42L710.15,-391.44L726.13,-391.44Z" stroke-width="2.50" fill="#ffffff" stroke="#d43c19"/>
    </g>
    <g>
        <path d="M770.34,-455.83L770.34,-229.92L930.13,-229.92L930.13,-439.85L914.15,-455.83Z" stroke-width="2.50" fill="#ffffff" stroke="#d43c19"/>
        <path d="M914.15,-455.83L914.15,-439.85L930.13,-439.85Z" stroke-width="2.50" fill="#ffffff" stroke="#d43c19"/>
    </g>
    <g>
        <path d="M-284.07,31.34L-284.07,257.25L-124.28,257.25L-124.28,47.32L-140.26,31.34Z" stroke-width="2.50" fill="#ffffff" stroke="#d43c19"/>
        <path d="M-140.26,31.34L-140.26,47.32L-124.28,47.32Z" stroke-width="2.50" fill="#ffffff" stroke="#d43c19"/>
    </g>
    <g>
        <path d="M547.15,-438.15L547.15,-212.24L706.94,-212.24L706.94,-422.17L690.96,-438.15Z" stroke-width="2.50" fill="#ffffff" stroke="#d43c19"/>
        <path d="M690.96,-438.15L690.96,-422.17L706.94,-422.17Z" stroke-width="2.50" fill="#ffffff" stroke="#d43c19"/>
    </g>
    <g>
        <path d="M163.16,353.01L163.16,578.92L322.95,578.92L322.95,368.98L306.97,353.01Z" stroke-width="2.50" fill="#ffffff" stroke="#d43c19"/>
        <path d="M306.97,353.01L306.97,368.98L322.95,368.98Z" stroke-width="2.50" fill="#ffffff" stroke="#d43c19"/>
    </g>
    <g>
        <path d="M256.29,-619.77L256.29,-393.86L416.08,-393.86L416.08,-603.79L400.10,-619.77Z" stroke-width="2.50" fill="#ffffff" stroke="#d43c19"/>
        <path d="M400.10,-619.77L400.10,-603.79L416.08,-603.79Z" stroke-width="2.50" fill="#ffffff" stroke="#d43c19"/>
    </g>
    <g>
        <path d="M961.03,339.37L961.03,565.28L1120.82,565.28L1120.82,355.35L1104.84,339.37Z" stroke-width="2.50" fill="#ffffff" stroke="#d43c19"/>
        <path d="M1104.84,339.37L1104.84,355.35L1120.82,355.35Z" stroke-width="2.50" fill="#ffffff" stroke="#d43c19"/>
    </g>
    <g>
        <path d="M-146.43,128.39L-146.43,354.30L13.36,354.30L13.36,144.37L-2.62,128.39Z" stroke-width="2.50" fill="#ffffff" stroke="#d43c19"/>
        <path d="M-2.62,128.39L-2.62,144.37L13.36,144.37Z" stroke-width="2.50" fill="#ffffff" stroke="#d43c19"/>
    </g>
    <g>
        <path d="M183.51,-501.21L183.51,-275.30L343.30,-275.30L343.30,-485.23L327.32,-501.21Z" stroke-width="2.50" fill="#ffffff" stroke="#d43c19"/>
        <path d="M327.32,-501.21L327.32,-485.23L343.30,-485.23Z" stroke-width="2.50" fill="#ffffff" stroke="#d43c19"/>
    </g>
    <g>
        <path d="M-672.29,-43.56L-672.29,182.35L-512.50,182.35L-512.50,-27.58L-528.48,-43.56Z" stroke-width="2.50" fill="#ffffff" stroke="#d43c19"/>
        <path d="M-528.48,-43.56L-528.48,-27.58L-512.50,-27.58Z" stroke-width="2.50" fill="#ffffff" stroke="#d43c19"/>
    </g>
    <g>
        <path d="M-210.40,-95.01L-210.40,130.90L-50.61,130.90L-50.61,-79.03L-66.59,-95.01Z" stroke-width="2.50" fill="#ffffff" stroke="#d43c19"/>
        <path d="M-66.59,-95.01L-66.59,-79.03L-50.61,-79.03Z" stroke-width="2.50" fill="#ffffff" stroke="#d43c19"/>
    </g>
    <g>
        <path d="M391.69,188.18L391.69,414.09L551.48,414.09L551.48,204.16L535.50,188.18Z" stroke-width="2.50" fill="#ffffff" stroke="#d43c19"/>
        <path d="M535.50,188.18L535.50,204.16L551.48,204.16Z" stroke-width="2.50" fill="#ffffff" stroke="#d43c19"/>
    </g>
    <g>
        <path d="M-176.54,-463.13L-176.54,-237.22L-16.75,-237.22L-16.75,-447.16L-32.73,-463.13Z" stroke-width="2.50" fill="#ffffff" stroke="#d43c19"/>
        <path d="M-32.73,-463.13L-32.73,-447.16L-16.75,-447.16Z" stroke-width="2.50" fill="#ffffff" stroke="#d43c19"/>
    </g>
    <g>
        <path d="M-132.32,365.85L-132.32,591.76L27.47,591.76L27.47,381.83L11.49,365.85Z" stroke-width="2.50" fill="#ffffff" stroke="#d43c19"/>
        <path d="M11.49,365.85L11.49,381.83L27.47,381.83Z" stroke-width="2.50" fill="#ffffff" stroke="#d43c19"/>
    </g>
    <g>
        <path d="M-824.11,-531.89L-824.11,-305.98L-664.32,-305.98L-664.32,-515.91L-680.29,-531.89Z" stroke-width="2.50" fill="#ffffff" stroke="#d43c19"/>
        <path d="M-680.29,-531.89L-680.29,-515.91L-664.32,-515.91Z" stroke-width="2.50" fill="#ffffff" stroke="#d43c19"/>
    </g>
    <g>
        <path d="M744.43,-538.44L744.43,-312.53L904.22,-312.53L904.22,-522.46L888.24,-538.44Z" stroke-width="2.50" fill="#ffffff" stroke="#d43c19"/>
        <path d="M888.24,-538.44L888.24,-522.46L904.22,-522.46Z" stroke-width="2.50" fill="#ffffff" stroke="#d43c19"/>
    </g>
    <g>
        <path d="M-1062.69,-33.53L-1062.69,192.38L-902.90,192.38L-902.90,-17.55L-918.87,-33.53Z" stroke-width="2.50" fill="#ffffff" stroke="#d43c19"/>
        <path d="M-918.87,-33.53L-918.87,-17.55L-902.90,-17.55Z" stroke-width="2.50" fill="#ffffff" stroke="#d43c19"/>
    </g>
    <g>
        <path d="M48.90,-290.61L48.90,-64.70L208.69,-64.70L208.69,-274.63L192.71,-290.61Z" stroke-width="2.50" fill="#ffffff" stroke="#d43c19"/>
        <path d="M192.71,-290.61L192.71,-274.63L208.69,-274.63Z" stroke-width="2.50" fill="#ffffff" stroke="#d43c19"/>
    </g>
    <g>
        <path d="M-481.76,-89.83L-481.76,136.08L-321.97,136.08L-321.97,-73.85L-337.95,-89.83Z" stroke-width="2.50" fill="#ffffff" stroke="#d43c19"/>
        <path d="M-337.95,-89.83L-337.95,-73.85L-321.97,-73.85Z" stroke-width="2.50" fill="#ffffff" stroke="#d43c19"/>
    </g>
    <g>
        <path d="M-272.46,128.86L-272.46,354.77L-112.67,354.77L-112.67,144.83L-128.65,128.86Z" stroke-width="2.50" fill="#ffffff" stroke="#d43c19"/>
        <path d="M-128.65,128.86L-128.65,144.83L-112.67,144.83Z" stroke-width="2.50" fill="#ffffff" stroke="#d43c19"/>
    </g>
    <g>
        <path d="M499.95,-685.26L499.95,-459.35L659.74,-459.35L659.74,-669.28L643.76,-685.26Z" stroke-width="2.50" fill="#ffffff" stroke="#d43c19"/>
        <path d="M643.76,-685.26L643.76,-669.28L659.74,-669.28Z" stroke-width="2.50" fill="#ffffff" stroke="#d43c19"/>
    </g>
    <g>
        <path d="M77.03,64.85L77.03,290.76L236.82,290.76L236.82,80.82L220.84,64.85Z" stroke-width="2.50" fill="#ffffff" stroke="#d43c19"/>
        <path d="M220.84,64.85L220.84,80.82L236.82,80.82Z" stroke-width="2.50" fill="#ffffff" stroke="#d43c19"/>
    </g>
    <g>
        <path d="M104.66,-213.48L104.66,12.43L264.45,12.43L264.45,-197.50L248.47,-213.48Z" stroke-width="2.50" fill="#ffffff" stroke="#d43c19"/>
        <path d="M248.47,-213.48L248.47,-197.50L264.45,-197.50Z" stroke-width="2.50" fill="#ffffff" stroke="#d43c19"/>
    </g>
    <g>
        <path d="M398.95,-239.21L398.95,-13.30L558.74,-13.30L558.74,-223.23L542.76,-239.21Z" stroke-width="2.50" fill="#ffffff" stroke="#d43c19"/>
        <path d="M542.76,-239.21L542.76,-223.23L558.74,-223.23Z" stroke-width="2.50" fill="#ffffff" stroke="#d43c19"/>
    </g>
    <g>
        <path d="M-357.36,-20.40L-357.36,205.51L-197.57,205.51L-197.57,-4.42L-213.55,-20.40Z" stroke-width="2.50" fill="#ffffff" stroke="#d43c19"/>
        <path d="M-213.55,-20.40L-213.55,-4.42L-197.57,-4.42Z" stroke-width="2.50" fill="#ffffff" stroke="#d43c19"/>
    </g>
    <g>
        <path d="M678.39,311.23L678.39,537.14L838.18,537.14L838.18,327.21L822.20,311.23Z" stroke-width="2.50" fill="#ffffff" stroke="#d43c19"/>
        <path d="M822.20,311.23L822.20,327.21L838.18,327.21Z" stroke-width="2.50" fill="#ffffff" stroke="#d43c19"/>
    </g>
    <g>
        <path d="M-998.44,-168.98L-998.44,56.93L-838.65,56.93L-838.65,-153.00L-854.62,-168.98Z" stroke-width="2.50" fill="#ffffff" stroke="#d43c19"/>
        <path d="M-854.62,-168.98L-854.62,-153.00L-838.65,-153.00Z" stroke-width="2.50" fill="#ffffff" stroke="#d43c19"/>
    </g>
    <g>
        <path d="M-697.27,-293.28L-697.27,-67.37L-537.48,-67.37L-537.48,-277.30L-553.46,-293.28Z" stroke-width="2.50" fill="#ffffff" stroke="#d43c19"/>
        <path d="M-553.46,-293.28L-553.46,-277.30L-537.48,-277.30Z" stroke-width="2.50" fill="#ffffff" stroke="#d43c19"/>
    </g>
    <g>
        <path d="M-107.25,-315.32L-107.25,-89.41L52.54,-89.41L52.54,-299.34L36.56,-315.32Z" stroke-width="2.50" fill="#ffffff" stroke="#d43c19"/>
        <path d="M36.56,-315.32L36.56,-299.34L52.54,-299.34Z" stroke-width="2.50" fill="#ffffff" stroke="#d43c19"/>
    </g>
    <g>
        <path d="M443.46,-511.79L443.46,-285.88L603.25,-285.88L603.25,-495.81L587.27,-511.79Z" stroke-width="2.50" fill="#ffffff" stroke="#d43c19"/>
        <path d="M587.27,-511.79L587.27,-495.81L603.25,-495.81Z" stroke-width="2.50" fill="#ffffff" stroke="#d43c19"/>
    </g>
    <g>
        <path d="M758.11,-412.63L758.11,-186.72L917.90,-186.72L917.90,-396.65L901.92,-412.63Z" stroke-width="2.50" fill="#ffffff" stroke="#d43c19"/>
        <path d="M901.92,-412.63L901.92,-396.65L917.90,-396.65Z" stroke-width="2.50" fill="#ffffff" stroke="#d43c19"/>
    </g>
    <g>
        <path d="M921.24,-229.87L921.24,-3.96L1081.03,-3.96L1081.03,-213.89L1065.05,-229.87Z" stroke-width="2.50" fill="#ffffff" stroke="#d43c19"/>
        <path d="M1065.05,-229.87L1065.05,-213.89L1081.03,-213.89Z" stroke-width="2.50" fill="#ffffff" stroke="#d43c19"/>
    </g>
    <g>
        <path d="M-927.86,450.85L-927.86,676.76L-768.07,676.76L-768.07,466.82L-784.04,450.85Z" stroke-width="2.50" fill="#ffffff" stroke="#d43c19"/>
        <path d="M-784.04,450.85L-784.04,466.82L-768.07,466.82Z" stroke-width="2.50" fill="#ffffff" stroke="#d43c19"/>
    </g>
    <g>
        <path d="M762.55,-129.80L762.55,96.11L922.34,96.11L922.34,-113.82L906.36,-129.80Z" stroke-width="2.50" fill="#ffffff" stroke="#d43c19"/>
        <path d="M906.36,-129.80L906.36,-113.82L922.34,-113.82Z" stroke-width="2.50" fill="#ffffff" stroke="#d43c19"/>
    </g>
    <g>
        <path d="M-156.21,422.08L-156.21,647.99L3.58,647.99L3.58,438.06L-12.40,422.08Z" stroke-width="2.50" fill="#ffffff" stroke="#d43c19"/>
        <path d="M-12.40,422.08L-12.40,438.06L3.58,438.06Z" stroke-width="2.50" fill="#ffffff" stroke="#d43c19"/>
    </g>
    <g>
        <path d="M-865.40,-498.68L-865.40,-272.77L-705.61,-272.77L-705.61,-482.71L-721.59,-498.68Z" stroke-width="2.50" fill="#ffffff" stroke="#d43c19"/>
        <path d="M-721.59,-498.68L-721.59,-482.71L-705.61,-482.71Z" stroke-width="2.50" fill="#ffffff" stroke="#d43c19"/>
    </g>
    <g>
        <path d="M-865.39,289.17L-865.39,515.08L-705.60,515.08L-705.60,305.15L-721.58,289.17Z" stroke-width="2.50" fill="#ffffff" stroke="#d43c19"/>
        <path d="M-721.58,289.17L-721.58,305.15L-705.60,305.15Z" stroke-width="2.50" fill="#ffffff" stroke="#d43c19"/>
    </g>
    <g>
        <path d="M314.87,234.88L314.87,460.79L474.66,460.79L474.66,250.86L458.68,234.88Z" stroke-width="2.50" fill="#ffffff" stroke="#d43c19"/>
        <path d="M458.68,234.88L458.68,250.86L474.66,250.86Z" stroke-width="2.50" fill="#ffffff" stroke="#d43c19"/>
    </g>
    <g>
        <path d="M661.83,-526.42L661.83,-300.51L821.62,-300.51L821.62,-510.44L805.64,-526.42Z" stroke-width="2.50" fill="#ffffff" stroke="#d43c19"/>
        <path d="M805.64,-526.42L805.64,-510.44L821.62,-510.44Z" stroke-width="2.50" fill="#ffffff" stroke="#d43c19"/>
    </g>
    <g>
        <path d="M310.97,336.68L310.97,562.59L470.76,562.59L470.76,352.66L454.78,336.68Z" stroke-width="2.50" fill="#ffffff" stroke="#d43c19"/>
        <path d="M454.78,336.68L454.78,352.66L470.76,352.66Z" stroke-width="2.50" fill="#ffffff" stroke="#d43c19"/>
    </g>
    <g>
        <path d="M247.15,319.88L247.15,545.79L406.94,545.79L406.94,335.85L390.96,319.88Z" stroke-width="2.50" fill="#ffffff" stroke="#d43c19"/>
        <path d="M390.96,319.88L390.96,335.85L406.94,335.85Z" stroke-width="2.50" fill="#ffffff" stroke="#d43c19"/>
    </g>
    <g>
        <path d="M-602.59,105.89L-602.59,331.80L-442.80,331.80L-442.80,121.87L-458.78,105.89Z" stroke-width="2.50" fill="#ffffff" stroke="#d43c19"/>
        <path d="M-458.78,105.89L-458.78,121.87L-442.80,121.87Z" stroke-width="2.50" fill="#ffffff" stroke="#d43c19"/>
    </g>
    <g>
        <path d="M-994.01,192.18L-994.01,418.09L-834.22,418.09L-834.22,208.16L-850.20,192.18Z" stroke-width="2.50" fill="#ffffff" stroke="#d43c19"/>
        <path d="M-850.20,192.18L-850.20,208.16L-834.22,208.16Z" stroke-width="2.50" fill="#ffffff" stroke="#d43c19"/>
    </g>
    <g>
        <path d="M-623.18,-485.41L-623.18,-259.50L-463.39,-259.50L-463.39,-469.44L-479.37,-485.41Z" stroke-width="2.50" fill="#ffffff" stroke="#d43c19"/>
        <path d="M-479.37,-485.41L-479.37,-469.44L-463.39,-469.44Z" stroke-width="2.50" fill="#ffffff" stroke="#d43c19"/>
    </g>
    <g>
        <path d="M845.36,322.06L845.36,547.97L1005.15,547.97L1005.15,338.03L989.17,322.06Z" stroke-width="2.50" fill="#ffffff" stroke="#d43c19"/>
        <path d="M989.17,322.06L989.17,338.03L1005.15,338.03Z" stroke-width="2.50" fill="#ffffff" stroke="#d43c19"/>
    </g>
    <g>
        <path d="M-795.11,49.17L-795.11,275.08L-635.32,275.08L-635.32,65.15L-651.30,49.17Z" stroke-width="2.50" fill="#ffffff" stroke="#d43c19"/>
        <path d="M-651.30,49.17L-651.30,65.15L-635.32,65.15Z" stroke-width="2.50" fill="#ffffff" stroke="#d43c19"/>
    </g>
    <g>
        <path d="M-546.70,-574.29L-546.70,-348.38L-386.91,-348.38L-386.91,-558.31L-402.89,-574.29Z" stroke-width="2.50" fill="#ffffff" stroke="#d43c19"/>
        <path d="M-402.89,-574.29L-402.89,-558.31L-386.91,-558.31Z" stroke-width="2.50" fill="#ffffff" stroke="#d43c19"/>
    </g>
    <g>
        <path d="M-759.28,-602.71L-759.28,-376.80L-599.49,-376.80L-599.49,-586.73L-615.47,-602.71Z" stroke-width="2.50" fill="#ffffff" stroke="#d43c19"/>
        <path d="M-615.47,-602.71L-615.47,-586.73L-599.49,-586.73Z" stroke-width="2.50" fill="#ffffff" stroke="#d43c19"/>
    </g>
    <g>
        <path d="M717.99,418.82L717.99,644.73L877.78,644.73L877.78,434.80L861.81,418.82Z" stroke-width="2.50" fill="#ffffff" stroke="#d43c19"/>
        <path d="M861.81,418.82L861.81,434.80L877.78,434.80Z" stroke-width="2.50" fill="#ffffff" stroke="#d43c19"/>
    </g>
    <g>
        <path d="M597.19,202.87L597.19,428.78L756.98,428.78L756.98,218.85L741.00,202.87Z" stroke-width="2.50" fill="#ffffff" stroke="#d43c19"/>
        <path d="M741.00,202.87L741.00,218.85L756.98,218.85Z" stroke-width="2.50" fill="#ffffff" stroke="#d43c19"/>
    </g>
    <g>
        <path d="M910.39,105.38L910.39,331.29L1070.18,331.29L1070.18,121.36L1054.20,105.38Z" stroke-width="2.50" fill="#ffffff" stroke="#d43c19"/>
        <path d="M1054.20,105.38L1054.20,121.36L1070.18,121.36Z" stroke-width="2.50" fill="#ffffff" stroke="#d43c19"/>
    </g>
    <g>
        <path d="M669.65,-271.30L669.65,-45.39L829.44,-45.39L829.44,-255.33L813.46,-271.30Z" stroke-width="2.50" fill="#ffffff" stroke="#d43c19"/>
        <path d="M813.46,-271.30L813.46,-255.33L829.44,-255.33Z" stroke-width="2.50" fill="#ffffff" stroke="#d43c19"/>
    </g>
    <g>
        <path d="M500.67,-697.45L500.67,-471.54L660.46,-471.54L660.46,-681.47L644.48,-697.45Z" stroke-width="2.50" fill="#ffffff" stroke="#d43c19"/>
        <path d="M644.48,-697.45L644.48,-681.47L660.46,-681.47Z" stroke-width="2.50" fill="#ffffff" stroke="#d43c19"/>
    </g>
    <g>
        <path d="M-984.54,-479.58L-984.54,-253.67L-824.75,-253.67L-824.75,-463.60L-840.73,-479.58Z" stroke-width="2.50" fill="#ffffff" stroke="#d43c19"/>
        <path d="M-840.73,-479.58L-840.73,-463.60L-824.75,-463.60Z" stroke-width="2.50" fill="#ffffff" stroke="#d43c19"/>
    </g>
    <g>
        <path d="M655.90,486.54L655.90,712.45L815.69,712.45L815.69,502.52L799.71,486.54Z" stroke-width="2.50" fill="#ffffff" stroke="#d43c19"/>
        <path d="M799.71,486.54L799.71,502.52L815.69,502.52Z" stroke-width="2.50" fill="#ffffff" stroke="#d43c19"/>
    </g>
    <g>
        <path d="M-558.39,-542.42L-558.39,-316.51L-398.60,-316.51L-398.60,-526.44L-414.58,-542.42Z" stroke-width="2.50" fill="#ffffff" stroke="#d43c19"/>
        <path d="M-414.58,-542.42L-414.58,-526.44L-398.60,-526.44Z" stroke-width="2.50" fill="#ffffff" stroke="#d43c19"/>
    </g>
    <g>
        <path d="M-116.12,104.93L-116.12,330.84L43.67,330.84L43.67,120.91L27.69,104.93Z" stroke-width="2.50" fill="#ffffff" stroke="#d43c19"/>
        <path d="M27.69,104.93L27.69,120.91L43.67,120.91Z" stroke-width="2.50" fill="#ffffff" stroke="#d43c19"/>
    </g>
    <g>
        <path d="M33.44,-293.62L33.44,-67.71L193.23,-67.71L193.23,-277.64L177.25,-293.62Z" stroke-width="2.50" fill="#ffffff" stroke="#d43c19"/>
        <path d="M177.25,-293.62L177.25,-277.64L193.23,-277.64Z" stroke-width="2.50" fill="#ffffff" stroke="#d43c19"/>
    </g>
    <g>
        <path d="M546.60,-0.79L546.60,225.12L706.39,225.12L706.39,15.19L690.41,-0.79Z" stroke-width="2.50" fill="#ffffff" stroke="#d43c19"/>
        <path d="M690.41,-0.79L690.41,15.19L706.39,15.19Z" stroke-width="2.50" fill="#ffffff" stroke="#d43c19"/>
    </g>
    <g>
        <path d="M823.34,256.08L823.34,481.99L983.13,481.99L983.13,272.06L967.15,256.08Z" stroke-width="2.50" fill="#ffffff" stroke="#d43c19"/>
        <path d="M967.15,256.08L967.15,272.06L983.13,272.06Z" stroke-width="2.50" fill="#ffffff" stroke="#d43c19"/>
    </g>
    <g>
        <path d="M-534.60,-683.49L-534.60,-457.58L-374.81,-457.58L-374.81,-667.51L-390.79,-683.49Z" stroke-width="2.50" fill="#ffffff" stroke="#d43c19"/>
        <path d="M-390.79,-683.49L-390.79,-667.51L-374.81,-667.51Z" stroke-width="2.50" fill="#ffffff" stroke="#d43c19"/>
    </g>
    <g>
        <path d="M755.09,124.87L755.09,350.78L914.88,350.78L914.88,140.85L898.90,124.87Z" stroke-width="2.50" fill="#ffffff" stroke="#d43c19"/>
        <path d="M898.90,124.87L898.90,140.85L914.88,140.85Z" stroke-width="2.50" fill="#ffffff" stroke="#d43c19"/>
    </g>
    <g>
        <path d="M-420.15,-337.17L-420.15,-111.26L-260.36,-111.26L-260.36,-321.19L-276.34,-337.17Z" stroke-width="2.50" fill="#ffffff" stroke="#d43c19"/>
        <path d="M-276.34,-337.17L-276.34,-321.19L-260.36,-321.19Z" stroke-width="2.50" fill="#ffffff" stroke="#d43c19"/>
    </g>
    <g>
        <path d="M-1052.96,-637.01L-1052.96,-411.10L-893.17,-411.10L-893.17,-621.03L-909.15,-637.01Z" stroke-width="2.50" fill="#ffffff" stroke="#d43c19"/>
        <path d="M-909.15,-637.01L-909.15,-621.03L-893.17,-621.03Z" stroke-width="2.50" fill="#ffffff" stroke="#d43c19"/>
    </g>
    <g>
        <path d="M-897.89,460.41L-897.89,686.32L-738.10,686.32L-738.10,476.39L-754.08,460.41Z" stroke-width="2.50" fill="#ffffff" stroke="#d43c19"/>
        <path d="M-754.08,460.41L-754.08,476.39L-738.10,476.39Z" stroke-width="2.50" fill="#ffffff" stroke="#d43c19"/>
    </g>
    <g>
        <path d="M395.01,260.25L395.01,486.16L554.80,486.16L554.80,276.22L538.82,260.25Z" stroke-width="2.50" fill="#ffffff" stroke="#d43c19"/>
        <path d="M538.82,260.25L538.82,276.22L554.80,276.22Z" stroke-width="2.50" fill="#ffffff" stroke="#d43c19"/>
    </g>
    <g>
        <path d="M-470.20,-679.93L-470.20,-454.02L-310.41,-454.02L-310.41,-663.95L-326.39,-679.93Z" stroke-width="2.50" fill="#ffffff" stroke="#d43c19"/>
        <path d="M-326.39,-679.93L-326.39,-663.95L-310.41,-663.95Z" stroke-width="2.50" fill="#ffffff" stroke="#d43c19"/>
    </g>
    <g>
        <path d="M-615.20,481.67L-615.20,707.58L-455.41,707.58L-455.41,497.65L-471.39,481.67Z" stroke-width="2.50" fill="#ffffff" stroke="#d43c19"/>
        <path d="M-471.39,481.67L-471.39,497.65L-455.41,497.65Z" stroke-width="2.50" fill="#ffffff" stroke="#d43c19"/>
    </g>
    <g>
        <path d="M841.33,-275.12L841.33,-49.21L1001.12,-49.21L1001.12,-259.14L985.15,-275.12Z" stroke-width="2.50" fill="#ffffff" stroke="#d43c19"/>
        <path d="M985.15,-275.12L985.15,-259.14L1001.12,-259.14Z" stroke-width="2.50" fill="#ffffff" stroke="#d43c19"/>
    </g>
    <g>
        <path d="M-1097.06,209.62L-1097.06,435.53L-937.27,435.53L-937.27,225.60L-953.25,209.62Z" stroke-width="2.50" fill="#ffffff" stroke="#d43c19"/>
        <path d="M-953.25,209.62L-953.25,225.60L-937.27,225.60Z" stroke-width="2.50" fill="#ffffff" stroke="#d43c19"/>
    </g>
    <g>
        <path d="M500.17,244.36L500.17,470.27L659.96,470.27L659.96,260.34L643.98,244.36Z" stroke-width="2.50" fill="#ffffff" stroke="#d43c19"/>
        <path d="M643.98,244.36L643.98,260.34L659.96,260.34Z" stroke-width="2.50" fill="#ffffff" stroke="#d43c19"/>
    </g>
    <g>
        <path d="M-55.28,-237.84L-55.28,-11.93L104.51,-11.93L104.51,-221.86L88.53,-237.84Z" stroke-width="2.50" fill="#ffffff" stroke="#d43c19"/>
        <path d="M88.53,-237.84L88.53,-221.86L104.51,-221.86Z" stroke-width="2.50" fill="#ffffff" stroke="#d43c19"/>
    </g>
    <g>
        <path d="M-163.18,259.44L-163.18,485.35L-3.39,485.35L-3.39,275.42L-19.37,259.44Z" stroke-width="2.50" fill="#ffffff" stroke="#d43c19"/>
        <path d="M-19.37,259.44L-19.37,275.42L-3.39,275.42Z" stroke-width="2.50" fill="#ffffff" stroke="#d43c19"/>
    </g>
    <g>
        <path d="M-281.38,-412.97L-281.38,-187.06L-121.59,-187.06L-121.59,-396.99L-137.57,-412.97Z" stroke-width="2.50" fill="#ffffff" stroke="#d43c19"/>
        <path d="M-137.57,-412.97L-137.57,-396.99L-121.59,-396.99Z" stroke-width="2.50" fill="#ffffff" stroke="#d43c19"/>
    </g>
    <g>
        <path d="M-539.10,375.78L-539.10,601.69L-379.31,601.69L-379.31,391.76L-395.29,375.78Z" stroke-width="2.50" fill="#ffffff" stroke="#d43c19"/>
        <path d="M-395.29,375.78L-395.29,391.76L-379.31,391.76Z" stroke-width="2.50" fill="#ffffff" stroke="#d43c19"/>
    </g>
    <g>
        <path d="M637.43,197.29L637.43,423.20L797.22,423.20L797.22,213.27L781.24,197.29Z" stroke-width="2.50" fill="#ffffff" stroke="#d43c19"/>
        <path d="M781.24,197.29L781.24,213.27L797.22,213.27Z" stroke-width="2.50" fill="#ffffff" stroke="#d43c19"/>
    </g>
    <g>
        <path d="M-320.65,-660.74L-320.65,-434.83L-160.86,-434.83L-160.86,-644.76L-176.84,-660.74Z" stroke-width="2.50" fill="#ffffff" stroke="#d43c19"/>
        <path d="M-176.84,-660.74L-176.84,-644.76L-160.86,-644.76Z" stroke-width="2.50" fill="#ffffff" stroke="#d43c19"/>
    </g>
    <g>
        <path d="M-331.55,318.88L-331.55,544.79L-171.76,544.79L-171.76,334.86L-187.74,318.88Z" stroke-width="2.50" fill="#ffffff" stroke="#d43c19"/>
        <path d="M-187.74,318.88L-187.74,334.86L-171.76,334.86Z" stroke-width="2.50" fill="#ffffff" stroke="#d43c19"/>
    </g>
    <g>
        <path d="M-938.47,-259.94L-938.47,-34.03L-778.68,-34.03L-778.68,-243.96L-794.66,-259.94Z" stroke-width="2.50" fill="#ffffff" stroke="#d43c19"/>
        <path d="M-794.66,-259.94L-794.66,-243.96L-778.68,-243.96Z" stroke-width="2.50" fill="#ffffff" stroke="#d43c19"/>
    </g>
    <g>
        <path d="M886.87,62.39L886.87,288.30L1046.66,288.30L1046.66,78.37L1030.68,62.39Z" stroke-width="2.50" fill="#ffffff" stroke="#d43c19"/>
        <path d="M1030.68,62.39L1030.68,78.37L1046.66,78.37Z" stroke-width="2.50" fill="#ffffff" stroke="#d43c19"/>
    </g>
    <g>
        <path d="M897.16,-297.58L897.16,-71.67L1056.95,-71.67L1056.95,-281.60L1040.97,-297.58Z" stroke-width="2.50" fill="#ffffff" stroke="#d43c19"/>
        <path d="M1040.97,-297.58L1040.97,-281.60L1056.95,-281.60Z" stroke-width="2.50" fill="#ffffff" stroke="#d43c19"/>
    </g>
    <g>
        <path d="M-59.85,-89.67L-59.85,136.24L99.94,136.24L99.94,-73.69L83.96,-89.67Z" stroke-width="2.50" fill="#ffffff" stroke="#d43c19"/>
        <path d="M83.96,-89.67L83.96,-73.69L99.94,-73.69Z" stroke-width="2.50" fill="#ffffff" stroke="#d43c19"/>
    </g>
    <g>
        <path d="M938.64,305.34L938.64,531.25L1098.43,531.25L1098.43,321.32L1082.45,305.34Z" stroke-width="2.50" fill="#ffffff" stroke="#d43c19"/>
        <path d="M1082.45,305.34L1082.45,321.32L1098.43,321.32Z" stroke-width="2.50" fill="#ffffff" stroke="#d43c19"/>
    </g>
    <g>
        <path d="M-715.81,-271.71L-715.81,-45.80L-556.02,-45.80L-556.02,-255.73L-571.99,-271.71Z" stroke-width="2.50" fill="#ffffff" stroke="#d43c19"/>
        <path d="M-571.99,-271.71L-571.99,-255.73L-556.02,-255.73Z" stroke-width="2.50" fill="#ffffff" stroke="#d43c19"/>
    </g>
    <g>
        <path d="M106.11,-535.19L106.11,-309.28L265.90,-309.28L265.90,-519.21L249.92,-535.19Z" stroke-width="2.50" fill="#ffffff" stroke="#d43c19"/>
        <path d="M249.92,-535.19L249.92,-519.21L265.90,-519.21Z" stroke-width="2.50" fill="#ffffff" stroke="#d43c19"/>
    </g>
    <g>
        <path d="M-903.18,462.37L-903.18,688.28L-743.39,688.28L-743.39,478.35L-759.37,462.37Z" stroke-width="2.50" fill="#ffffff" stroke="#d43c19"/>
        <path d="M-759.37,462.37L-759.37,478.35L-743.39,478.35Z" stroke-width="2.50" fill="#ffffff" stroke="#d43c19"/>
    </g>
    <g>
        <path d="M260.10,431.38L260.10,657.29L419.89,657.29L419.89,447.36L403.91,431.38Z" stroke-width="2.50" fill="#ffffff" stroke="#d43c19"/>
        <path d="M403.91,431.38L403.91,447.36L419.89,447.36Z" stroke-width="2.50" fill="#ffffff" stroke="#d43c19"/>
    </g>
    <g>
        <path d="M-891.42,-522.63L-891.42,-296.72L-731.63,-296.72L-731.63,-506.65L-747.60,-522.63Z" stroke-width="2.50" fill="#ffffff" stroke="#d43c19"/>
        <path d="M-747.60,-522.63L-747.60,-506.65L-731.63,-506.65Z" stroke-width="2.50" fill="#ffffff" stroke="#d43c19"/>
    </g>
    <g>
        <path d="M14.90,-682.65L14.90,-456.74L174.69,-456.74L174.69,-666.67L158.71,-682.65Z" stroke-width="2.50" fill="#ffffff" stroke="#d43c19"/>
        <path d="M158.71,-682.65L158.71,-666.67L174.69,-666.67Z" stroke-width="2.50" fill="#ffffff" stroke="#d43c19"/>
    </g>
    <g>
        <path d="M-1083.29,219.23L-1083.29,445.14L-923.50,445.14L-923.50,235.21L-939.48,219.23Z" stroke-width="2.50" fill="#ffffff" stroke="#d43c19"/>
        <path d="M-939.48,219.23L-939.48,235.21L-923.50,235.21Z" stroke-width="2.50" fill="#ffffff" stroke="#d43c19"/>
    </g>
    <g>
        <path d="M873.63,-34.09L873.63,191.82L1033.42,191.82L1033.42,-18.11L1017.44,-34.09Z" stroke-width="2.50" fill="#ffffff" stroke="#d43c19"/>
        <path d="M1017.44,-34.09L1017.44,-18.11L1033.42,-18.11Z" stroke-width="2.50" fill="#ffffff" stroke="#d43c19"/>
    </g>
    <g>
        <path d="M263.83,-347.72L263.83,-121.81L423.62,-121.81L423.62,-331.74L407.64,-347.72Z" stroke-width="2.50" fill="#ffffff" stroke="#d43c19"/>
        <path d="M407.64,-347.72L407.64,-331.74L423.62,-331.74Z" stroke-width="2.50" fill="#ffffff" stroke="#d43c19"/>
    </g>
    <g>
        <path d="M-484.87,10.15L-484.87,236.06L-325.08,236.06L-325.08,26.13L-341.06,10.15Z" stroke-width="2.50" fill="#ffffff" stroke="#d43c19"/>
        <path d="M-341.06,10.15L-341.06,26.13L-325.08,26.13Z" stroke-width="2.50" fill="#ffffff" stroke="#d43c19"/>
    </g>
    <g>
        <path d="M-229.93,-474.14L-229.93,-248.23L-70.14,-248.23L-70.14,-458.16L-86.12,-474.14Z" stroke-width="2.50" fill="#ffffff" stroke="#d43c19"/>
        <path d="M-86.12,-474.14L-86.12,-458.16L-70.14,-458.16Z" stroke-width="2.50" fill="#ffffff" stroke="#d43c19"/>
    </g>
    <g>
        <path d="M-447.72,-57.17L-447.72,168.74L-287.93,168.74L-287.93,-41.19L-303.91,-57.17Z" stroke-width="2.50" fill="#ffffff" stroke="#d43c19"/>
        <path d="M-303.91,-57.17L-303.91,-41.19L-287.93,-41.19Z" stroke-width="2.50" fill="#ffffff" stroke="#d43c19"/>
    </g>
    <g>
        <path d="M804.45,367.03L804.45,592.94L964.24,592.94L964.24,383.01L948.27,367.03Z" stroke-width="2.50" fill="#ffffff" stroke="#d43c19"/>
        <path d="M948.27,367.03L948.27,383.01L964.24,383.01Z" stroke-width="2.50" fill="#ffffff" stroke="#d43c19"/>
    </g>
    <g>
        <path d="M811.54,-571.59L811.54,-345.68L971.33,-345.68L971.33,-555.61L955.36,-571.59Z" stroke-width="2.50" fill="#ffffff" stroke="#d43c19"/>
        <path d="M955.36,-571.59L955.36,-555.61L971.33,-555.61Z" stroke-width="2.50" fill="#ffffff" stroke="#d43c19"/>
    </g>
    <g>
        <path d="M569.31,-624.97L569.31,-399.06L729.10,-399.06L729.10,-608.99L713.12,-624.97Z" stroke-width="2.50" fill="#ffffff" stroke="#d43c19"/>
        <path d="M713.12,-624.97L713.12,-608.99L729.10,-608.99Z" stroke-width="2.50" fill="#ffffff" stroke="#d43c19"/>
    </g>
    <g>
        <path d="M-345.64,336.91L-345.64,562.82L-185.85,562.82L-185.85,352.89L-201.83,336.91Z" stroke-width="2.50" fill="#ffffff" stroke="#d43c19"/>
        <path d="M-201.83,336.91L-201.83,352.89L-185.85,352.89Z" stroke-width="2.50" fill="#ffffff" stroke="#d43c19"/>
    </g>
    <g>
        <path d="M250.32,-489.84L250.32,-263.93L410.11,-263.93L410.11,-473.87L394.13,-489.84Z" stroke-width="2.50" fill="#ffffff" stroke="#d43c19"/>
        <path d="M394.13,-489.84L394.13,-473.87L410.11,-473.87Z" stroke-width="2.50" fill="#ffffff" stroke="#d43c19"/>
    </g>
    <g>
        <path d="M-327.64,64.60L-327.64,290.51L-167.85,290.51L-167.85,80.58L-183.83,64.60Z" stroke-width="2.50" fill="#ffffff" stroke="#d43c19"/>
        <path d="M-183.83,64.60L-183.83,80.58L-167.85,80.58Z" stroke-width="2.50" fill="#ffffff" stroke="#d43c19"/>
    </g>
    <g>
        <path d="M-46.11,-176.02L-46.11,49.89L113.68,49.89L113.68,-160.04L97.70,-176.02Z" stroke-width="2.50" fill="#ffffff" stroke="#d43c19"/>
        <path d="M97.70,-176.02L97.70,-160.04L113.68,-160.04Z" stroke-width="2.50" fill="#ffffff" stroke="#d43c19"/>
    </g>
    <g>
        <path d="M-459.51,-370.29L-459.51,-144.38L-299.72,-144.38L-299.72,-354.31L-315.70,-370.29Z" stroke-width="2.50" fill="#ffffff" stroke="#d43c19"/>
        <path d="M-315.70,-370.29L-315.70,-354.31L-299.72,-354.31Z" stroke-width="2.50" fill="#ffffff" stroke="#d43c19"/>
    </g>
    <g>
        <path d="M-486.62,69.63L-486.62,295.54L-326.83,295.54L-326.83,85.61L-342.81,69.63Z" stroke-width="2.50" fill="#ffffff" stroke="#d43c19"/>
        <path d="M-342.81,69.63L-342.81,85.61L-326.83,85.61Z" stroke-width="2.50" fill="#ffffff" stroke="#d43c19"/>
    </g>
    <g>
        <path d="M-1095.16,-408.22L-1095.16,-182.31L-935.37,-182.31L-935.37,-392.24L-951.35,-408.22Z" stroke-width="2.50" fill="#ffffff" stroke="#d43c19"/>
        <path d="M-951.35,-408.22L-951.35,-392.24L-935.37,-392.24Z" stroke-width="2.50" fill="#ffffff" stroke="#d43c19"/>
    </g>
    <g>
        <path d="M96.27,-139.94L96.27,85.97L256.06,85.97L256.06,-123.96L240.09,-139.94Z" stroke-width="2.50" fill="#ffffff" stroke="#d43c19"/>
        <path d="M240.09,-139.94L240.09,-123.96L256.06,-123.96Z" stroke-width="2.50" fill="#ffffff" stroke="#d43c19"/>
    </g>
    <g>
        <path d="M315.19,241.39L315.19,467.30L474.98,467.30L474.98,257.37L459.00,241.39Z" stroke-width="2.50" fill="#ffffff" stroke="#d43c19"/>
        <path d="M459.00,241.39L459.00,257.37L474.98,257.37Z" stroke-width="2.50" fill="#ffffff" stroke="#d43c19"/>
    </g>
    <g>
        <path d="M-914.43,-290.77L-914.43,-64.86L-754.64,-64.86L-754.64,-274.79L-770.62,-290.77Z" stroke-width="2.50" fill="#ffffff" stroke="#d43c19"/>
        <path d="M-770.62,-290.77L-770.62,-274.79L-754.64,-274.79Z" stroke-width="2.50" fill="#ffffff" stroke="#d43c19"/>
    </g>
    <g>
        <path d="M-413.81,-57.44L-413.81,168.47L-254.02,168.47L-254.02,-41.47L-270.00,-57.44Z" stroke-width="2.50" fill="#ffffff" stroke="#d43c19"/>
        <path d="M-270.00,-57.44L-270.00,-41.47L-254.02,-41.47Z" stroke-width="2.50" fill="#ffffff" stroke="#d43c19"/>
    </g>
    <g>
        <path d="M340.15,-604.81L340.15,-378.90L499.94,-378.90L499.94,-588.83L483.96,-604.81Z" stroke-width="2.50" fill="#ffffff" stroke="#d43c19"/>
        <path d="M483.96,-604.81L483.96,-588.83L499.94,-588.83Z" stroke-width="2.50" fill="#ffffff" stroke="#d43c19"/>
    </g>
    <g>
        <path d="M285.82,183.06L285.82,408.97L445.61,408.97L445.61,199.04L429.63,183.06Z" stroke-width="2.50" fill="#ffffff" stroke="#d43c19"/>
        <path d="M429.63,183.06L429.63,199.04L445.61,199.04Z" stroke-width="2.50" fill="#ffffff" stroke="#d43c19"/>
    </g>
    <g>
        <path d="M-238.44,-573.99L-238.44,-348.08L-78.65,-348.08L-78.65,-558.01L-94.63,-573.99Z" stroke-width="2.50" fill="#ffffff" stroke="#d43c19"/>
        <path d="M-94.63,-573.99L-94.63,-558.01L-78.65,-558.01Z" stroke-width="2.50" fill="#ffffff" stroke="#d43c19"/>
    </g>
    <g>
        <path d="M704.77,-201.43L704.77,24.48L864.56,24.48L864.56,-185.45L848.58,-201.43Z" stroke-width="2.50" fill="#ffffff" stroke="#d43c19"/>
        <path d="M848.58,-201.43L848.58,-185.45L864.56,-185.45Z" stroke-width="2.50" fill="#ffffff" stroke="#d43c19"/>
    </g>
    <g>
        <path d="M-92.59,-431.22L-92.59,-205.31L67.20,-205.31L67.20,-415.24L51.22,-431.22Z" stroke-width="2.50" fill="#ffffff" stroke="#d43c19"/>
        <path d="M51.22,-431.22L51.22,-415.24L67.20,-415.24Z" stroke-width="2.50" fill="#ffffff" stroke="#d43c19"/>
    </g>
    <g>
        <path d="M756.21,-415.51L756.21,-189.60L916.00,-189.60L916.00,-399.53L900.02,-415.51Z" stroke-width="2.50" fill="#ffffff" stroke="#d43c19"/>
        <path d="M900.02,-415.51L900.02,-399.53L916.00,-399.53Z" stroke-width="2.50" fill="#ffffff" stroke="#d43c19"/>
    </g>
    <g>
        <path d="M195.24,18.60L195.24,244.51L355.03,244.51L355.03,34.58L339.05,18.60Z" stroke-width="2.50" fill="#ffffff" stroke="#d43c19"/>
        <path d="M339.05,18.60L339.05,34.58L355.03,34.58Z" stroke-width="2.50" fill="#ffffff" stroke="#d43c19"/>
    </g>
    <g>
        <path d="M591.89,-704.99L591.89,-479.08L751.68,-479.08L751.68,-689.01L735.71,-704.99Z" stroke-width="2.50" fill="#ffffff" stroke="#d43c19"/>
        <path d="M735.71,-704.99L735.71,-689.01L751.68,-689.01Z" stroke-width="2.50" fill="#ffffff" stroke="#d43c19"/>
    </g>
    <g>
        <path d="M35.11,238.87L35.11,464.78L194.90,464.78L194.90,254.85L178.92,238.87Z" stroke-width="2.50" fill="#ffffff" stroke="#d43c19"/>
        <path d="M178.92,238.87L178.92,254.85L194.90,254.85Z" stroke-width="2.50" fill="#ffffff" stroke="#d43c19"/>
    </g>
    <g>
        <path d="M-2.31,-548.29L-2.31,-322.38L157.48,-322.38L157.48,-532.31L141.51,-548.29Z" stroke-width="2.50" fill="#ffffff" stroke="#d43c19"/>
        <path d="M141.51,-548.29L141.51,-532.31L157.48,-532.31Z" stroke-width="2.50" fill="#ffffff" stroke="#d43c19"/>
    </g>
    <g>
        <path d="M813.73,-203.98L813.73,21.93L973.52,21.93L973.52,-188.00L957.54,-203.98Z" stroke-width="2.50" fill="#ffffff" stroke="#d43c19"/>
        <path d="M957.54,-203.98L957.54,-188.00L973.52,-188.00Z" stroke-width="2.50" fill="#ffffff" stroke="#d43c19"/>
    </g>
    <g>
        <path d="M349.00,444.98L349.00,670.89L508.79,670.89L508.79,460.96L492.81,444.98Z" stroke-width="2.50" fill="#ffffff" stroke="#d43c19"/>
        <path d="M492.81,444.98L492.81,460.96L508.79,460.96Z" stroke-width="2.50" fill="#ffffff" stroke="#d43c19"/>
    </g>
    <g>
        <path d="M628.77,-159.01L628.77,66.90L788.56,66.90L788.56,-143.03L772.58,-159.01Z" stroke-width="2.50" fill="#ffffff" stroke="#d43c19"/>
        <path d="M772.58,-159.01L772.58,-143.03L788.56,-143.03Z" stroke-width="2.50" fill="#ffffff" stroke="#d43c19"/>
    </g>
    <g>
        <path d="M-1034.86,309.21L-1034.86,535.12L-875.07,535.12L-875.07,325.19L-891.05,309.21Z" stroke-width="2.50" fill="#ffffff" stroke="#d43c19"/>
        <path d="M-891.05,309.21L-891.05,325.19L-875.07,325.19Z" stroke-width="2.50" fill="#ffffff" stroke="#d43c19"/>
    </g>
    <g>
        <path d="M-1062.18,56.66L-1062.18,282.57L-902.39,282.57L-902.39,72.64L-918.37,56.66Z" stroke-width="2.50" fill="#ffffff" stroke="#d43c19"/>
        <path d="M-918.37,56.66L-918.37,72.64L-902.39,72.64Z" stroke-width="2.50" fill="#ffffff" stroke="#d43c19"/>
    </g>
    <g>
        <path d="M-499.41,288.34L-499.41,514.25L-339.62,514.25L-339.62,304.32L-355.60,288.34Z" stroke-width="2.50" fill="#ffffff" stroke="#d43c19"/>
        <path d="M-355.60,288.34L-355.60,304.32L-339.62,304.32Z" stroke-width="2.50" fill="#ffffff" stroke="#d43c19"/>
    </g>
    <g>
        <path d="M-356.64,-505.30L-356.64,-279.39L-196.85,-279.39L-196.85,-489.32L-212.83,-505.30Z" stroke-width="2.50" fill="#ffffff" stroke="#d43c19"/>
        <path d="M-212.83,-505.30L-212.83,-489.32L-196.85,-489.32Z" stroke-width="2.50" fill="#ffffff" stroke="#d43c19"/>
    </g>
    <g>
        <path d="M850.44,281.61L850.44,507.52L1010.23,507.52L1010.23,297.59L994.25,281.61Z" stroke-width="2.50" fill="#ffffff" stroke="#d43c19"/>
        <path d="M994.25,281.61L994.25,297.59L1010.23,297.59Z" stroke-width="2.50" fill="#ffffff" stroke="#d43c19"/>
    </g>
    <g>
        <path d="M382.54,-32.84L382.54,193.07L542.33,193.07L542.33,-16.86L526.36,-32.84Z" stroke-width="2.50" fill="#ffffff" stroke="#d43c19"/>
        <path d="M526.36,-32.84L526.36,-16.86L542.33,-16.86Z" stroke-width="2.50" fill="#ffffff" stroke="#d43c19"/>
    </g>
    <g>
        <path d="M-172.25,469.67L-172.25,695.58L-12.46,695.58L-12.46,485.65L-28.43,469.67Z" stroke-width="2.50" fill="#ffffff" stroke="#d43c19"/>
        <path d="M-28.43,469.67L-28.43,485.65L-12.46,485.65Z" stroke-width="2.50" fill="#ffffff" stroke="#d43c19"/>
    </g>
    <g>
        <path d="M-271.76,337.25L-271.76,563.16L-111.97,563.16L-111.97,353.23L-127.95,337.25Z" stroke-width="2.50" fill="#ffffff" stroke="#d43c19"/>
        <path d="M-127.95,337.25L-127.95,353.23L-111.97,353.23Z" stroke-width="2.50" fill="#ffffff" stroke="#d43c19"/>
    </g>
    <g>
        <path d="M-308.84,-330.78L-308.84,-104.87L-149.05,-104.87L-149.05,-314.80L-165.03,-330.78Z" stroke-width="2.50" fill="#ffffff" stroke="#d43c19"/>
        <path d="M-165.03,-330.78L-165.03,-314.80L-149.05,-314.80Z" stroke-width="2.50" fill="#ffffff" stroke="#d43c19"/>
    </g>
    <g>
        <path d="M-163.12,-29.16L-163.12,196.75L-3.33,196.75L-3.33,-13.18L-19.31,-29.16Z" stroke-width="2.50" fill="#ffffff" stroke="#d43c19"/>
        <path d="M-19.31,-29.16L-19.31,-13.18L-3.33,-13.18Z" stroke-width="2.50" fill="#ffffff" stroke="#d43c19"/>
    </g>
    <g>
        <path d="M262.55,-349.79L262.55,-123.88L422.34,-123.88L422.34,-333.81L406.37,-349.79Z" stroke-width="2.50" fill="#ffffff" stroke="#d43c19"/>
        <path d="M406.37,-349.79L406.37,-333.81L422.34,-333.81Z" stroke-width="2.50" fill="#ffffff" stroke="#d43c19"/>
    </g>
    <g>
        <path d="M-102.53,164.18L-102.53,390.09L57.26,390.09L57.26,180.16L41.28,164.18Z" stroke-width="2.50" fill="#ffffff" stroke="#d43c19"/>
        <path d="M41.28,164.18L41.28,180.16L57.26,180.16Z" stroke-width="2.50" fill="#ffffff" stroke="#d43c19"/>
    </g>
    <g>
        <path d="M-23.15,172.34L-23.15,398.25L136.64,398.25L136.64,188.32L120.66,172.34Z" stroke-width="2.50" fill="#ffffff" stroke="#d43c19"/>
        <path d="M120.66,172.34L120.66,188.32L136.64,188.32Z" stroke-width="2.50" fill="#ffffff" stroke="#d43c19"/>
    </g>
    <g>
        <path d="M446.22,-444.59L446.22,-218.68L606.01,-218.68L606.01,-428.61L590.03,-444.59Z" stroke-width="2.50" fill="#ffffff" stroke="#d43c19"/>
        <path d="M590.03,-444.59L590.03,-428.61L606.01,-428.61Z" stroke-width="2.50" fill="#ffffff" stroke="#d43c19"/>
    </g>
    <g>
        <path d="M-151.82,258.24L-151.82,484.15L7.97,484.15L7.97,274.22L-8.01,258.24Z" stroke-width="2.50" fill="#ffffff" stroke="#d43c19"/>
        <path d="M-8.01,258.24L-8.01,274.22L7.97,274.22Z" stroke-width="2.50" fill="#ffffff" stroke="#d43c19"/>
    </g>
    <g>
        <path d="M911.73,-643.47L911.73,-417.56L1071.52,-417.56L1071.52,-627.49L1055.54,-643.47Z" stroke-width="2.50" fill="#ffffff" stroke="#d43c19"/>
        <path d="M1055.54,-643.47L1055.54,-627.49L1071.52,-627.49Z" stroke-width="2.50" fill="#ffffff" stroke="#d43c19"/>
    </g>
    <g>
        <path d="M520.64,418.99L520.64,644.90L680.43,644.90L680.43,434.97L664.45,418.99Z" stroke-width="2.50" fill="#ffffff" stroke="#d43c19"/>
        <path d="M664.45,418.99L664.45,434.97L680.43,434.97Z" stroke-width="2.50" fill="#ffffff" stroke="#d43c19"/>
    </g>
    <g>
        <path d="M746.59,-490.46L746.59,-264.55L906.38,-264.55L906.38,-474.48L890.40,-490.46Z" stroke-width="2.50" fill="#ffffff" stroke="#d43c19"/>
        <path d="M890.40,-490.46L890.40,-474.48L906.38,-474.48Z" stroke-width="2.50" fill="#ffffff" stroke="#d43c19"/>
    </g>
    <g>
        <path d="M-1004.91,182.74L-1004.91,408.65L-845.12,408.65L-845.12,198.72L-861.09,182.74Z" stroke-width="2.50" fill="#ffffff" stroke="#d43c19"/>
        <path d="M-861.09,182.74L-861.09,198.72L-845.12,198.72Z" stroke-width="2.50" fill="#ffffff" stroke="#d43c19"/>
    </g>
    <g>
        <path d="M-1016.73,-25.68L-1016.73,200.23L-856.94,200.23L-856.94,-9.70L-872.92,-25.68Z" stroke-width="2.50" fill="#ffffff" stroke="#d43c19"/>
        <path d="M-872.92,-25.68L-872.92,-9.70L-856.94,-9.70Z" stroke-width="2.50" fill="#ffffff" stroke="#d43c19"/>
    </g>
    <g>
        <path d="M288.66,-649.30L288.66,-423.39L448.45,-423.39L448.45,-633.32L432.47,-649.30Z" stroke-width="2.50" fill="#ffffff" stroke="#d43c19"/>
        <path d="M432.47,-649.30L432.47,-633.32L448.45,-633.32Z" stroke-width="2.50" fill="#ffffff" stroke="#d43c19"/>
    </g>
    <g>
        <path d="M-575.65,-101.80L-575.65,124.11L-415.86,124.11L-415.86,-85.82L-431.84,-101.80Z" stroke-width="2.50" fill="#ffffff" stroke="#d43c19"/>
        <path d="M-431.84,-101.80L-431.84,-85.82L-415.86,-85.82Z" stroke-width="2.50" fill="#ffffff" stroke="#d43c19"/>
    </g>
    <g>
        <path d="M288.14,314.99L288.14,540.90L447.93,540.90L447.93,330.97L431.96,314.99Z" stroke-width="2.50" fill="#ffffff" stroke="#d43c19"/>
        <path d="M431.96,314.99L431.96,330.97L447.93,330.97Z" stroke-width="2.50" fill="#ffffff" stroke="#d43c19"/>
    </g>
    <g>
        <path d="M-359.88,195.99L-359.88,421.90L-200.09,421.90L-200.09,211.97L-216.07,195.99Z" stroke-width="2.50" fill="#ffffff" stroke="#d43c19"/>
        <path d="M-216.07,195.99L-216.07,211.97L-200.09,211.97Z" stroke-width="2.50" fill="#ffffff" stroke="#d43c19"/>
    </g>
    <g>
        <path d="M404.90,121.04L404.90,346.95L564.69,346.95L564.69,137.02L548.71,121.04Z" stroke-width="2.50" fill="#ffffff" stroke="#d43c19"/>
        <path d="M548.71,121.04L548.71,137.02L564.69,137.02Z" stroke-width="2.50" fill="#ffffff" stroke="#d43c19"/>
    </g>
    <g>
        <path d="M-399.69,-313.82L-399.69,-87.91L-239.90,-87.91L-239.90,-297.84L-255.88,-313.82Z" stroke-width="2.50" fill="#ffffff" stroke="#d43c19"/>
        <path d="M-255.88,-313.82L-255.88,-297.84L-239.90,-297.84Z" stroke-width="2.50" fill="#ffffff" stroke="#d43c19"/>
    </g>
    <g>
        <path d="M124.79,342.76L124.79,568.67L284.58,568.67L284.58,358.74L268.60,342.76Z" stroke-width="2.50" fill="#ffffff" stroke="#d43c19"/>
        <path d="M268.60,342.76L268.60,358.74L284.58,358.74Z" stroke-width="2.50" fill="#ffffff" stroke="#d43c19"/>
    </g>
    <g>
        <path d="M110.94,-216.47L110.94,9.44L270.73,9.44L270.73,-200.49L254.75,-216.47Z" stroke-width="2.50" fill="#ffffff" stroke="#d43c19"/>
        <path d="M254.75,-216.47L254.75,-200.49L270.73,-200.49Z" stroke-width="2.50" fill="#ffffff" stroke="#d43c19"/>
    </g>
</svg>